<?xml version="1.0" standalone="no"?>
<!DOCTYPE svg PUBLIC "-//W3C//DTD SVG 1.1//EN" "http://www.w3.org/Graphics/SVG/1.1/DTD/svg11.dtd" >
<svg>
<metadata>
Created by FontForge 20090914 at Tue Aug 16 13:14:31 2011
 By www-data
Copyright (c) 1988, 1995, 1998 Adobe Systems Incorporated. All Rights Reserved.Clarendon is a trademark of Linotype-Hell AG and/or its subsidiaries.
</metadata>
<defs>
<font id="ClarendonLT-Bold" horiz-adv-x="611" >
  <font-face 
    font-family="Clarendon LT Bold"
    font-weight="700"
    font-stretch="normal"
    units-per-em="1000"
    panose-1="2 0 8 3 7 0 0 2 0 4"
    ascent="800"
    descent="-200"
    x-height="468"
    cap-height="663"
    bbox="-167 -250 1000 940"
    underline-thickness="50"
    underline-position="-75"
    unicode-range="U+0020-U+FB02"
  />
<missing-glyph horiz-adv-x="305" 
 />
    <glyph glyph-name=".notdef" horiz-adv-x="305" 
 />
    <glyph glyph-name="space" unicode=" " horiz-adv-x="305" 
 />
    <glyph glyph-name="space" unicode="&#xa0;" horiz-adv-x="305" 
 />
    <glyph glyph-name="exclam" unicode="!" horiz-adv-x="333" 
d="M170 153c22.667 0 42.334 -8.16699 59.001 -24.5s25 -36.166 25 -59.499s-8.33301 -43 -25 -59s-36.334 -24 -59.001 -24s-42.167 8 -58.5 24s-24.5 35.667 -24.5 59s8.16699 43.166 24.5 59.499s35.833 24.5 58.5 24.5zM118 205
c0 29.333 -2.33105 60.666 -6.99805 93.999s-9.83398 65.666 -15.501 96.999l-15.5 88c-4.66699 27.333 -7 49.666 -7 66.999c0 16 1.16699 31.833 3.5 47.5s7 29.667 14 42s16.833 22.5 29.5 30.5s29 12 49 12c18.667 0 34 -4 46 -12s21.333 -18.167 28 -30.5
s11.167 -26.333 13.5 -42s3.5 -31.5 3.5 -47.5c0 -17.333 -2.33301 -39.666 -7 -66.999l-15.5 -88c-5.66699 -31.333 -10.834 -63.666 -15.501 -96.999s-7 -64.666 -7 -93.999h-97z" />
    <glyph glyph-name="quotedbl" unicode="&#x22;" horiz-adv-x="333" 
d="M287 398c-0.666992 -4 -3.33008 -10.167 -7.99707 -18.5s-12.334 -12.5 -23.001 -12.5s-18.334 4.16699 -23.001 12.5s-7.33398 14.5 -8.00098 18.5l-20 204c-0.666992 6 -1 13.667 -1 23s1.5 18.333 4.5 27s8.16699 16 15.5 22s18 9 32 9s24.667 -3 32 -9
s12.5 -13.333 15.5 -22s4.5 -17.667 4.5 -27s-0.333008 -17 -1 -23zM108.004 398c-0.666992 -4 -3.33008 -10.167 -7.99707 -18.5s-12.334 -12.5 -23.001 -12.5s-18.334 4.16699 -23.001 12.5s-7.33398 14.5 -8.00098 18.5l-20 204c-0.666992 6 -1 13.667 -1 23
s1.5 18.333 4.5 27s8.16699 16 15.5 22s18 9 32 9s24.667 -3 32 -9s12.5 -13.333 15.5 -22s4.5 -17.667 4.5 -27s-0.333008 -17 -1 -23z" />
    <glyph glyph-name="numbersign" unicode="#" 
d="M292 352l-14 -100h79l13 100h-78zM505 170h-75l-22 -170h-87l24 170h-79l-24 -170h-86l23 170h-73l4 82h81l15 100h-74l3 82h82l23 171h86l-23 -171h78l24 171h87l-24 -171h67l-4 -82h-74l-14 -100h66z" />
    <glyph glyph-name="dollar" unicode="$" 
d="M267 551c-23.333 0 -43.333 -5.83203 -60 -17.499s-25 -32.5 -25 -62.5c0 -18.667 7.83301 -33.334 23.5 -44.001s36.167 -19.667 61.5 -27v151zM347 54.001c10 0.666992 20.499 2.99902 31.499 6.99902s20.833 9.33301 29.5 16s15.834 14.834 21.501 24.501
s8.5 21.167 8.5 34.5c0 21.333 -8.33301 37.5 -25 48.5s-38.667 20.167 -66 27.5v-158zM266.999 230c-39.333 8.66699 -73.998 17.4941 -103.998 26.4941s-55 20.5 -75 34.5s-35.167 31.5 -45.5 52.5s-15.5 47.833 -15.5 80.5c0 34 7 63.333 21 88s32.5 45 55.5 61
s48.667 27.833 77 35.5s57.166 11.5 86.499 11.5v87h80v-87c21.333 -1.33301 45 -4.66602 71 -9.99902s50.167 -13.666 72.5 -24.999s41.166 -25.833 56.499 -43.5s23 -38.834 23 -63.501c0 -27.333 -8 -47.166 -24 -59.499s-36.667 -18.5 -62 -18.5
c-20.667 0 -38.667 6.5 -54 19.5s-23 30.833 -23 53.5c0 11.333 3.5 21.833 10.5 31.5s16.167 16.167 27.5 19.5c-13.333 9.33301 -28.666 16.166 -45.999 20.499s-34.666 6.5 -51.999 6.5v-171c28 -6.66699 56.667 -14.667 86 -24s55.833 -21.666 79.5 -36.999
s43 -34.166 58 -56.499s22.5 -49.5 22.5 -81.5c0 -37.333 -7.83301 -68.166 -23.5 -92.499s-35.667 -43.833 -60 -58.5s-51 -25.334 -80 -32.001s-56.5 -11 -82.5 -13v-110h-80v110c-28 0 -56.833 2.16699 -86.5 6.5s-56.5 12 -80.5 23s-43.667 26 -59 45s-23 43.5 -23 73.5
c0 25.333 9.16699 45.5 27.5 60.5s39.5 22.5 63.5 22.5c21.333 0 40.5 -6 57.5 -18s25.5 -28.333 25.5 -49c0 -19.333 -5.83301 -33.666 -17.5 -42.999s-27.167 -15.333 -46.5 -18c6.66699 -7.33301 15.667 -13.166 27 -17.499s23.666 -7.66602 36.999 -9.99902
s26.666 -4 39.999 -5s25 -1.5 35 -1.5v176z" />
    <glyph glyph-name="percent" unicode="%" horiz-adv-x="833" 
d="M630 307c-9.33301 0 -17.5 -1.83301 -24.5 -5.5s-13 -10.5 -18 -20.5s-8.66699 -23.667 -11 -41s-3.5 -39.666 -3.5 -66.999s1.16699 -49.666 3.5 -66.999s6 -30.833 11 -40.5s11 -16.334 18 -20.001s15.167 -5.5 24.5 -5.5s17.5 1.83301 24.5 5.5s13 10.334 18 20.001
s8.66699 23.167 11 40.5s3.5 39.666 3.5 66.999s-1.16699 49.666 -3.5 66.999s-6 31 -11 41s-11 16.833 -18 20.5s-15.167 5.5 -24.5 5.5zM203 565c-9.33301 0 -17.5 -1.83301 -24.5 -5.5s-13 -10.5 -18 -20.5s-8.66699 -23.667 -11 -41s-3.5 -39.666 -3.5 -66.999
s1.16699 -49.666 3.5 -66.999s6 -30.833 11 -40.5s11 -16.334 18 -20.001s15.167 -5.5 24.5 -5.5s17.5 1.83301 24.5 5.5s13 10.334 18 20.001s8.66699 23.167 11 40.5s3.5 39.666 3.5 66.999s-1.16699 49.666 -3.5 66.999s-6 31 -11 41s-11 16.833 -18 20.5
s-15.167 5.5 -24.5 5.5zM597 620h60l-417 -635h-57zM203 620c30 0 55.667 -4.83301 77 -14.5s38.5 -23 51.5 -40s22.5 -37 28.5 -60s9 -47.833 9 -74.5s-3 -51.334 -9 -74.001s-15.5 -42.5 -28.5 -59.5s-30.167 -30.333 -51.5 -40s-47 -14.5 -77 -14.5
s-55.667 4.83301 -77 14.5s-38.5 23 -51.5 40s-22.5 36.833 -28.5 59.5s-9 47.334 -9 74.001s3 51.5 9 74.5s15.5 43 28.5 60s30.167 30.333 51.5 40s47 14.5 77 14.5zM630 362c30 0 55.667 -4.83301 77 -14.5s38.5 -23 51.5 -40s22.5 -37 28.5 -60s9 -47.833 9 -74.5
s-3 -51.334 -9 -74.001s-15.5 -42.5 -28.5 -59.5s-30.167 -30.333 -51.5 -40s-47 -14.5 -77 -14.5s-55.667 4.83301 -77 14.5s-38.5 23 -51.5 40s-22.5 36.833 -28.5 59.5s-9 47.334 -9 74.001s3 51.5 9 74.5s15.5 43 28.5 60s30.167 30.333 51.5 40s47 14.5 77 14.5z" />
    <glyph glyph-name="ampersand" unicode="&#x26;" horiz-adv-x="889" 
d="M412 544c0 18 -4.66895 30.998 -14.002 38.998s-22.666 12 -39.999 12c-15.333 0 -27 -5.5 -35 -16.5s-12 -23.5 -12 -37.5c0 -4.66699 1.33301 -10.667 4 -18s5.83398 -15 9.50098 -23s7.5 -15.333 11.5 -22s7.66699 -12 11 -16c19.333 8.66699 35 18.834 47 30.501
s18 28.834 18 51.501zM252.998 308.998c-19.333 -12.667 -32.998 -27.668 -40.998 -45.001s-12 -37.333 -12 -60c0 -17.333 3.5 -33.666 10.5 -48.999s16.5 -28.5 28.5 -39.5s25.667 -19.667 41 -26s31.666 -9.5 48.999 -9.5c14 0 28.167 2.16699 42.5 6.5
s27.166 10.5 38.499 18.5c-32 30 -60.333 62.5 -85 97.5zM840 230.997v-42c0 -65.333 -15 -116.5 -45 -153.5s-79 -55.5 -147 -55.5c-30 0 -59.333 4.66699 -88 14s-55.334 23 -80.001 41c-15.333 -10.667 -31.333 -19.5 -48 -26.5s-33.5 -12.667 -50.5 -17
s-33.5 -7.33301 -49.5 -9s-30.667 -2.5 -44 -2.5c-46 0 -85 6 -117 18s-57.833 28.167 -77.5 48.5s-34 43.833 -43 70.5s-13.5 54.667 -13.5 84c0 28 4.16699 52.333 12.5 73s19.833 38.834 34.5 54.501s32 29.5 52 41.5s41.667 23.333 65 34c-9.33301 13.333 -17 29 -23 47
s-9 41 -9 69c0 23.333 4.33301 45 13 65s20.834 37.167 36.501 51.5s33.834 25.666 54.501 33.999s43 12.5 67 12.5c52 0 93.667 -13.5 125 -40.5s47 -63.833 47 -110.5c0 -17.333 -3 -33.833 -9 -49.5s-14 -30.167 -24 -43.5s-21.667 -25.5 -35 -36.5
s-27.333 -20.167 -42 -27.5c21.333 -28 41.833 -56.667 61.5 -86s42.167 -56 67.5 -80l20 24c9.33301 11.333 17.5 23.5 24.5 36.5s10.5 23.5 10.5 31.5c0 9.33301 -4 15.833 -12 19.5s-16.667 5.5 -26 5.5h-36v88h287v-88c-28 0 -48.333 -1.16699 -61 -3.5
s-22.334 -8.5 -29.001 -18.5l-115 -170c8 -11.333 18.833 -22.333 32.5 -33s31.167 -16 52.5 -16c25.333 0 43.5 10.667 54.5 32s16.5 47 16.5 77v37h90z" />
    <glyph glyph-name="quotesingle" unicode="'" horiz-adv-x="222" 
d="M142 398c-0.666992 -4 -3.33008 -10.167 -7.99707 -18.5s-12.334 -12.5 -23.001 -12.5s-18.334 4.16699 -23.001 12.5s-7.33398 14.5 -8.00098 18.5l-20 204c-0.666992 6 -1 13.667 -1 23s1.5 18.333 4.5 27s8.16699 16 15.5 22s18 9 32 9s24.667 -3 32 -9
s12.5 -13.333 15.5 -22s4.5 -17.667 4.5 -27s-0.333008 -17 -1 -23z" />
    <glyph glyph-name="parenleft" unicode="(" horiz-adv-x="389" 
d="M363 601c-28 -4 -52.3311 -13.333 -72.998 -28s-37.5 -36 -50.5 -64s-22.667 -63.667 -29 -107s-9.5 -95.333 -9.5 -156c0 -58 3.16699 -108.333 9.5 -151s16.166 -78.334 29.499 -107.001s30.333 -51 51 -67s45.667 -26 75 -30v-83c-59.333 0 -110.833 12.5 -154.5 37.5
s-79.834 58 -108.501 99s-50.167 87.667 -64.5 140s-21.5 105.833 -21.5 160.5s7.16699 108.334 21.5 161.001s35.833 99.5 64.5 140.5s64.667 74 108 99s94 37.5 152 37.5v-82z" />
    <glyph glyph-name="parenright" unicode=")" horiz-adv-x="389" 
d="M26 -110c28 4 52.332 13.333 72.999 28s37.5 36 50.5 64s22.667 63.5 29 106.5s9.5 95.167 9.5 156.5c0 58 -3.16699 108.333 -9.5 151s-16.166 78.334 -29.499 107.001s-30.5 51 -51.5 67s-45.833 26 -74.5 30v83c58.667 0 110 -12.5 154 -37.5s80.333 -58 109 -99
s50.167 -87.667 64.5 -140s21.5 -105.833 21.5 -160.5s-7.16699 -108.334 -21.5 -161.001s-35.833 -99.5 -64.5 -140.5s-64.667 -74 -108 -99s-94 -37.5 -152 -37.5v82z" />
    <glyph glyph-name="asterisk" unicode="*" horiz-adv-x="500" 
d="M251 683c13.333 0 24.502 -4.00098 33.502 -12.001s13.5 -19 13.5 -33c0 -9.33301 -2.33301 -19.666 -7 -30.999l-15 -35c-5.33301 -12 -10 -24.167 -14 -36.5s-5 -24.166 -3 -35.499c14 9.33301 25.5 18.666 34.5 27.999s16.833 18.166 23.5 26.499
s12.667 16.166 18 23.499s11.333 13.333 18 18c8.66699 6.66699 19 10 31 10c11.333 0 21.833 -4.16699 31.5 -12.5s14.5 -21.166 14.5 -38.499s-6.66699 -29.166 -20 -35.499s-29.333 -10.833 -48 -13.5c-18 -2.66699 -36 -4.66699 -54 -6s-31.667 -5.66602 -41 -12.999
c9.33301 -9.33301 22.833 -15.333 40.5 -18s35.5 -5.66699 53.5 -9c17.333 -3.33301 32.833 -8 46.5 -14s20.5 -17.667 20.5 -35c0 -12.667 -3.33301 -23.667 -10 -33s-17 -14 -31 -14s-24.833 3 -32.5 9s-15.334 13.833 -23.001 23.5l-27.5 34
c-10.667 13 -25.667 26.5 -45 40.5c-2 -11.333 -1 -23.166 3 -35.499s8.66699 -24.5 14 -36.5l15 -35c4.66699 -11.333 7 -21.666 7 -30.999c0 -14 -4.5 -25 -13.5 -33s-20.167 -12 -33.5 -12s-24.5 4 -33.5 12s-13.5 19 -13.5 33c0 9.33301 2.33301 19.666 7 30.999l15 35
c5.33301 12 9.66602 24.167 12.999 36.5s4 24.166 2 35.499c-19.333 -14 -34.333 -27.5 -45 -40.5l-27.5 -34c-7.66699 -9.66699 -15.334 -17.5 -23.001 -23.5s-18.5 -9 -32.5 -9s-24.333 4.66699 -31 14s-10 20.333 -10 33c0 17.333 6.83301 29 20.5 35
s29.167 10.667 46.5 14c18 3.33301 35.833 6.33301 53.5 9s31.167 8.66699 40.5 18c-9.33301 7.33301 -23 11.833 -41 13.5s-36 3.66699 -54 6s-33.833 6.66602 -47.5 12.999s-20.5 18.166 -20.5 35.499c0 18 5.16699 31 15.5 39s21.166 12 32.499 12
c10.667 0 20.334 -3.33301 29.001 -10c6.66699 -4.66699 12.667 -10.667 18 -18s11.333 -15.166 18 -23.499s14.5 -17.166 23.5 -26.499s20.5 -18.666 34.5 -27.999c2 11.333 1.33301 23.166 -2 35.499s-7.66602 24.5 -12.999 36.5l-15 35
c-4.66699 11.333 -7 21.666 -7 30.999c0 14 4.5 25 13.5 33s20.167 12 33.5 12z" />
    <glyph glyph-name="plus" unicode="+" horiz-adv-x="600" 
d="M244 468h111v-179h178v-111h-178v-178h-111v178h-178v111h178v179z" />
    <glyph glyph-name="comma" unicode="," horiz-adv-x="305" 
d="M71 -82c25.333 4.66699 46.499 13.8359 63.499 27.5029s28.5 33.167 34.5 58.5c-7.33301 -1.33301 -14.166 -3 -20.499 -5s-13.166 -3 -20.499 -3c-19.333 0 -35.833 6.16699 -49.5 18.5s-20.5 28.5 -20.5 48.5c0 25.333 7.16699 46.666 21.5 63.999s35.166 26 62.499 26
c33.333 0 59 -10.167 77 -30.5s27 -46.5 27 -78.5c0 -24.667 -4.83301 -47.334 -14.5 -68.001s-22.5 -38.834 -38.5 -54.501s-34.5 -28.667 -55.5 -39s-43.167 -16.833 -66.5 -19.5v55z" />
    <glyph glyph-name="hyphen" unicode="-" horiz-adv-x="333" 
d="M35 164v140h262v-140h-262z" />
    <glyph glyph-name="hyphen" unicode="&#xad;" horiz-adv-x="333" 
d="M35 164v140h262v-140h-262z" />
    <glyph glyph-name="period" unicode="." horiz-adv-x="305" 
d="M152 153c22.667 0 42.334 -8.16699 59.001 -24.5s25 -36.166 25 -59.499s-8.33301 -43 -25 -59s-36.334 -24 -59.001 -24s-42.167 8 -58.5 24s-24.5 35.667 -24.5 59s8.16699 43.166 24.5 59.499s35.833 24.5 58.5 24.5z" />
    <glyph glyph-name="slash" unicode="/" horiz-adv-x="278" 
d="M201 683h111l-235 -703h-111z" />
    <glyph glyph-name="zero" unicode="0" 
d="M208 302c0 -43.333 1.5 -80.166 4.5 -110.499s8.16699 -54.833 15.5 -73.5s17.166 -32.167 29.499 -40.5s28.166 -12.5 47.499 -12.5c18.667 0 34.334 4.16699 47.001 12.5s22.667 21.833 30 40.5s12.5 43.167 15.5 73.5s4.5 67.166 4.5 110.499
s-1.5 80.166 -4.5 110.499s-8.16699 55 -15.5 74s-17.333 32.667 -30 41s-28.334 12.5 -47.001 12.5c-19.333 0 -35.166 -4.16699 -47.499 -12.5s-22.166 -22 -29.499 -41s-12.5 -43.667 -15.5 -74s-4.5 -67.166 -4.5 -110.499zM305 620
c51.333 0 94.833 -8.16699 130.5 -24.5s64.667 -38.833 87 -67.5s38.5 -62.334 48.5 -101.001s15 -80.334 15 -125.001s-5 -86.334 -15 -125.001s-26.167 -72.167 -48.5 -100.5s-51.333 -50.666 -87 -66.999s-79.167 -24.5 -130.5 -24.5s-94.833 8.16699 -130.5 24.5
s-64.667 38.666 -87 66.999s-38.5 61.833 -48.5 100.5s-15 80.334 -15 125.001s5 86.334 15 125.001s26.167 72.334 48.5 101.001s51.333 51.167 87 67.5s79.167 24.5 130.5 24.5z" />
    <glyph glyph-name="one" unicode="1" 
d="M399 605v-473c0 -14 3.5 -25.5 10.5 -34.5s18.167 -13.5 33.5 -13.5h62v-84h-389v84h66c15.333 0 26.5 4.5 33.5 13.5s10.5 20.5 10.5 34.5v309h-108v84h25c29.333 0 54.333 5.66699 75 17s37.667 32.333 51 63h130z" />
    <glyph glyph-name="two" unicode="2" 
d="M28 0l-0.00488281 41.999c0 41.333 8.33301 76 25 104s37.334 52 62.001 72s51.667 37.333 81 52s56.333 29.5 81 44.5s45.334 31.667 62.001 50s25 41.166 25 68.499c0 18 -3.33301 33.667 -10 47s-15.5 24.5 -26.5 33.5s-24 15.667 -39 20s-30.5 6.5 -46.5 6.5
c-12 0 -24.5 -1.66699 -37.5 -5s-25.333 -8.33301 -37 -15s-21.667 -15 -30 -25s-14.166 -21.667 -17.499 -35c6 3.33301 12.5 5.5 19.5 6.5s13.5 1.5 19.5 1.5c19.333 0 35.166 -7.5 47.499 -22.5s18.5 -31.167 18.5 -48.5c0 -8 -1.16699 -16.667 -3.5 -26s-7 -18 -14 -26
s-16.667 -14.667 -29 -20s-28.5 -8 -48.5 -8c-30 0 -54.5 9.66699 -73.5 29s-28.5 44.333 -28.5 75c0 36 8.16699 66.667 24.5 92s37.333 45.833 63 61.5s54.334 27.167 86.001 34.5s62.834 11 93.501 11s61.167 -3.66699 91.5 -11s57.5 -18.833 81.5 -34.5
s43.333 -36 58 -61s22 -55.5 22 -91.5c0 -40 -8 -72 -24 -96s-36.5 -43.5 -61.5 -58.5s-53 -26.833 -84 -35.5s-61.5 -17.667 -91.5 -27s-58 -20.666 -84 -33.999s-46.667 -31.666 -62 -54.999l2 -2c20.667 14.667 40.834 24.667 60.501 30s42.167 8 67.5 8
c16.667 0 31.5 -1.16699 44.5 -3.5s25.833 -4.83301 38.5 -7.5l38 -8c12.667 -2.66699 26.667 -4 42 -4c11.333 0 20.333 2.66699 27 8s11.667 12 15 20s5.5 16.667 6.5 26s1.5 18.333 1.5 27h85v-49c0 -58 -14.5 -101.833 -43.5 -131.5s-72.833 -44.5 -131.5 -44.5
c-23.333 0 -44.833 2.83301 -64.5 8.5s-38.5 12.167 -56.5 19.5s-35.167 13.833 -51.5 19.5s-32.833 8.5 -49.5 8.5c-16 0 -29 -3.16699 -39 -9.5s-16 -16.833 -18 -31.5h-87z" />
    <glyph glyph-name="three" unicode="3" 
d="M243 357c16 0 31.166 1.00098 45.499 3.00098s27 6.16699 38 12.5s19.667 15.166 26 26.499s9.5 26.333 9.5 45c0 17.333 -3.33301 32.166 -10 44.499s-15.5 22.333 -26.5 30s-23.833 13.167 -38.5 16.5s-29.667 5 -45 5c-20.667 0 -39.167 -2.5 -55.5 -7.5
s-31.833 -15.167 -46.5 -30.5c23.333 0 43 -4.83301 59 -14.5s24 -27.167 24 -52.5c0 -12 -2.66699 -22.5 -8 -31.5s-12.166 -16.5 -20.499 -22.5s-18 -10.333 -29 -13s-21.833 -4 -32.5 -4c-26 0 -47.333 8.33301 -64 25s-25 38.334 -25 65.001c0 32 7.66699 58.5 23 79.5
s35 38 59 51s50.167 22.167 78.5 27.5s55.5 8 81.5 8c25.333 0 53.166 -2.16699 83.499 -6.5s58.5 -12.5 84.5 -24.5s47.833 -28.333 65.5 -49s26.5 -47.334 26.5 -80.001c0 -20.667 -3.5 -38.5 -10.5 -53.5s-16.5 -27.833 -28.5 -38.5s-26 -19.167 -42 -25.5
s-33.333 -11.166 -52 -14.499v-2c21.333 -5.33301 41.166 -11.833 59.499 -19.5s34.333 -17.334 48 -29.001s24.334 -26.167 32.001 -43.5s11.5 -38.666 11.5 -63.999c0 -37.333 -7.16699 -68 -21.5 -92s-33.666 -42.833 -57.999 -56.5s-53 -23.167 -86 -28.5
s-68.167 -8 -105.5 -8c-32 0 -63.667 2 -95 6s-59.5 11.833 -84.5 23.5s-45.167 28.334 -60.5 50.001s-23 50.167 -23 85.5c0 32.667 8.66699 57.834 26 75.501s42 26.5 74 26.5c23.333 0 43.166 -7.16699 59.499 -21.5s24.5 -33.5 24.5 -57.5c0 -24.667 -8 -42.667 -24 -54
s-35.667 -17 -59 -17c4 -5.33301 10.333 -10.333 19 -15s17.834 -8.66699 27.501 -12s19.167 -5.83301 28.5 -7.5s17.333 -2.5 24 -2.5c18 0 36 1.66699 54 5s34.167 9.16602 48.5 17.499s25.833 19.666 34.5 33.999s13 32.5 13 54.5s-3.66699 39.667 -11 53
s-17.166 23.5 -29.499 30.5s-26.833 11.667 -43.5 14s-34.334 3.5 -53.001 3.5v80z" />
    <glyph glyph-name="four" unicode="4" 
d="M308 267v192l-182 -192h182zM12 278l313 327h156v-338h98v-84h-98v-51c0 -14 3.5 -25.5 10.5 -34.5s18.167 -13.5 33.5 -13.5h54v-84h-381v84h66c15.333 0 26.5 4.5 33.5 13.5s10.5 20.5 10.5 34.5v51h-296v95z" />
    <glyph glyph-name="five" unicode="5" 
d="M95 620c35.333 -5.33301 70.1621 -9.1709 104.495 -11.5039s69.166 -3.5 104.499 -3.5c17.333 0 37 0.833008 59 2.5l64 5c20.667 1.66699 38.834 3.33398 54.501 5.00098s25.834 2.5 30.501 2.5c12.667 0 19 -6 19 -18c0 -18 -7.83301 -34.5 -23.5 -49.5
s-36 -28 -61 -39s-53.333 -19.5 -85 -25.5s-63.5 -9 -95.5 -9c-36.667 0 -67.334 4.66699 -92.001 14l-3 -91c20 12.667 41 21.334 63 26.001s44.667 7 68 7c34.667 0 67.5 -4.5 98.5 -13.5s58 -22.833 81 -41.5s41.333 -41.834 55 -69.501s20.5 -60.167 20.5 -97.5
c0 -39.333 -7.5 -73.166 -22.5 -101.499s-35.167 -52 -60.5 -71s-54.333 -33 -87 -42s-66.667 -13.5 -102 -13.5c-28 0 -56.667 2.66699 -86 8s-56.166 14.5 -80.499 27.5s-44.333 30.5 -60 52.5s-23.5 49.667 -23.5 83c0 28 8.83301 51.167 26.5 69.5s40.5 27.5 68.5 27.5
c25.333 0 46.5 -6.66699 63.5 -20s25.5 -33.333 25.5 -60c0 -22.667 -7.66699 -39.667 -23 -51s-33.666 -17.666 -54.999 -18.999c11.333 -11.333 25 -20.5 41 -27.5s32 -10.5 48 -10.5c51.333 0 88 13.333 110 40s33 64 33 112c0 18.667 -2.16699 35.834 -6.5 51.501
s-11.166 29.167 -20.499 40.5s-21.166 20.333 -35.499 27s-31.833 10 -52.5 10c-16 0 -31.667 -2.5 -47 -7.5s-29.666 -15.833 -42.999 -32.5h-96z" />
    <glyph glyph-name="six" unicode="6" 
d="M311 290c-25.333 0 -45.333 -9.16699 -60 -27.5s-22 -46.833 -22 -85.5s7.33301 -67 22 -85s34.667 -27 60 -27s45.333 9 60 27s22 46.333 22 85s-7.33301 67.167 -22 85.5s-34.667 27.5 -60 27.5zM218 325c13.333 9.33301 25.832 16.8389 37.499 22.5059
s23.167 10.167 34.5 13.5s23.5 5.66602 36.5 6.99902s27.833 2 44.5 2c28 0 54.5 -4 79.5 -12s46.833 -19.833 65.5 -35.5s33.5 -34.834 44.5 -57.501s16.5 -48.667 16.5 -78c0 -35.333 -7.16699 -65.833 -21.5 -91.5s-33.5 -46.667 -57.5 -63s-51.167 -28.333 -81.5 -36
s-61.5 -11.5 -93.5 -11.5c-49.333 0 -92.166 6.66699 -128.499 20s-66.333 32.666 -90 57.999s-41.334 55.833 -53.001 91.5s-17.5 76.167 -17.5 121.5c0 51.333 6 98.166 18 140.499s30.833 78.5 56.5 108.5s58.167 53.333 97.5 70s86.333 25 141 25
c20 0 41.833 -2.5 65.5 -7.5s45.834 -12.833 66.501 -23.5s38 -23.834 52 -39.501s21 -34.5 21 -56.5c0 -31.333 -8.5 -53.666 -25.5 -66.999s-41.5 -20 -73.5 -20c-21.333 0 -39.666 6.33301 -54.999 19s-23 28.334 -23 47.001c0 15.333 3.16699 27.166 9.5 35.499
s16.166 16.166 29.499 23.499c-8.66699 5.33301 -17 9.16602 -25 11.499s-16.667 3.5 -26 3.5c-26 0 -48.167 -4.33301 -66.5 -13s-33.333 -20.5 -45 -35.5s-20.167 -32.667 -25.5 -53s-8 -41.833 -8 -64.5v-55z" />
    <glyph glyph-name="seven" unicode="7" 
d="M134 537l6.00293 0.000976562c19.333 25.333 39.666 43.166 60.999 53.499s49 15.5 83 15.5c18.667 0 36.167 -2 52.5 -6s31.833 -8.33301 46.5 -13l42.5 -13c13.667 -4 27.167 -6 40.5 -6c12.667 0 23 3 31 9s12 15.333 12 28h77v-18c0 -28 -5.16699 -54.333 -15.5 -79
s-23.333 -49.5 -39 -74.5l-50.5 -77c-18 -26.333 -34.833 -55 -50.5 -86s-28.667 -65 -39 -102s-15.5 -78.5 -15.5 -124.5v-44h-184v25c0 44.667 3.66699 83 11 115s17.166 60 29.499 84s27 45.333 44 64s35.333 37 55 55l61 58c21 20.667 42.167 45 63.5 73l-2 2
c-17.333 -10 -35 -16.5 -53 -19.5s-36.333 -4.5 -55 -4.5c-10.667 0 -21.834 0.833008 -33.501 2.5s-23.5 3.5 -35.5 5.5s-23.667 3.83301 -35 5.5s-21.333 2.5 -30 2.5c-22 0 -40.5 -9.66699 -55.5 -29s-22.5 -47.333 -22.5 -84v-29h-85v279h85v-68z" />
    <glyph glyph-name="eight" unicode="8" 
d="M392 404c12.667 7.33301 22.001 16.168 28.001 26.501s9 23.166 9 38.499s-3.83301 28 -11.5 38s-17.167 17.833 -28.5 23.5s-23.833 9.66699 -37.5 12s-26.834 3.5 -39.501 3.5c-11.333 0 -23.333 -0.833008 -36 -2.5s-24.167 -5 -34.5 -10s-18.833 -12 -25.5 -21
s-10 -20.5 -10 -34.5c0 -23.333 12.333 -39 37 -47l123 -43zM222.001 258.002c-10 -3.33301 -19.3311 -8.50098 -27.998 -15.501s-16.334 -14.667 -23.001 -23s-12 -17.166 -16 -26.499s-6 -18 -6 -26c0 -22 4.66699 -40 14 -54s21.333 -25 36 -33s31.167 -13.5 49.5 -16.5
s36.5 -4.5 54.5 -4.5c13.333 0 27.166 1.33301 41.499 4s27.5 7 39.5 13s22 14.333 30 25s12 24 12 40c0 7.33301 -1.33301 14.166 -4 20.499s-7.16699 12.5 -13.5 18.5s-15.333 11.833 -27 17.5s-26.5 11.834 -44.5 18.501zM312.003 620.001
c24 0 49.999 -2.16992 77.999 -6.50293s53.667 -12.166 77 -23.499s42.833 -26.833 58.5 -46.5s23.5 -44.5 23.5 -74.5c0 -16 -2.83301 -30.167 -8.5 -42.5s-13.167 -23 -22.5 -32s-20.166 -16.667 -32.499 -23s-25.5 -11.833 -39.5 -16.5
c40.667 -16 73.334 -37.333 98.001 -64s37 -63.334 37 -110.001c0 -38 -7.83301 -69.667 -23.5 -95s-36.667 -45.5 -63 -60.5s-56.333 -25.5 -90 -31.5s-68.5 -9 -104.5 -9c-27.333 0 -56.833 2 -88.5 6s-61 11.833 -88 23.5s-49.5 28.334 -67.5 50.001s-27 50.167 -27 85.5
c0 40 10.167 71.5 30.5 94.5s48.833 41.167 85.5 54.5c-25.333 12.667 -47.333 29.834 -66 51.501s-28 47.5 -28 77.5c0 38.667 7.5 70.334 22.5 95.001s34.667 44.167 59 58.5s52.166 24.333 83.499 30s63.333 8.5 96 8.5z" />
    <glyph glyph-name="nine" unicode="9" 
d="M299 540c-25.333 0 -45.333 -9.16699 -60 -27.5s-22 -46.833 -22 -85.5s7.33301 -67 22 -85s34.667 -27 60 -27s45.333 9 60 27s22 46.333 22 85s-7.33301 67.167 -22 85.5s-34.667 27.5 -60 27.5zM393 280c-13.333 -9.33301 -25.8369 -16.835 -37.5039 -22.502
s-23.167 -10.167 -34.5 -13.5s-23.5 -5.66602 -36.5 -6.99902s-27.833 -2 -44.5 -2c-30 0 -57.667 3.83301 -83 11.5s-47.166 19.334 -65.499 35.001s-32.666 34.834 -42.999 57.501s-15.5 49 -15.5 79c0 35.333 7.33301 65.833 22 91.5s33.834 46.667 57.501 63
s50.834 28.333 81.501 36s62 11.5 94 11.5c50 0 93.167 -7.83301 129.5 -23.5s66.333 -36.834 90 -63.501s41.167 -57.667 52.5 -93s17 -72.333 17 -111c0 -51.333 -6.5 -98.166 -19.5 -140.499s-32.333 -78.5 -58 -108.5s-58 -53.333 -97 -70s-84.5 -25 -136.5 -25h-1
c-20 0 -42 2 -66 6s-46.333 10.667 -67 20s-38 22.166 -52 38.499s-21 37.166 -21 62.499c0 31.333 8.66699 53.666 26 66.999s37.666 20 60.999 20c28 0 50 -6.33301 66 -19s24 -28.334 24 -47.001c0 -15.333 -3.16699 -27.166 -9.5 -35.499
s-16.166 -16.166 -29.499 -23.499c8.66699 -5.33301 17 -9.16602 25 -11.499s16.667 -3.5 26 -3.5c51.333 0 88.333 17 111 51s34 79.333 34 136v34z" />
    <glyph glyph-name="colon" unicode=":" horiz-adv-x="305" 
d="M152 443c22.667 0 42.334 -8.16699 59.001 -24.5s25 -36.166 25 -59.499s-8.33301 -43 -25 -59s-36.334 -24 -59.001 -24s-42.167 8 -58.5 24s-24.5 35.667 -24.5 59s8.16699 43.166 24.5 59.499s35.833 24.5 58.5 24.5zM152 153c22.667 0 42.334 -8.16699 59.001 -24.5
s25 -36.166 25 -59.499s-8.33301 -43 -25 -59s-36.334 -24 -59.001 -24s-42.167 8 -58.5 24s-24.5 35.667 -24.5 59s8.16699 43.166 24.5 59.499s35.833 24.5 58.5 24.5z" />
    <glyph glyph-name="semicolon" unicode=";" horiz-adv-x="305" 
d="M155 443c22.667 0 42.334 -8.16699 59.001 -24.5s25 -36.166 25 -59.499s-8.33301 -43 -25 -59s-36.334 -24 -59.001 -24s-42.167 8 -58.5 24s-24.5 35.667 -24.5 59s8.16699 43.166 24.5 59.499s35.833 24.5 58.5 24.5zM71 -82
c25.333 4.66699 46.499 13.8359 63.499 27.5029s28.5 33.167 34.5 58.5c-7.33301 -1.33301 -14.166 -3 -20.499 -5s-13.166 -3 -20.499 -3c-19.333 0 -35.833 6.16699 -49.5 18.5s-20.5 28.5 -20.5 48.5c0 25.333 7.16699 46.666 21.5 63.999s35.166 26 62.499 26
c33.333 0 59 -10.167 77 -30.5s27 -46.5 27 -78.5c0 -24.667 -4.83301 -47.334 -14.5 -68.001s-22.5 -38.834 -38.5 -54.501s-34.5 -28.667 -55.5 -39s-43.167 -16.833 -66.5 -19.5v55z" />
    <glyph glyph-name="less" unicode="&#x3c;" horiz-adv-x="600" 
d="M554 -27l-508 214v94l508 214v-115l-352 -146l352 -146v-115z" />
    <glyph glyph-name="equal" unicode="=" horiz-adv-x="600" 
d="M533 80h-467v111h467v-111zM533 277h-467v111h467v-111z" />
    <glyph glyph-name="greater" unicode="&#x3e;" horiz-adv-x="600" 
d="M398 234l-352 146v115l508 -214v-94l-508 -214v115z" />
    <glyph glyph-name="question" unicode="?" horiz-adv-x="556" 
d="M251 153c22.667 0 42.334 -8.16699 59.001 -24.5s25 -36.166 25 -59.499s-8.33301 -43 -25 -59s-36.334 -24 -59.001 -24s-42.167 8 -58.5 24s-24.5 35.667 -24.5 59s8.16699 43.166 24.5 59.499s35.833 24.5 58.5 24.5zM202 207
c0.666992 16 1.50195 29.501 2.50195 40.501s3.16699 21.167 6.5 30.5c6.66699 20 16.667 38.167 30 54.5l39.5 49c13 16.333 24.333 33.833 34 52.5s14.5 40.334 14.5 65.001c0 14.667 -3.16699 27.5 -9.5 38.5s-14.5 20.333 -24.5 28s-21.333 13.334 -34 17.001
s-25.667 5.5 -39 5.5c-27.333 0 -50.833 -6.83301 -70.5 -20.5s-32.167 -34.5 -37.5 -62.5c14.667 7.33301 29.334 11 44.001 11c21.333 0 38.333 -7.33301 51 -22s19 -32 19 -52c0 -26.667 -8.16699 -46.667 -24.5 -60s-37.166 -20 -62.499 -20
c-17.333 0 -32.5 3.33301 -45.5 10s-23.833 15.667 -32.5 27s-15 24.333 -19 39s-6 30 -6 46c0 31.333 6.5 59.333 19.5 84s30.167 45.5 51.5 62.5s45.666 30 72.999 39s55.666 13.5 84.999 13.5c24 0 50.167 -3.33301 78.5 -10s54.5 -17.334 78.5 -32.001
s44 -33.834 60 -57.501s24 -52.167 24 -85.5c0 -18.667 -2.83301 -35.834 -8.5 -51.501s-13 -30 -22 -43s-19.5 -25 -31.5 -36s-24 -20.833 -36 -29.5c-12.667 -9.33301 -25.334 -18 -38.001 -26s-24.167 -16.833 -34.5 -26.5s-18.833 -20.667 -25.5 -33
s-10.334 -27.5 -11.001 -45.5h-99z" />
    <glyph glyph-name="at" unicode="@" horiz-adv-x="800" 
d="M500 390c0 21.333 -2.50098 37.5 -7.50098 48.5s-15.167 16.5 -30.5 16.5c-11.333 0 -23.333 -4.33301 -36 -13s-24.667 -20.5 -36 -35.5s-20.666 -32.5 -27.999 -52.5s-11 -41.667 -11 -65c0 -26 4.33301 -46.667 13 -62s18 -23 28 -23c24.667 0 47 14.5 67 43.5
s33.667 76.5 41 142.5zM533.999 502l78 0.00195312l-59 -240c-1.33301 -3.33301 -2 -7 -2 -11v-12c0 -12 2.33301 -23.167 7 -33.5s12 -15.5 22 -15.5s20.5 6.16699 31.5 18.5s21 27.833 30 46.5s16.5 39.334 22.5 62.001s9 44.334 9 65.001c0 28 -6 55.333 -18 82
s-29 50.5 -51 71.5s-48.667 37.833 -80 50.5s-66.666 19 -105.999 19c-26 0 -53.333 -4.83301 -82 -14.5s-55.334 -25 -80.001 -46s-45 -48.333 -61 -82s-24 -74.5 -24 -122.5c0 -45.333 7.5 -85.5 22.5 -120.5s34.667 -64.5 59 -88.5s51.833 -42.167 82.5 -54.5
s61.667 -18.5 93 -18.5c22.667 0 43.167 1 61.5 3s35.5 5 51.5 9s31.167 9 45.5 15s28.833 13 43.5 21l10 -62c-31.333 -18 -64.333 -33.167 -99 -45.5s-72 -18.5 -112 -18.5c-66.667 0 -124 10.5 -172 31.5s-87.667 48.333 -119 82s-54.5 71.667 -69.5 114
s-22.5 85.166 -22.5 128.499c0 50 10 96.167 30 138.5s47 79 81 110s73.5 55.167 118.5 72.5s92.5 26 142.5 26c47.333 0 91.333 -7.5 132 -22.5s76 -36 106 -63s53.667 -58.833 71 -95.5s26 -76.334 26 -119.001c0 -26 -4.16699 -53.333 -12.5 -82
s-20.5 -54.834 -36.5 -78.501s-35.833 -43.334 -59.5 -59.001s-50.5 -23.5 -80.5 -23.5c-17.333 0 -31.833 3.16699 -43.5 9.5s-21.167 13.5 -28.5 21.5s-12.5 16.167 -15.5 24.5s-4.5 14.5 -4.5 18.5h-2c-1.33301 -4 -5.33301 -10 -12 -18s-15.334 -16.167 -26.001 -24.5
s-22.667 -15.5 -36 -21.5s-27.666 -9 -42.999 -9c-10 0 -20.667 2 -32 6s-22 10.833 -32 20.5s-18.167 22.5 -24.5 38.5s-9.5 35.667 -9.5 59c0 22.667 4 48.5 12 77.5s20.333 56.5 37 82.5s37.667 48 63 66s55 27 89 27c12 0 21.667 -1.5 29 -4.5s13.333 -6.66699 18 -11
s8.5 -9.5 11.5 -15.5s6.16699 -12 9.5 -18z" />
    <glyph glyph-name="A" unicode="A" horiz-adv-x="778" 
d="M271 299h145l-72 215h-2zM482 663l167.002 -499.999c4.66699 -15.333 9.33398 -27.833 14.001 -37.5s9.66699 -17.334 15 -23.001s11.166 -9.5 17.499 -11.5s13.833 -3 22.5 -3h34v-88h-365v88h30c15.333 0 28.333 1.16699 39 3.5s16 6.16602 16 11.499
s-0.333008 10.833 -1 16.5s-2 12.167 -4 19.5l-21 72h-204l-12 -40c-5.33301 -17.333 -9.16602 -30.5 -11.499 -39.5s-3.5 -17.167 -3.5 -24.5c0 -4 2 -7.16699 6 -9.5s9 -4.33301 15 -6s12.667 -2.66699 20 -3s14.333 -0.5 21 -0.5h29v-88h-294v88h34
c8.66699 0 16.167 1 22.5 3s12.166 5.83301 17.499 11.5s10.166 13.334 14.499 23.001s9.16602 22.167 14.499 37.5l167 500h200z" />
    <glyph glyph-name="B" unicode="B" horiz-adv-x="722" 
d="M297 388h55c16.667 0 32.167 1.5 46.5 4.5s26.666 8 36.999 15s18.333 16.667 24 29s8.5 27.5 8.5 45.5s-2.83301 33 -8.5 45s-13.667 21.5 -24 28.5s-22.666 12 -36.999 15s-29.833 4.5 -46.5 4.5h-55v-187zM297 88h67c18 0 34.667 1.5 50 4.5s28.666 8.5 39.999 16.5
s20.333 18.833 27 32.5s10 31.167 10 52.5s-3.33301 38.833 -10 52.5s-15.667 24.5 -27 32.5s-24.666 13.5 -39.999 16.5s-32 4.5 -50 4.5h-67v-212zM109 535c0 26.667 -12.998 40.001 -38.998 40.001h-57v88h431c36 0 67.333 -3.83301 94 -11.5s48.667 -18.334 66 -32.001
s30.333 -30 39 -49s13 -39.833 13 -62.5c0 -22 -3.66699 -41.667 -11 -59s-17.333 -32.5 -30 -45.5s-27.834 -23.833 -45.501 -32.5s-36.5 -15.334 -56.5 -20.001v-2c21.333 -6.66699 42.5 -13.667 63.5 -21s39.667 -17.166 56 -29.499s29.666 -28 39.999 -47
s15.5 -43.5 15.5 -73.5c0 -32 -5 -59.333 -15 -82s-25.833 -41 -47.5 -55s-49.5 -24.333 -83.5 -31s-75.333 -10 -124 -10h-404v88h56c26 0 39 13.333 39 40v407z" />
    <glyph glyph-name="C" unicode="C" horiz-adv-x="722" 
d="M586 672l90.0029 -0.00292969v-272h-93c0 26 -3.5 50.5 -10.5 73.5s-17.5 43.167 -31.5 60.5s-31.667 31 -53 41s-46 15 -74 15c-56 0 -98.5 -20.667 -127.5 -62s-43.5 -106.666 -43.5 -195.999c0 -39.333 2.83301 -75 8.5 -107s15.167 -59.333 28.5 -82
s31.5 -40 54.5 -52s52.167 -18 87.5 -18c26 0 49.167 5 69.5 15s37.166 23.333 50.499 40s23.5 35.834 30.5 57.501s10.5 44.167 10.5 67.5h93c-1.33301 -92 -28 -160.5 -80 -205.5s-124.333 -67.5 -217 -67.5c-52 0 -99.5 7.33301 -142.5 22s-80.167 36.667 -111.5 66
s-55.666 66 -72.999 110s-26 95.333 -26 154c0 52.667 8.66699 100.667 26 144s41.166 80.333 71.499 111s66.166 54.334 107.499 71.001s86.333 25 135 25c12.667 0 28.167 -1.5 46.5 -4.5s37 -7.33301 56 -13s37.167 -12.667 54.5 -21s31.666 -17.833 42.999 -28.5z" />
    <glyph glyph-name="D" unicode="D" horiz-adv-x="778" 
d="M298 88h46c32.667 0 61.167 3.5 85.5 10.5s44.333 19.5 60 37.5s27.334 42.833 35.001 74.5s11.5 72.167 11.5 121.5s-3.83301 89.833 -11.5 121.5s-19.334 56.5 -35.001 74.5s-35.667 30.333 -60 37s-52.833 10 -85.5 10h-46v-487zM110 535
c0 26.667 -13.001 40 -39.001 40h-60v88h363c56.667 0 108 -6.33301 154 -19s85.333 -32.667 118 -60s57.834 -62.333 75.501 -105s26.5 -93.667 26.5 -153c0 -57.333 -8.66699 -106.5 -26 -147.5s-42.5 -74.667 -75.5 -101s-73 -45.833 -120 -58.5s-99.833 -19 -158.5 -19
h-356v88h59c26 0 39 13.333 39 40v407z" />
    <glyph glyph-name="E" unicode="E" horiz-adv-x="722" 
d="M118 535c0 26.667 -12.999 40 -38.999 40h-62v88h665v-254h-93c0 36 -3.66699 64.833 -11 86.5s-18.5 38.5 -33.5 50.5s-34 19.833 -57 23.5s-50.5 5.5 -82.5 5.5h-99v-191h31c29.333 0 49.833 6.33301 61.5 19s17.5 34.667 17.5 66v22h83v-302h-83v24
c0 9.33301 -1 18.833 -3 28.5s-5 18.5 -9 26.5s-9.16699 14.667 -15.5 20s-13.833 8 -22.5 8h-60v-208h122c26 0 49.167 2 69.5 6s37.166 12.333 50.499 25s23.5 31.167 30.5 55.5s10.5 56.5 10.5 96.5h93v-271h-664v88h61c26 0 39 13.333 39 40v407z" />
    <glyph glyph-name="F" unicode="F" horiz-adv-x="722" 
d="M21 0v88h61c26 0 39 13.333 39 40v407c0 26.667 -13 40 -39 40h-62v88h665v-254h-93c0 36 -3.66699 64.833 -11 86.5s-18.5 38.5 -33.5 50.5s-34 19.833 -57 23.5s-50.5 5.5 -82.5 5.5h-99v-191h31c28.667 0 49 6 61 18s18 28.667 18 50v39h83v-302h-83v39
c0 21.333 -6 38 -18 50s-32.333 18 -61 18h-31v-168c0 -26.667 13 -40 39 -40h62v-88h-389z" />
    <glyph glyph-name="G" unicode="G" horiz-adv-x="778" 
d="M771 262l-45.999 -0.00292969c-26 0 -39 -13.333 -39 -40v-230h-87l-22 49c-29.333 -22.667 -61.333 -38.5 -96 -47.5s-68.334 -13.5 -101.001 -13.5c-52 0 -99.667 7.33301 -143 22s-80.666 36.334 -111.999 65.001s-55.666 64.334 -72.999 107.001s-26 92 -26 148
c0 56.667 8.5 107.334 25.5 152.001s41 82.5 72 113.5s68.167 54.667 111.5 71s91.666 24.5 144.999 24.5c29.333 0 60.333 -5.16699 93 -15.5s61.667 -27.5 87 -51.5l20 56h90v-272h-93c-0.666992 24.667 -4.83398 48.5 -12.501 71.5s-18.5 43.167 -32.5 60.5
s-30.833 31.333 -50.5 42s-42.167 16 -67.5 16c-58.667 0 -101.834 -21.333 -129.501 -64s-41.5 -107.667 -41.5 -195s13.833 -151.833 41.5 -193.5s70.834 -62.5 129.501 -62.5c9.33301 0 19 1 29 3s19 5.5 27 10.5s14.667 11.333 20 19s8 17.5 8 29.5v85
c0 26.667 -13 40 -39 40h-52v88h364v-88z" />
    <glyph glyph-name="H" unicode="H" horiz-adv-x="833" 
d="M526 388v157.001c0 20 -13 30 -39 30h-42v88h370v-88h-62c-26 0 -39 -13.333 -39 -40v-410c0 -24.667 13 -37 39 -37h61v-88h-368v88h41c12.667 0 22.334 2.16699 29.001 6.5s10 13.166 10 26.499v179h-220v-177c0 -23.333 13 -35 39 -35h41v-88h-368v88h61
c26 0 39 13.333 39 40v420c0 18 -13 27 -39 27h-62v88h370v-88h-42c-12.667 0 -22.334 -2.83301 -29.001 -8.5s-10 -17.167 -10 -34.5v-144h220z" />
    <glyph glyph-name="I" unicode="I" horiz-adv-x="444" 
d="M417 575h-61.999c-12.667 0 -22.334 -2.16699 -29.001 -6.5s-10 -15.5 -10 -33.5v-407c0 -26.667 13 -40 39 -40h61v-88h-388v88h61c26 0 39 13.333 39 40v421c0 17.333 -13 26 -39 26h-62v88h390v-88z" />
    <glyph glyph-name="J" unicode="J" 
d="M587 663l0.00195312 -88h-62c-26 0 -39 -8.33301 -39 -25v-342c0 -71.333 -18.167 -127.166 -54.5 -167.499s-95.833 -60.5 -178.5 -60.5c-34 0 -66.333 3.5 -97 10.5s-57.5 18 -80.5 33s-41.167 34.167 -54.5 57.5s-20 51 -20 83c0 16.667 2.16699 32.5 6.5 47.5
s11 28.167 20 39.5s20.167 20.5 33.5 27.5s29 10.5 47 10.5c27.333 0 50.5 -7.5 69.5 -22.5s28.5 -36.833 28.5 -65.5c0 -14 -2.33301 -26.167 -7 -36.5s-10.5 -18.833 -17.5 -25.5s-15 -11.667 -24 -15s-17.833 -5 -26.5 -5c-8 0 -15.5 0.833008 -22.5 2.5
s-13.167 4.5 -18.5 8.5h-2c8 -22.667 22 -37.834 42 -45.501s41 -11.5 63 -11.5c19.333 0 35.666 3.33301 48.999 10s24.166 16 32.499 28s14.333 26.167 18 42.5s5.5 34.5 5.5 54.5v339c0 18.667 -13 28 -39 28h-62v88h390z" />
    <glyph glyph-name="K" unicode="K" horiz-adv-x="833" 
d="M792 663l0.00292969 -88c-15.333 0 -28.666 -0.166992 -39.999 -0.5s-21.333 -1.33301 -30 -3s-16.334 -4.16699 -23.001 -7.5s-13.334 -8 -20.001 -14l-148 -130l168 -274c15.333 -25.333 28.833 -41.333 40.5 -48s23.5 -10 35.5 -10h35v-88h-372v88h36
c9.33301 0 18.166 0.666992 26.499 2s12.5 4.33301 12.5 9c0 5.33301 -1.83301 11.5 -5.5 18.5s-7.83398 14.167 -12.501 21.5l-99 161l-103 -87v-85c0 -26.667 13 -40 39 -40h51v-88h-368v88h51c26 0 39 13.333 39 40v407c0 26.667 -13 40 -39 40h-52v88h370v-88h-52
c-26 0 -39 -13.333 -39 -40v-188l122 106l41.5 35.5l36.5 31c10.667 9 19.167 16.833 25.5 23.5s9.5 11 9.5 13c0 9.33301 -5.16699 14.833 -15.5 16.5s-21.5 2.5 -33.5 2.5h-39v88h352z" />
    <glyph glyph-name="L" unicode="L" horiz-adv-x="667" 
d="M13 0v88.001h61c26 0 39 13.333 39 40v407c0 26.667 -13 40 -39 40h-62v88h390v-88h-62c-26 0 -39 -13.333 -39 -40v-447h109c30 0 54.167 4.5 72.5 13.5s32.333 21.833 42 38.5s16.167 36.167 19.5 58.5s5 47.166 5 74.499h93v-273h-629z" />
    <glyph glyph-name="M" unicode="M" horiz-adv-x="1000" 
d="M381 663l115 -407h2l118 407h356v-88h-55c-26 0 -39 -13.333 -39 -40v-407c0 -26.667 13 -40 39 -40h55v-88h-363v88h42c26 0 39 13.333 39 40v422h-2l-157 -550h-146l-156 560h-2v-432c0 -26.667 13 -40 39 -40h42v-88h-289v88h60c26 0 39 13.333 39 40v407
c0 26.667 -13 40 -39 40h-60v88h362z" />
    <glyph glyph-name="N" unicode="N" horiz-adv-x="833" 
d="M602 206h2v329c0 26.667 -13 40 -39 40h-61v88h308v-88h-60c-26 0 -39 -13.333 -39 -40v-535h-202l-278 493h-2v-365c0 -26.667 13 -40 39 -40h61v-88h-309v88h61c26 0 39 13.333 39 40v407c0 26.667 -13 40 -39 40h-62v88h322z" />
    <glyph glyph-name="O" unicode="O" horiz-adv-x="778" 
d="M389 590c-50 0 -86.833 -21.167 -110.5 -63.5s-35.5 -107.5 -35.5 -195.5s11.833 -153 35.5 -195s60.5 -63 110.5 -63s86.833 21 110.5 63s35.5 107 35.5 195s-11.833 153.167 -35.5 195.5s-60.5 63.5 -110.5 63.5zM389 683c54.667 0 104.5 -8.16699 149.5 -24.5
s83.167 -39.666 114.5 -69.999s55.666 -67.333 72.999 -111s26 -92.5 26 -146.5s-8.66699 -102.667 -26 -146s-41.666 -80.166 -72.999 -110.499s-69.5 -53.666 -114.5 -69.999s-94.833 -24.5 -149.5 -24.5c-55.333 0 -105.333 8.16699 -150 24.5
s-82.667 39.666 -114 69.999s-55.666 67.166 -72.999 110.499s-26 92 -26 146s8.66699 102.833 26 146.5s41.666 80.667 72.999 111s69.333 53.666 114 69.999s94.667 24.5 150 24.5z" />
    <glyph glyph-name="P" unicode="P" horiz-adv-x="722" 
d="M306 374h86.001c35.333 0 63.666 8.83301 84.999 26.5s32 42.167 32 73.5s-9.83301 56 -29.5 74s-43.5 27 -71.5 27h-102v-201zM118.001 535c0 26.667 -13.001 40.001 -39.001 40.001h-62v88h419c40.667 0 77.167 -3.33301 109.5 -10s59.833 -17.5 82.5 -32.5
s39.834 -34.5 51.501 -58.5s17.5 -53 17.5 -87c0 -68.667 -23.667 -117.334 -71 -146.001s-117.333 -43 -210 -43h-110v-158c0 -26.667 13 -40 39 -40h67v-88h-394v88h61c26 0 39 13.333 39 40v407z" />
    <glyph glyph-name="Q" unicode="Q" horiz-adv-x="833" 
d="M304 141c0 -13.333 3.33398 -24.333 10.001 -33s15.167 -15.5 25.5 -20.5s21.5 -8.66699 33.5 -11s23.333 -3.5 34 -3.5c20 0 37.5 2.83301 52.5 8.5s28.833 16.5 41.5 32.5c-20.667 23.333 -41.834 43.333 -63.501 60s-45.167 25 -70.5 25c-18 0 -33 -4.83301 -45 -14.5
s-18 -24.167 -18 -43.5zM398.001 313c26 0 51.167 -6.5 75.5 -19.5s47.833 -29.167 70.5 -48.5c4 24.667 6 53.334 6 86.001c0 88 -11.833 153.167 -35.5 195.5s-60.5 63.5 -110.5 63.5s-86.833 -21.167 -110.5 -63.5s-35.5 -107.5 -35.5 -195.5
c0 -48.667 3.66699 -90.334 11 -125.001h2c4.66699 33.333 17 59.5 37 78.5s50 28.5 90 28.5zM838.001 170c0 -48 -3.5 -86.3311 -10.5 -114.998s-16.667 -50.667 -29 -66s-26.666 -25.333 -42.999 -30s-33.833 -7 -52.5 -7c-22.667 0 -43.5 6.16699 -62.5 18.5
s-36.833 28.5 -53.5 48.5c-52 -26 -113 -39 -183 -39c-55.333 0 -105.333 8.16699 -150 24.5s-82.667 39.666 -114 69.999s-55.666 67.166 -72.999 110.499s-26 92 -26 146s8.66699 102.833 26 146.5s41.666 80.667 72.999 111s69.333 53.666 114 69.999
s94.667 24.5 150 24.5c54.667 0 104.5 -8.16699 149.5 -24.5s83.167 -39.666 114.5 -69.999s55.666 -67.333 72.999 -111s26 -92.5 26 -146.5c0 -88 -23 -162 -69 -222c8.66699 -8.66699 16.167 -14.5 22.5 -17.5s12.833 -4.5 19.5 -4.5c12 0 22.167 6.5 30.5 19.5
s12.5 34.167 12.5 63.5h55z" />
    <glyph glyph-name="R" unicode="R" horiz-adv-x="833" 
d="M306 388h95.999c18.667 0 34.834 1.16699 48.501 3.5s25.167 7 34.5 14s16.333 16.833 21 29.5s7 29 7 49c0 36.667 -11 61 -33 73s-56 18 -102 18h-72v-187zM117.999 535c0 26.667 -13.002 40 -39.002 40h-62v88h461c70.667 0 125.5 -13.5 164.5 -40.5
s58.5 -67.5 58.5 -121.5c0 -24 -3.83301 -44.667 -11.5 -62s-18.167 -32 -31.5 -44s-29.166 -21.667 -47.499 -29s-38.5 -12.333 -60.5 -15v-2c18.667 -5.33301 35.334 -11 50.001 -17s27 -13.833 37 -23.5s17.5 -21.334 22.5 -35.001s7.5 -30.834 7.5 -51.501v-105
c0 -9.33301 2.33301 -17.333 7 -24s13.667 -10 27 -10s22.166 6.5 26.499 19.5s6.5 27.167 6.5 42.5v40h67v-34c0 -24 -2.5 -46.5 -7.5 -67.5s-13.667 -39.167 -26 -54.5s-29 -27.333 -50 -36s-47.5 -13 -79.5 -13c-47.333 0 -85.666 12.667 -114.999 38s-44 67.333 -44 126
v82c0 14.667 -1 26.834 -3 36.501s-6.16699 17.334 -12.5 23.001s-15.5 9.5 -27.5 11.5s-28 3 -48 3h-82v-172c0 -26.667 13 -40 39 -40h62v-88h-389v88h61c26 0 39 13.333 39 40v407z" />
    <glyph glyph-name="S" unicode="S" horiz-adv-x="667" 
d="M606 426l-92 0.00488281c-4 26 -12.333 49.167 -25 69.5s-28 37.5 -46 51.5s-37.833 24.667 -59.5 32s-43.5 11 -65.5 11c-14.667 0 -28.667 -1.33301 -42 -4s-25.166 -7.33398 -35.499 -14.001s-18.666 -15.5 -24.999 -26.5s-9.5 -24.833 -9.5 -41.5
c0 -16 6.16699 -28.667 18.5 -38s28.666 -17.166 48.999 -23.499s43.5 -12 69.5 -17s52.5 -10.667 79.5 -17s53.5 -14.5 79.5 -24.5s49.167 -23 69.5 -39s36.666 -36.333 48.999 -61s18.5 -54.667 18.5 -90c0 -40 -7.83301 -73.667 -23.5 -101s-36.5 -49.333 -62.5 -66
s-55.5 -28.667 -88.5 -36s-66.833 -11 -101.5 -11c-38.667 0 -76.667 4.5 -114 13.5s-72 25.167 -104 48.5l-26 -53h-84v262h93c3.33301 -26 11 -50 23 -72s27.5 -40.833 46.5 -56.5s41.167 -27.834 66.5 -36.501s52.666 -13 81.999 -13c12.667 0 25.834 1.83301 39.501 5.5
s26.167 9 37.5 16s20.5 16 27.5 27s10.5 23.5 10.5 37.5c0 24 -10.667 41.667 -32 53s-48 20.666 -80 27.999s-66.833 14.666 -104.5 21.999s-72.5 18.666 -104.5 33.999s-58.667 36.666 -80 63.999s-32 65 -32 113c0 41.333 8.5 75.5 25.5 102.5s39.167 48.5 66.5 64.5
s58 27.167 92 33.5s68.333 9.5 103 9.5c34 0 67 -5.16699 99 -15.5s62.333 -24.5 91 -42.5l18 47h83v-246z" />
    <glyph glyph-name="T" unicode="T" horiz-adv-x="722" 
d="M29 409l0.00195312 254h664v-254h-93c0 25.333 -2.16699 48.333 -6.5 69s-12 38.167 -23 52.5s-25.833 25.333 -44.5 33s-42.334 11.5 -71.001 11.5v-447c0 -26.667 13 -40 39 -40h60v-88h-388v88h62c26 0 39 13.333 39 40v447c-28.667 0 -52.334 -3.83301 -71.001 -11.5
s-33.5 -18.667 -44.5 -33s-18.667 -31.833 -23 -52.5s-6.5 -43.667 -6.5 -69h-93z" />
    <glyph glyph-name="U" unicode="U" horiz-adv-x="778" 
d="M15 663h390v-88h-62c-26 0 -39 -13.333 -39 -40v-353c0 -32 9.16699 -58.167 27.5 -78.5s47.833 -30.5 88.5 -30.5c28.667 0 52 3.33301 70 10s31.833 17 41.5 31s16.167 32 19.5 54s5 48.667 5 80v287c0 26.667 -13 40 -39 40h-59v88h305v-88h-59
c-26 0 -39 -13.333 -39 -40v-321c0 -74 -21 -131.5 -63 -172.5s-109.333 -61.5 -202 -61.5c-44 0 -83.5 3.83301 -118.5 11.5s-64.833 20.167 -89.5 37.5s-43.5 40.333 -56.5 69s-19.5 64 -19.5 106v331c0 26.667 -13 40 -39 40h-62v88z" />
    <glyph glyph-name="V" unicode="V" horiz-adv-x="778" 
d="M400 663l0.000976562 -88.001h-64c-20.667 0 -31 -7 -31 -21c0 -8.66699 1.83301 -19 5.5 -31s7.16699 -22.667 10.5 -32l105 -328h2l106 328c3.33301 9.33301 6.83301 20 10.5 32s5.16699 22.333 4.5 31c0.666992 14 -9.33301 21 -30 21h-57v88h292v-88h-24
c-22 0 -38.167 -4.16699 -48.5 -12.5s-19.833 -24.833 -28.5 -49.5l-173 -513h-178l-174 513c-4 12.667 -8.33301 23 -13 31s-10.167 14.333 -16.5 19s-13.833 7.83398 -22.5 9.50098s-19.334 2.5 -32.001 2.5h-21v88h377z" />
    <glyph glyph-name="W" unicode="W" horiz-adv-x="1000" 
d="M19 663l302.997 -0.000976562v-88h-27c-10 0 -17.5 -1.66699 -22.5 -5s-7.5 -10 -7.5 -20c0 -7.33301 1.66699 -16.333 5 -27s6 -20 8 -28l91 -339h2l88 307l-18 59c-5.33301 16.667 -12.166 29.667 -20.499 39s-18.833 14 -31.5 14h-21v88h318v-88h-45
c-10 0 -17.5 -1.66699 -22.5 -5s-7.5 -10 -7.5 -20c0 -7.33301 1.66699 -16.333 5 -27s6 -20 8 -28l85 -328h2l83 328c2.66699 10 5.16699 20 7.5 30s3.5 19.333 3.5 28c0 7.33301 -3 12.833 -9 16.5s-11.667 5.5 -17 5.5h-45v88h246v-88h-12
c-15.333 0 -28.833 -4.66699 -40.5 -14s-21.5 -28.666 -29.5 -57.999l-130 -503h-185l-76 279h-2l-80 -279h-186l-133 471c-11.333 39.333 -22.666 66.5 -33.999 81.5s-24.666 22.5 -39.999 22.5h-13v88z" />
    <glyph glyph-name="X" unicode="X" horiz-adv-x="778" 
d="M19 0l0.00292969 88c14 0 26.333 0.333008 37 1s20.667 2.66699 30 6s18.666 8.83301 27.999 16.5s19.666 18.167 30.999 31.5l139 172l-163 226c-12 16.667 -25.833 26.5 -41.5 29.5s-31.167 4.5 -46.5 4.5v88h354v-88h-39c-5.33301 0 -10.333 -1 -15 -3
s-7 -5.66699 -7 -11c0 -7.33301 3.33301 -16 10 -26l72 -104l82 104c6.66699 7.33301 10 16 10 26c0 5.33301 -2.33301 9 -7 11s-9.66699 3 -15 3h-37v88h287v-88h-28c-13.333 0 -25.833 -2.66699 -37.5 -8s-24.5 -16.666 -38.5 -33.999l-138 -171l173 -237
c10.667 -14.667 22.5 -24.5 35.5 -29.5s25.167 -7.5 36.5 -7.5h27v-88h-371v88h48c7.33301 0 13.166 0.833008 17.499 2.5s6.5 5.16699 6.5 10.5c0 4 -1.16699 8.5 -3.5 13.5s-6.16602 11.167 -11.499 18.5l-83 115l-91 -115c-10 -12.667 -15 -23.334 -15 -32.001
c0 -5.33301 2.16699 -8.83301 6.5 -10.5s10.166 -2.5 17.499 -2.5h48v-88h-308z" />
    <glyph glyph-name="Y" unicode="Y" horiz-adv-x="778" 
d="M404 663l-0.00195312 -88h-41c-20.667 0 -31 -5.33301 -31 -16c0 -5.33301 1.83301 -11.333 5.5 -18s6.83398 -12 9.50098 -16l88 -137l89 137c2.66699 4 5.83398 9.33301 9.50098 16s5.5 12.667 5.5 18c0 10.667 -10.333 16 -31 16h-41v88h288v-88h-21
c-18 0 -32.333 -2 -43 -6s-19.334 -11 -26.001 -21l-178 -281v-139c0 -26.667 13 -40 39 -40h68v-88h-400v88h66c26 0 39 13.333 39 40v139l-158 252c-6.66699 10.667 -13 19.5 -19 26.5s-12.5 12.667 -19.5 17s-15.167 7.5 -24.5 9.5s-20.666 3 -33.999 3h-21v88h381z" />
    <glyph glyph-name="Z" unicode="Z" horiz-adv-x="667" 
d="M29 91l385 484.001h-107c-34 0 -62.333 -3 -85 -9s-40.5 -15.5 -53.5 -28.5s-22.167 -30 -27.5 -51s-8 -46.5 -8 -76.5h-93v253h591v-90l-385 -485h116c34.667 0 63.167 3.16699 85.5 9.5s40 16.833 53 31.5s22.167 33.667 27.5 57s8 51.666 8 84.999h93v-271h-600v91z
" />
    <glyph glyph-name="bracketleft" unicode="[" horiz-adv-x="389" 
d="M56 -174v837h298v-84h-125v-669h125v-84h-298z" />
    <glyph glyph-name="backslash" unicode="\" horiz-adv-x="278" 
d="M312 -20h-111l-235 703h111z" />
    <glyph glyph-name="bracketright" unicode="]" horiz-adv-x="389" 
d="M35 -90h125v669h-125v84h298v-837h-298v84z" />
    <glyph glyph-name="asciicircum" unicode="^" horiz-adv-x="600" 
d="M73 240l174 365h106l174 -365h-117l-110 248l-111 -248h-116z" />
    <glyph glyph-name="underscore" unicode="_" horiz-adv-x="500" 
d="M500 -75v-50h-500v50h500z" />
    <glyph glyph-name="grave" unicode="`" horiz-adv-x="333" 
d="M179 543l-118 69.001c-16 9.33301 -30.167 19.166 -42.5 29.499s-18.5 25.5 -18.5 45.5c-0 15.333 5.83301 28 17.5 38s25.167 15 40.5 15c14 0 26 -2.5 36 -7.5s19.167 -11.5 27.5 -19.5s16 -16.833 23 -26.5l21.5 -29.5l85 -114h-72z" />
    <glyph glyph-name="a" unicode="a" 
d="M324 231c-12 -7.33301 -25.499 -13.502 -40.499 -18.502s-29 -10.667 -42 -17s-24 -14.166 -33 -23.499s-13.5 -21.666 -13.5 -36.999c0 -20.667 5.66699 -35.167 17 -43.5s24.666 -12.5 39.999 -12.5c14 0 25.667 2.33301 35 7s16.833 11 22.5 19s9.5 17 11.5 27
s3 20.333 3 31v68zM597.001 170.998l0.00292969 -55c0 -25.333 -2.5 -46.333 -7.5 -63s-13.333 -30 -25 -40s-27 -17.167 -46 -21.5s-42.5 -6.5 -70.5 -6.5c-24 0 -46.5 5.83301 -67.5 17.5s-35.5 29.5 -43.5 53.5c-20.667 -24.667 -43.334 -42.667 -68.001 -54
s-53.334 -17 -86.001 -17c-47.333 0 -84.833 10.333 -112.5 31s-41.5 56.667 -41.5 108c0 31.333 7.33301 55.333 22 72s33 29 55 37s45.833 13.667 71.5 17s49.5 7.5 71.5 12.5s40.333 12.5 55 22.5s22 26 22 48c0 32.667 -9.33301 55.5 -28 68.5s-41.667 19.5 -69 19.5
c-13.333 0 -26.833 -1.33301 -40.5 -4s-26.5 -7.66699 -38.5 -15v-2c15.333 -2 29.666 -7.33301 42.999 -16s20 -21.667 20 -39c0 -22 -8.16699 -38 -24.5 -48s-34.5 -15 -54.5 -15c-23.333 0 -43.666 6.5 -60.999 19.5s-26 31.167 -26 54.5c0 28 8.33301 50.333 25 67
s37 29.5 61 38.5s49.333 14.833 76 17.5s50 4 70 4c34 0 64.167 -2.5 90.5 -7.5s48.5 -14 66.5 -27s31.5 -31 40.5 -54s13.5 -52.833 13.5 -89.5v-186c0 -14.667 1.16699 -25 3.5 -31s7.5 -9 15.5 -9c11.333 0 19.666 4.5 24.999 13.5s8 27.5 8 55.5v23h55z" />
    <glyph glyph-name="b" unicode="b" 
d="M307 397c-28 0 -48.167 -14.333 -60.5 -43s-18.5 -68.667 -18.5 -120s6.16699 -91.333 18.5 -120s32.5 -43 60.5 -43s48.167 14.333 60.5 43s18.5 68.667 18.5 120s-6.16699 91.333 -18.5 120s-32.5 43 -60.5 43zM62 540c0 14 -2.33203 24.6699 -6.99902 32.0029
s-14.334 11 -29.001 11h-46v80h248v-249c18.667 21.333 39.167 38.166 61.5 50.499s44.833 18.5 67.5 18.5c37.333 0 69.166 -6.83301 95.499 -20.5s47.666 -31.834 63.999 -54.501s28.166 -49.167 35.499 -79.5s11 -61.833 11 -94.5c0 -33.333 -3.66699 -65 -11 -95
s-19.166 -56.333 -35.499 -79s-37.666 -40.834 -63.999 -54.501s-58.166 -20.5 -95.499 -20.5c-32 0 -61.333 5.83301 -88 17.5s-48.667 31.5 -66 59.5l-29 -62h-112v540z" />
    <glyph glyph-name="c" unicode="c" horiz-adv-x="500" 
d="M477 162c-1.33301 -32 -7.50488 -59.1709 -18.5049 -81.5039s-25.833 -40.666 -44.5 -54.999s-40.334 -24.666 -65.001 -30.999s-51 -9.5 -79 -9.5c-37.333 0 -71.166 5.16699 -101.499 15.5s-56.333 25.833 -78 46.5s-38.5 46.5 -50.5 77.5s-18 67.5 -18 109.5
s6.83301 78.5 20.5 109.5s32 56.833 55 77.5s49.5 36.167 79.5 46.5s61 15.5 93 15.5c26.667 0 52.5 -3.33301 77.5 -10s47 -16.667 66 -30s34.333 -30.166 46 -50.499s17.5 -44.166 17.5 -71.499c0 -26.667 -7.83301 -49.667 -23.5 -69s-37.5 -29 -65.5 -29
c-24 0 -44.667 5.5 -62 16.5s-26 29.833 -26 56.5c0 23.333 7.16699 41.333 21.5 54s32.833 19 55.5 19c-9.33301 11.333 -21.166 19.833 -35.499 25.5s-29.166 8.5 -44.499 8.5c-12.667 0 -25 -3.33301 -37 -10s-22.5 -16.667 -31.5 -30s-16.167 -30.5 -21.5 -51.5
s-8 -45.833 -8 -74.5c0 -58 7.66699 -100.167 23 -126.5s40.333 -39.5 75 -39.5c12.667 0 23.834 2.5 33.501 7.5s17.834 11.833 24.501 20.5s11.834 18.5 15.501 29.5s6.16699 22.167 7.5 33.5h99z" />
    <glyph glyph-name="d" unicode="d" 
d="M276 78c28 0 48.167 14.333 60.5 43s18.5 67.667 18.5 117s-6.16699 88.166 -18.5 116.499s-32.5 42.5 -60.5 42.5s-48.167 -14.167 -60.5 -42.5s-18.5 -67.166 -18.5 -116.499s6.16699 -88.333 18.5 -117s32.5 -43 60.5 -43zM363 73l-2 -0.00292969
c-14.667 -30.667 -34.5 -53 -59.5 -67s-53.5 -21 -85.5 -21c-38 0 -69.5 7.16699 -94.5 21.5s-45 33.333 -60 57s-25.667 50.334 -32 80.001s-9.5 59.834 -9.5 90.501s3.16699 60.834 9.5 90.501s17 56.167 32 79.5s35 42.333 60 57s56.5 22 94.5 22
c30 0 57.667 -5.66699 83 -17s43.333 -28 54 -50l2 2v139c0 14 -2.33301 24.667 -7 32s-14.334 11 -29.001 11h-41v80h243v-557c0 -14 2.33301 -24.667 7 -32s14.334 -11 29.001 -11h39v-80h-233v73z" />
    <glyph glyph-name="e" unicode="e" horiz-adv-x="556" 
d="M354 291v26c0 25.333 -6.5 46 -19.5 62s-31.5 24 -55.5 24c-24.667 0 -43.5 -8 -56.5 -24s-19.5 -36.667 -19.5 -62v-26h151zM201 211c0 -17.333 1.33105 -34.502 3.99805 -51.502s7.5 -32 14.5 -45s17 -23.5 30 -31.5s30.167 -12 51.5 -12
c8.66699 0 18.334 1.66699 29.001 5s21 8.5 31 15.5s18.833 16 26.5 27s12.5 23.833 14.5 38.5h116c-4 -30 -13.667 -55.833 -29 -77.5s-34.333 -39.5 -57 -53.5s-47.5 -24.333 -74.5 -31s-53.833 -10 -80.5 -10c-85.333 0 -148.833 22.167 -190.5 66.5
s-62.5 105.166 -62.5 182.499c0 38.667 6.5 73.334 19.5 104.001s30.833 56.834 53.5 78.501s49.334 38.167 80.001 49.5s64 17 100 17c40.667 0 76.834 -6.83301 108.501 -20.5s58.167 -32.667 79.5 -57s37.666 -53.166 48.999 -86.499s17 -69.333 17 -108h-330z" />
    <glyph glyph-name="f" unicode="f" horiz-adv-x="389" 
d="M92 456v23.9971c0 71.333 15.333 123 46 155s78.334 48 143.001 48c17.333 0 35.666 -1.83301 54.999 -5.5s37.166 -9.66699 53.499 -18s29.833 -19.666 40.5 -33.999s16 -31.833 16 -52.5c0 -9.33301 -1.83301 -18.666 -5.5 -27.999s-8.5 -17.666 -14.5 -24.999
s-13.167 -13.166 -21.5 -17.499s-17.5 -6.5 -27.5 -6.5c-19.333 0 -35.833 6 -49.5 18s-20.5 28 -20.5 48c0 13.333 3.66699 24.333 11 33s17 13.667 29 15v2c-6 1.33301 -12 2.5 -18 3.5s-12.333 1.5 -19 1.5c-12 0 -21.333 -2.33301 -28 -7
s-11.834 -10.834 -15.501 -18.501s-6 -16.5 -7 -26.5s-1.5 -20 -1.5 -30v-79h84v-80h-84v-253c0 -14 2.33301 -24.667 7 -32s14.334 -11 29.001 -11h41v-80h-322v80h43c14.667 0 24.334 3.66699 29.001 11s7 18 7 32v253h-74v80h74z" />
    <glyph glyph-name="g" unicode="g" horiz-adv-x="667" 
d="M161 -104c0 -7.33301 4 -13.5 12 -18.5s18.667 -9.16699 32 -12.5s29.166 -5.83301 47.499 -7.5s38.166 -2.5 59.499 -2.5c20.667 0 40.334 0.833008 59.001 2.5s34.667 4.16699 48 7.5s24 7.5 32 12.5s12 11.167 12 18.5c0 8.66699 -4 15.667 -12 21
s-18.667 9.5 -32 12.5s-29.333 5 -48 6s-38.334 1.5 -59.001 1.5c-21.333 0 -41.166 -0.5 -59.499 -1.5s-34.166 -3 -47.499 -6s-24 -7.16699 -32 -12.5s-12 -12.333 -12 -21zM283 422c-22 0 -37.167 -11.5 -45.5 -34.5s-12.5 -53.167 -12.5 -90.5s4.16699 -67.333 12.5 -90
s23.5 -34 45.5 -34s37.167 11.333 45.5 34s12.5 52.667 12.5 90s-4.16699 67.5 -12.5 90.5s-23.5 34.5 -45.5 34.5zM406 63c21.333 0 42.5039 -1.6748 63.5039 -5.00781s39.667 -9.5 56 -18.5s29.666 -21.667 39.999 -38s15.5 -37.5 15.5 -63.5
c0 -31.333 -7.83301 -56.666 -23.5 -75.999s-37 -34.5 -64 -45.5s-58.167 -18.5 -93.5 -22.5s-72.333 -6 -111 -6c-36 0 -69.333 1.66699 -100 5s-57.334 8.83301 -80.001 16.5s-40.334 17.667 -53.001 30s-19 27.833 -19 46.5c0 12 2.5 22.167 7.5 30.5
s11.5 15.5 19.5 21.5s17 10.833 27 14.5s20 6.5 30 8.5v2c-19.333 6.66699 -36.833 17.834 -52.5 33.501s-23.5 34.5 -23.5 56.5c0 14.667 2 27.334 6 38.001s9.66699 19.834 17 27.501s16.333 14.334 27 20.001s22.667 11.167 36 16.5
c-23.333 16.667 -40.5 37.167 -51.5 61.5s-16.5 54.5 -16.5 90.5c0 30 6.66699 56 20 78s30.5 40.333 51.5 55s44.833 25.5 71.5 32.5s53 10.5 79 10.5c27.333 0 53.666 -4.16699 78.999 -12.5s49.666 -19.166 72.999 -32.499c15.333 13.333 32.166 24.166 50.499 32.499
s38.166 12.5 59.499 12.5c14 0 27.5 -2.16699 40.5 -6.5s24.5 -10.5 34.5 -18.5s18.167 -17.833 24.5 -29.5s9.5 -24.834 9.5 -39.501c0 -23.333 -6.5 -41.166 -19.5 -53.499s-31.167 -18.5 -54.5 -18.5c-16.667 0 -30 5.5 -40 16.5s-15 24.5 -15 40.5
c0 11.333 2.66699 20.833 8 28.5s12 14.834 20 21.501c-5.33301 0.666992 -11.333 1.83398 -18 3.50098s-13.5 2.33398 -20.5 2.00098s-14.5 -2.33301 -22.5 -6s-16.333 -10.5 -25 -20.5c9.33301 -15.333 17.5 -31.833 24.5 -49.5s10.5 -35.5 10.5 -53.5
c0 -32.667 -6.16699 -60.834 -18.5 -84.501s-29 -43.334 -50 -59.001s-45.5 -27.167 -73.5 -34.5s-57.333 -11 -88 -11c-17.333 0 -34.666 1.16699 -51.999 3.5s-34 6.83301 -50 13.5c-5.33301 -1.33301 -10 -4.66602 -14 -9.99902s-6 -11.666 -6 -18.999
c0 -6 1.83301 -11.333 5.5 -16s8.33398 -8.5 14.001 -11.5s11.334 -5.16699 17.001 -6.5s10.5 -2 14.5 -2h203z" />
    <glyph glyph-name="h" unicode="h" horiz-adv-x="667" 
d="M251 663l-0.00488281 -272.001h2c22 32 46 55.333 72 70s59.333 22 100 22c28.667 0 52.667 -4 72 -12s35 -19.333 47 -34s20.5 -32.5 25.5 -53.5s7.5 -44.5 7.5 -70.5v-190c0 -14 2.33301 -24.667 7 -32s14.334 -11 29.001 -11h38v-80h-297v80h21
c14.667 0 24.334 3.66699 29.001 11s7 18 7 32v172c0 14.667 -0.833008 28 -2.5 40s-5.16699 22.333 -10.5 31s-13.166 15.334 -23.499 20.001s-23.833 7 -40.5 7c-11.333 0 -21.666 -2.5 -30.999 -7.5s-17.333 -11.5 -24 -19.5s-11.667 -17 -15 -27s-5 -20.333 -5 -31v-185
c0 -14 2.33301 -24.667 7 -32s14.334 -11 29.001 -11h24v-80h-302v80h40c14.667 0 24.334 3.66699 29.001 11s7 18 7 32v417c0 14 -2.33301 24.667 -7 32s-14.334 11 -29.001 11h-41v80h235z" />
    <glyph glyph-name="i" unicode="i" horiz-adv-x="389" 
d="M191 683c24.667 0 45.334 -8.33301 62.001 -25s25 -37.334 25 -62.001s-8.33301 -45.334 -25 -62.001s-37.334 -25 -62.001 -25s-45.334 8.33301 -62.001 25s-25 37.334 -25 62.001s8.33301 45.334 25 62.001s37.334 25 62.001 25zM278 123
c0 -14 2.33203 -24.667 6.99902 -32s14.334 -11 29.001 -11h41v-80h-322v80h43c14.667 0 24.334 3.66699 29.001 11s7 18 7 32v222c0 14 -2.33301 24.667 -7 32s-14.334 11 -29.001 11h-46v80h248v-345z" />
    <glyph glyph-name="j" unicode="j" horiz-adv-x="389" 
d="M213 683c24.667 0 45.334 -8.33301 62.001 -25s25 -37.334 25 -62.001s-8.33301 -45.334 -25 -62.001s-37.334 -25 -62.001 -25s-45.334 8.33301 -62.001 25s-25 37.334 -25 62.001s8.33301 45.334 25 62.001s37.334 25 62.001 25zM134 345
c0 14 -2.33203 24.668 -6.99902 32.001s-14.334 11 -29.001 11h-46v80h248v-507c0 -31.333 -4.5 -58 -13.5 -80s-22 -39.833 -39 -53.5s-37.5 -23.667 -61.5 -30s-51 -9.5 -81 -9.5c-16.667 0 -34.167 1.66699 -52.5 5s-35.166 9 -50.499 17s-28 18.667 -38 32
s-15 30.333 -15 51c0 22 6.33301 39.667 19 53s30 20 52 20c19.333 0 35.666 -4.66699 48.999 -14s20 -24.333 20 -45c0 -12 -2.66699 -22 -8 -30s-13.333 -14.667 -24 -20c5.33301 -2.66699 12 -4.83398 20 -6.50098s16.667 -2.5 26 -2.5c11.333 0 19.333 5 24 15
s7 22 7 36v446z" />
    <glyph glyph-name="k" unicode="k" horiz-adv-x="667" 
d="M90 540c0 14 -2.33398 24.667 -7.00098 32s-14.334 11 -29.001 11h-36v80h238v-411l125 100c6.66699 5.33301 11 10.333 13 15s3 8 3 10c0 4 -2.16699 6.83301 -6.5 8.5s-9.5 2.5 -15.5 2.5h-50v80h292v-80h-26c-13.333 0 -23.5 -1.16699 -30.5 -3.5
s-14.167 -6.5 -21.5 -12.5l-85 -68l123 -198c6 -9.33301 12.5 -16 19.5 -20s16.167 -6 27.5 -6h25v-80h-303v80h28c8 0 13.333 1.16699 16 3.5s4 5.5 4 9.5c0 6 -2.66699 13.333 -8 22l-54 90l-76 -64v-18c0 -17.333 2.33301 -28.833 7 -34.5s14.334 -8.5 29.001 -8.5h16
v-80h-291v80h37c14.667 0 24.334 3.66699 29.001 11s7 18 7 32v417z" />
    <glyph glyph-name="l" unicode="l" horiz-adv-x="389" 
d="M278 123c0 -14 2.33203 -24.667 6.99902 -32s14.334 -11 29.001 -11h41v-80h-322v80h43c14.667 0 24.334 3.66699 29.001 11s7 18 7 32v417c0 14 -2.33301 24.667 -7 32s-14.334 11 -29.001 11h-46v80h248v-540z" />
    <glyph glyph-name="m" unicode="m" horiz-adv-x="944" 
d="M249 468l-0.00585938 -80.002h2c18.667 31.333 41.334 55 68.001 71s58.667 24 96 24c32 0 59.833 -7.33301 83.5 -22s41.167 -37 52.5 -67c17.333 28 39.666 49.833 66.999 65.5s57.666 23.5 90.999 23.5c52 0 90.333 -12.667 115 -38s37 -61.666 37 -108.999v-213
c0 -14 2.33301 -24.667 7 -32s14.334 -11 29.001 -11h34v-80h-287v80h15c14.667 0 24.334 3.66699 29.001 11s7 18 7 32v184c0 8.66699 -1.16699 18 -3.5 28s-6 19.333 -11 28s-11.5 15.834 -19.5 21.501s-17.667 8.5 -29 8.5c-27.333 0 -46.166 -7 -56.499 -21
s-15.5 -32 -15.5 -54v-215c0 -9.33301 2.16699 -15.5 6.5 -18.5s14.166 -4.5 29.499 -4.5h13v-80h-265v80h14c14.667 0 24.334 3.33301 29.001 10s7 17.667 7 33v184c0 12.667 -0.666992 24.167 -2 34.5s-4.16602 19.333 -8.49902 27s-10.666 13.667 -18.999 18
s-19.5 6.5 -33.5 6.5c-13.333 0 -24.666 -2.5 -33.999 -7.5s-16.833 -11.667 -22.5 -20s-9.66699 -17.833 -12 -28.5s-3.5 -22 -3.5 -34v-200c0 -7.33301 2.33301 -13 7 -17s14.334 -6 29.001 -6h16v-80h-297v80h43c14.667 0 24.334 3.66699 29.001 11s7 18 7 32v222
c0 14 -2.33301 24.667 -7 32s-14.334 11 -29.001 11h-40v80h232z" />
    <glyph glyph-name="n" unicode="n" horiz-adv-x="667" 
d="M251 468l-0.00488281 -77.001h2c22 32 46 55.333 72 70s59.333 22 100 22c28.667 0 52.667 -4 72 -12s35 -19.333 47 -34s20.5 -32.5 25.5 -53.5s7.5 -44.5 7.5 -70.5v-190c0 -14 2.33301 -24.667 7 -32s14.334 -11 29.001 -11h38v-80h-297v80h21
c14.667 0 24.334 3.66699 29.001 11s7 18 7 32v172c0 14.667 -0.833008 28 -2.5 40s-5.16699 22.333 -10.5 31s-13.166 15.334 -23.499 20.001s-23.833 7 -40.5 7c-11.333 0 -21.666 -2.5 -30.999 -7.5s-17.333 -11.5 -24 -19.5s-11.667 -17 -15 -27s-5 -20.333 -5 -31v-185
c0 -14 2.33301 -24.667 7 -32s14.334 -11 29.001 -11h24v-80h-302v80h40c14.667 0 24.334 3.66699 29.001 11s7 18 7 32v222c0 14 -2.33301 24.667 -7 32s-14.334 11 -29.001 11h-41v80h235z" />
    <glyph glyph-name="o" unicode="o" horiz-adv-x="556" 
d="M278 403c-30 0 -51 -13.333 -63 -40s-18 -69.667 -18 -129s6 -102.333 18 -129s33 -40 63 -40s51 13.333 63 40s18 69.667 18 129s-6 102.333 -18 129s-33 40 -63 40zM278 483c37.333 0 71.666 -5.5 102.999 -16.5s58.5 -27 81.5 -48s41 -47 54 -78
s19.5 -66.5 19.5 -106.5s-6.5 -75.5 -19.5 -106.5s-31 -57 -54 -78s-50.167 -37 -81.5 -48s-65.666 -16.5 -102.999 -16.5s-71.666 5.5 -102.999 16.5s-58.5 27 -81.5 48s-41 47 -54 78s-19.5 66.5 -19.5 106.5s6.5 75.5 19.5 106.5s31 57 54 78s50.167 37 81.5 48
s65.666 16.5 102.999 16.5z" />
    <glyph glyph-name="p" unicode="p" 
d="M311 390c-28 0 -48.167 -14.333 -60.5 -43s-18.5 -67.667 -18.5 -117s6.16699 -88.166 18.5 -116.499s32.5 -42.5 60.5 -42.5s48.167 14.167 60.5 42.5s18.5 67.166 18.5 116.499s-6.16699 88.333 -18.5 117s-32.5 43 -60.5 43zM224 395l1.99902 0.00292969
c14.667 30.667 34.5 53 59.5 67s53.5 21 85.5 21c38 0 69.5 -7.33301 94.5 -22s45 -33.667 60 -57s25.667 -49.833 32 -79.5s9.5 -59.834 9.5 -90.501s-3.16699 -60.834 -9.5 -90.501s-17 -56.334 -32 -80.001s-35 -42.667 -60 -57s-56.5 -21.5 -94.5 -21.5
c-30 0 -57.667 5.66699 -83 17s-43.333 28 -54 50l-2 -2v-139c0 -14 2.33301 -24.667 7 -32s14.334 -11 29.001 -11h41v-80h-317v80h38c14.667 0 24.334 3.66699 29.001 11s7 18 7 32v434c0 14 -2.33301 24.667 -7 32s-14.334 11 -29.001 11h-39v80h233v-73z" />
    <glyph glyph-name="q" unicode="q" 
d="M280 390c-28 0 -48.167 -14.333 -60.5 -43s-18.5 -67.667 -18.5 -117s6.16699 -88.166 18.5 -116.499s32.5 -42.5 60.5 -42.5s48.167 14.167 60.5 42.5s18.5 67.166 18.5 116.499s-6.16699 88.333 -18.5 117s-32.5 43 -60.5 43zM367 468l232.999 -0.00292969v-80h-39
c-14.667 0 -24.334 -3.66699 -29.001 -11s-7 -18 -7 -32v-434c0 -14 2.33301 -24.667 7 -32s14.334 -11 29.001 -11h38v-80h-317v80h41c14.667 0 24.334 3.66699 29.001 11s7 18 7 32v139l-2 2c-10.667 -22 -28.667 -38.667 -54 -50s-53 -17 -83 -17
c-38 0 -69.5 7.16699 -94.5 21.5s-45 33.333 -60 57s-25.667 50.334 -32 80.001s-9.5 59.834 -9.5 90.501s3.16699 60.834 9.5 90.501s17 56.167 32 79.5s35 42.333 60 57s56.5 22 94.5 22c32 0 60.5 -7 85.5 -21s44.833 -36.333 59.5 -67h2v73z" />
    <glyph glyph-name="r" unicode="r" horiz-adv-x="500" 
d="M16 468l235.999 0.00195312v-80h2c4.66699 12 10.667 23.667 18 35s15.833 21.5 25.5 30.5s20.667 16.167 33 21.5s25.833 8 40.5 8c15.333 0 30 -2.83301 44 -8.5s26.167 -13.5 36.5 -23.5s18.5 -22 24.5 -36s9 -29.333 9 -46c0 -10.667 -2 -21.334 -6 -32.001
s-9.5 -20.167 -16.5 -28.5s-15.333 -15.166 -25 -20.499s-20.5 -8 -32.5 -8c-21.333 0 -40 5.16699 -56 15.5s-24 27.166 -24 50.499c0 34.667 17.333 55 52 61c-5.33301 5.33301 -10.333 8.5 -15 9.5s-10.334 1.5 -17.001 1.5c-13.333 0 -25.166 -3.66699 -35.499 -11
s-19.333 -16.833 -27 -28.5s-13.5 -24.334 -17.5 -38.001s-6 -26.5 -6 -38.5v-179c0 -14 2.33301 -24.667 7 -32s14.334 -11 29.001 -11h41v-80h-320v80h41c14.667 0 24.334 3.66699 29.001 11s7 18 7 32v222c0 14 -2.33301 24.667 -7 32s-14.334 11 -29.001 11h-41v80z" />
    <glyph glyph-name="s" unicode="s" horiz-adv-x="556" 
d="M123 168c2 -14.667 7.49902 -28.335 16.499 -41.002s20 -23.5 33 -32.5s27.167 -16.167 42.5 -21.5s30 -8 44 -8c7.33301 0 15.833 0.166992 25.5 0.5s19 2 28 5s16.5 7.33301 22.5 13s9 14.167 9 25.5c0 14 -7.66699 24.833 -23 32.5s-34.5 14.334 -57.5 20.001
l-74.5 18c-26.667 6.33301 -51.5 15.166 -74.5 26.499s-42.167 26.333 -57.5 45s-23 43.334 -23 74.001c0 30 7 55.167 21 75.5s31.833 36.5 53.5 48.5s45.667 20.667 72 26s52.166 8 77.499 8c26.667 0 53.334 -3.66699 80.001 -11s51.667 -17.666 75 -30.999l12 30h69
v-150h-76c-5.33301 14.667 -12.333 26.834 -21 36.501s-18.667 18.167 -30 25.5c-22 13.333 -48.333 20 -79 20c-6 0 -13.333 -0.5 -22 -1.5s-17 -2.83301 -25 -5.5s-15 -6.5 -21 -11.5s-9 -11.833 -9 -20.5c0 -14.667 7.66699 -25.5 23 -32.5s34.5 -13.167 57.5 -18.5
l74.5 -16.5c26.667 -5.66699 51.5 -14 74.5 -25s42.167 -26.167 57.5 -45.5s23 -45.333 23 -78c0 -30 -6.33301 -55.5 -19 -76.5s-29.167 -37.833 -49.5 -50.5s-43.166 -21.834 -68.499 -27.501s-51 -8.5 -77 -8.5c-31.333 0 -62 3 -92 9s-58 18 -84 36l-15 -34h-75v172h82z
" />
    <glyph glyph-name="t" unicode="t" horiz-adv-x="444" 
d="M252 654l0.000976562 -186h123v-80h-123v-275c0 -10.667 2.83301 -19.667 8.5 -27s14.167 -11 25.5 -11c19.333 0 32.166 6.33301 38.499 19s9.5 30.667 9.5 54v78h80v-89c0 -49.333 -13 -87 -39 -113s-69 -39 -129 -39c-52 0 -91.667 12.5 -119 37.5
s-41 63.167 -41 114.5v251h-67v80c24.667 0 45.167 5.83301 61.5 17.5s29.5 26.5 39.5 44.5s17.5 38 22.5 60s8.5 43.333 10.5 64h99z" />
    <glyph glyph-name="u" unicode="u" horiz-adv-x="667" 
d="M411 0l0.00390625 77h-2c-22 -32 -46 -55.333 -72 -70s-59.333 -22 -100 -22c-28.667 0 -52.667 3.16699 -72 9.5s-35 15.833 -47 28.5s-20.5 28.834 -25.5 48.501s-7.5 43.167 -7.5 70.5v203c0 14 -2.33301 24.667 -7 32s-14.334 11 -29.001 11h-33v80h235v-295
c0 -18 0.333008 -33.167 1 -45.5s3.5 -22.333 8.5 -30s12.667 -13.334 23 -17.001s25.166 -5.5 44.499 -5.5c11.333 0 21.666 2.5 30.999 7.5s17.166 11.5 23.499 19.5s11.333 17 15 27s5.5 20.333 5.5 31v185c0 14 -2.33301 24.667 -7 32s-14.334 11 -29.001 11h-44v80h246
v-345c0 -14 2.33301 -24.667 7 -32s14.334 -11 29.001 -11h36v-80h-230z" />
    <glyph glyph-name="v" unicode="v" 
d="M21 468l299.997 0.000976562v-80h-36c-8.66699 0 -16 -1 -22 -3s-9 -6 -9 -12s0.833008 -11.5 2.5 -16.5l4.5 -13.5l75 -238h2l79 235l3.5 14.5c1 4.33301 1.5 9.16602 1.5 14.499c0 8 -3 13.167 -9 15.5s-13.333 3.5 -22 3.5h-28v80h227v-80h-25
c-12 0 -22.167 -4.33301 -30.5 -13s-15.166 -20.334 -20.499 -35.001l-120 -340h-185l-114 340c-5.33301 14.667 -12.166 26.334 -20.499 35.001s-20.166 13 -35.499 13h-18v80z" />
    <glyph glyph-name="w" unicode="w" horiz-adv-x="889" 
d="M18 468l285 0.000976562v-80h-18c-10 0 -18.333 -1.16699 -25 -3.5s-10 -7.16602 -10 -14.499c0 -2 0.166992 -4 0.5 -6s0.833008 -4.33301 1.5 -7l66 -245h2l73 245c1.33301 3.33301 2 7.66602 2 12.999c0 7.33301 -3.33301 12.166 -10 14.499s-15 3.5 -25 3.5h-18v80
h276v-80h-23c-10 0 -18.333 -1.16699 -25 -3.5s-10 -7.16602 -10 -14.499c0 -2 0.166992 -4 0.5 -6s0.833008 -4.33301 1.5 -7l72 -251h2l65 237c1.33301 5.33301 2.33301 10.333 3 15s1 8.66699 1 12c0 7.33301 -3.33301 12.166 -10 14.499s-15 3.5 -25 3.5h-14v80h214v-80
h-32c-10.667 0 -20.167 -4 -28.5 -12s-16.166 -24.667 -23.499 -50l-98 -326h-178l-67 228h-2l-70 -228h-178l-92 327c-7.33301 26.667 -16.833 43.5 -28.5 50.5s-22.834 10.5 -33.501 10.5h-21v80z" />
    <glyph glyph-name="x" unicode="x" horiz-adv-x="667" 
d="M361 388h-21.002c-6 0 -11.667 -0.5 -17 -1.5s-8 -3.83301 -8 -8.5c0 -2.66699 1.16699 -5.83398 3.5 -9.50098s4.83301 -7.16699 7.5 -10.5l50 -55l51 45c11.333 10 17 19.333 17 28c0 6 -3.33301 9.5 -10 10.5s-13.667 1.5 -21 1.5h-10v80h241v-80h-22
c-11.333 0 -22.666 -3 -33.999 -9s-23.666 -14.667 -36.999 -26l-122 -104l119 -133c10 -11.333 20.167 -20.166 30.5 -26.499s20.833 -9.5 31.5 -9.5h41v-80h-341v80h21c7.33301 0 13.833 0.666992 19.5 2s8.5 5.33301 8.5 12c0 2.66699 -1.33301 5.83398 -4 9.50098
s-5.66699 7.16699 -9 10.5l-52 54l-66 -66c-5.33301 -6.66699 -8 -11.334 -8 -14.001c0 -3.33301 2.5 -5.5 7.5 -6.5s10.833 -1.5 17.5 -1.5h24v-80h-246v80h27c21.333 0 44.333 11.333 69 34l123 114l-122 127c-9.33301 10 -18.833 18 -28.5 24s-21.167 9 -34.5 9h-20v80
h324v-80z" />
    <glyph glyph-name="y" unicode="y" 
d="M587 468l-0.000976562 -80h-19c-19.333 0 -32.666 -5 -39.999 -15s-13.666 -21.667 -18.999 -35l-133 -324c-13.333 -31.333 -26.666 -60.833 -39.999 -88.5s-28.333 -51.667 -45 -72s-35.167 -36.333 -55.5 -48s-43.833 -17.5 -70.5 -17.5c-21.333 0 -41 2.33301 -59 7
s-33.833 12.334 -47.5 23.001s-24.334 24 -32.001 40s-11.5 35.667 -11.5 59c0 26.667 7.83301 47.5 23.5 62.5s36.5 22.5 62.5 22.5c19.333 0 36.666 -5.66699 51.999 -17s23 -27.666 23 -48.999c0 -42.667 -17.667 -64 -53 -64c-4.66699 0 -9.5 0.333008 -14.5 1
s-9.5 1.66699 -13.5 3c0.666992 -6 3.16699 -10.667 7.5 -14s9.33301 -6 15 -8s11.667 -3.16699 18 -3.5s11.833 -0.5 16.5 -0.5c15.333 0 28.5 3.66699 39.5 11s20.667 16.666 29 27.999s15.666 24.166 21.999 38.499s12.166 28.5 17.499 42.5l-158 356
c-7.33301 18.667 -14.333 33.667 -21 45s-16.667 17 -30 17h-32v80h303v-80h-33c-11.333 0 -19.666 -1.16699 -24.999 -3.5s-8 -7.5 -8 -15.5c0 -5.33301 2 -12.333 6 -21l82 -185h2l71 182c4 10 6 19 6 27c0 4.66699 -2.16699 8.5 -6.5 11.5s-12.166 4.5 -23.499 4.5h-29
v80h223z" />
    <glyph glyph-name="z" unicode="z" horiz-adv-x="500" 
d="M214 80l90 0.000976562c28 0 49.333 6.66699 64 20s22 34.666 22 63.999v53h80v-217h-442v97l252 291h-93c-26.667 0 -44.667 -5.66699 -54 -17s-14 -29.333 -14 -54v-45h-80v196h433v-88z" />
    <glyph glyph-name="braceleft" unicode="{" horiz-adv-x="389" 
d="M79 130c0 32.667 -5.5 57.666 -16.5 74.999s-30.5 31 -58.5 41c28 9.33301 47.5 22.666 58.5 39.999s16.5 42.333 16.5 75v180c0 30 5.16699 54.333 15.5 73s26.166 33.167 47.499 43.5s48.666 17.166 81.999 20.499s73 5 119 5v-50
c-33.333 -3.33301 -56.833 -14.666 -70.5 -33.999s-20.5 -46.666 -20.5 -81.999v-141c0 -18 -1.16699 -34 -3.5 -48s-7 -26.167 -14 -36.5s-16.5 -19.333 -28.5 -27s-28 -13.834 -48 -18.501v-2c20 -4.66699 36 -10.667 48 -18s21.5 -16.166 28.5 -26.499
s11.667 -22.5 14 -36.5s3.5 -30 3.5 -48v-141c0 -35.333 6.83301 -62.666 20.5 -81.999s37.167 -30.666 70.5 -33.999v-50c-46 0 -85.667 1.66699 -119 5s-60.666 10.166 -81.999 20.499s-37.166 24.833 -47.499 43.5s-15.5 43 -15.5 73v180z" />
    <glyph glyph-name="bar" unicode="|" horiz-adv-x="222" 
d="M166 750v-1000h-111v1000h111z" />
    <glyph glyph-name="braceright" unicode="}" horiz-adv-x="389" 
d="M310 361c0 -32.667 5.5 -57.666 16.5 -74.999s30.5 -31 58.5 -41c-28 -9.33301 -47.5 -22.666 -58.5 -39.999s-16.5 -42.333 -16.5 -75v-180c0 -30 -5.16699 -54.333 -15.5 -73s-26.166 -33.167 -47.499 -43.5s-48.666 -17.166 -81.999 -20.499s-73 -5 -119 -5v50
c33.333 3.33301 56.833 14.666 70.5 33.999s20.5 46.666 20.5 81.999v141c0 18 1.16699 34 3.5 48s7 26.167 14 36.5s16.5 19.333 28.5 27s28 13.834 48 18.501v2c-20 4.66699 -36 10.667 -48 18s-21.5 16.166 -28.5 26.499s-11.667 22.5 -14 36.5s-3.5 30 -3.5 48v141
c0 35.333 -6.83301 62.666 -20.5 81.999s-37.167 30.666 -70.5 33.999v50c46 0 85.667 -1.66699 119 -5s60.666 -10.166 81.999 -20.499s37.166 -24.833 47.499 -43.5s15.5 -43 15.5 -73v-180z" />
    <glyph glyph-name="asciitilde" unicode="~" horiz-adv-x="600" 
d="M531 231c-7.33301 -10.667 -15.1709 -21.166 -23.5039 -31.499s-17.333 -19.5 -27 -27.5s-20.667 -14.5 -33 -19.5s-26.166 -7.5 -41.499 -7.5c-20 0 -38.167 3.5 -54.5 10.5s-32.833 14.833 -49.5 23.5s-33.834 16.5 -51.501 23.5s-38.167 10.5 -61.5 10.5
c-11.333 0 -21.166 -2.16699 -29.499 -6.5s-16 -9.83301 -23 -16.5s-13 -14.334 -18 -23.001s-9.5 -17.334 -13.5 -26.001l-36 96c5.33301 10.667 11.833 21.167 19.5 31.5s16.5 19.5 26.5 27.5s21.5 14.5 34.5 19.5s27.833 7.5 44.5 7.5c18.667 0 37.834 -3.5 57.501 -10.5
s38.834 -14.833 57.501 -23.5l54 -23.5c16.667 -7 31.334 -10.5 44.001 -10.5c10 0 19.167 2.16699 27.5 6.5s16 9.83301 23 16.5s13.5 14.334 19.5 23.001l18 26z" />
    <glyph glyph-name="exclamdown" unicode="&#xa1;" horiz-adv-x="333" 
d="M163 318c-22.667 0 -42.334 8.16699 -59.001 24.5s-25 36.166 -25 59.499s8.33301 43 25 59s36.334 24 59.001 24s42.167 -8 58.5 -24s24.5 -35.667 24.5 -59s-8.16699 -43.166 -24.5 -59.499s-35.833 -24.5 -58.5 -24.5zM215 266
c0 -29.333 2.33203 -60.666 6.99902 -93.999s9.83398 -65.666 15.501 -96.999l15.5 -88c4.66699 -27.333 7 -49.666 7 -66.999c0 -16 -1.16699 -31.833 -3.5 -47.5s-7 -29.667 -14 -42s-16.833 -22.5 -29.5 -30.5s-29 -12 -49 -12c-19.333 0 -34.833 4 -46.5 12
s-20.834 18.167 -27.501 30.5s-11.167 26.333 -13.5 42s-3.5 31.5 -3.5 47.5c0 17.333 2.33301 39.666 7 66.999l15.5 88c5.66699 31.333 10.834 63.666 15.501 96.999s7 64.666 7 93.999h97z" />
    <glyph glyph-name="cent" unicode="&#xa2;" 
d="M346 300c1.33301 22 9.00195 39 23.002 51s32 18 54 18c-9.33301 11.333 -21 19.833 -35 25.5s-28 8.5 -42 8.5c-20.667 0 -37.5 -5 -50.5 -15s-23.333 -22.667 -31 -38s-12.834 -32 -15.501 -50s-4 -35.333 -4 -52c0 -18.667 0.666992 -38.5 2 -59.5
s5.66602 -40.167 12.999 -57.5zM304.002 84c5.33301 -5.33301 11.3301 -8.83594 17.9971 -10.5029s13.667 -2.5 21 -2.5c12.667 0 23.834 2.5 33.501 7.5s17.834 11.833 24.501 20.5s11.834 18.5 15.501 29.5s6.16699 22.167 7.5 33.5h99
c-1.33301 -32 -7.5 -59.167 -18.5 -81.5s-26 -40.666 -45 -54.999s-41.167 -24.666 -66.5 -30.999s-52.666 -9.5 -81.999 -9.5c-18 0 -36.333 1.66699 -55 5l-56 -109h-68l65 126c-40 16.667 -71.5 42.667 -94.5 78s-34.5 79.333 -34.5 132c0 40.667 5.33301 77.5 16 110.5
s26.834 61 48.501 84s48.334 40.667 80.001 53s68.5 18.5 110.5 18.5c18.667 0 37 -1.83301 55 -5.5s35 -9.16699 51 -16.5l46 90h68l-63 -124c13.333 -13.333 23.833 -28.666 31.5 -45.999s11.5 -37.333 11.5 -60c0 -18.667 -2.5 -34.334 -7.5 -47.001
s-11.833 -22.667 -20.5 -30s-18.334 -12.666 -29.001 -15.999s-21.334 -5 -32.001 -5c-22.667 0 -40.334 4 -53.001 12z" />
    <glyph glyph-name="sterling" unicode="&#xa3;" 
d="M25 89c32 15.333 56.501 34.8301 73.501 58.4971s25.5 50.5 25.5 80.5v34h-94v74h73c-8.66699 15.333 -14.834 31.333 -18.501 48s-5.5 33.334 -5.5 50.001c0 34 7.16699 62.667 21.5 86s33 42.5 56 57.5s48.833 25.833 77.5 32.5s57.667 10 87 10
c24 0 50.5 -2.33301 79.5 -7s56 -12.834 81 -24.501s46 -27.5 63 -47.5s25.5 -45.333 25.5 -76c0 -30 -8.16699 -52.167 -24.5 -66.5s-37.5 -21.5 -63.5 -21.5c-21.333 0 -40.166 5.83301 -56.499 17.5s-24.5 28.834 -24.5 51.501c0 14.667 1.83301 25.667 5.5 33
s7.66699 12.833 12 16.5s8.33301 6.33398 12 8.00098s5.5 4.16699 5.5 7.5c0 6.66699 -3.33301 11.834 -10 15.501s-14.5 6.5 -23.5 8.5s-18 3.33301 -27 4s-15.833 1 -20.5 1c-13.333 0 -26.166 -2 -38.499 -6s-23.333 -9.66699 -33 -17s-17.334 -16.666 -23.001 -27.999
s-8.5 -24 -8.5 -38c0 -20.667 2.66699 -39.667 8 -57l17 -58h121v-74h-116c-3.33301 -28 -13.166 -53.333 -29.499 -76s-36.166 -40.667 -59.499 -54l7 -8l30 14c8.66699 4 17.167 7.16699 25.5 9.5s17.166 4.16602 26.499 5.49902s20.333 2 33 2
c13.333 0 26 -1.83301 38 -5.5l36 -11.5l34.5 -11.5c11 -3.66699 21.833 -5.5 32.5 -5.5s19.167 2.16699 25.5 6.5s11.166 9.83301 14.499 16.5s5.66602 13.5 6.99902 20.5s2 13.167 2 18.5v22h80v-29c0 -24 -2.16699 -47.5 -6.5 -70.5s-11.833 -43.5 -22.5 -61.5
s-25.167 -32.333 -43.5 -43s-41.833 -16 -70.5 -16c-23.333 0 -45.333 2.5 -66 7.5s-40.667 10.833 -60 17.5s-37.833 12.5 -55.5 17.5s-36.167 7.5 -55.5 7.5c-28 0 -52.833 -5 -74.5 -15s-43.5 -21.667 -65.5 -35z" />
    <glyph glyph-name="currency" unicode="&#xa4;" 
d="M439 356c0 19.333 -3.5 37.666 -10.5 54.999s-16.667 32.333 -29 45s-26.666 22.667 -42.999 30s-33.833 11 -52.5 11s-36.167 -3.66699 -52.5 -11s-30.5 -17.333 -42.5 -30s-21.5 -27.667 -28.5 -45s-10.5 -35.666 -10.5 -54.999s3.5 -37.5 10.5 -54.5
s16.5 -31.833 28.5 -44.5s26.167 -22.667 42.5 -30s33.833 -11 52.5 -11s36.167 3.66699 52.5 11s30.666 17.333 42.999 30s22 27.5 29 44.5s10.5 35.167 10.5 54.5zM99 214c-15.333 16.667 -27 37.335 -35 62.002s-12 51 -12 79s3.83301 55.167 11.5 81.5
s19.5 47.166 35.5 62.499l-59 59l64 64l58 -58c15.333 13.333 36.333 24.166 63 32.499s54.334 12.5 83.001 12.5c27.333 0 53.333 -4 78 -12s43.667 -18.333 57 -31l59 59l69 -69l-57 -57c13.333 -14.667 23.833 -35 31.5 -61s11.5 -53 11.5 -81
s-3.83301 -54.833 -11.5 -80.5s-18.834 -47.167 -33.501 -64.5l57 -57l-61 -61l-59 59c-15.333 -15.333 -35.833 -27.333 -61.5 -36s-52.5 -13 -80.5 -13c-30 0 -58 4 -84 12s-47 19.667 -63 35l-58 -58l-62 62z" />
    <glyph glyph-name="yen" unicode="&#xa5;" 
d="M558 322h-141.999l-28 -54h170v-74h-171v-66c0 -26.667 11 -40 33 -40h57v-88h-334v88h55c21.333 0 32 13.333 32 40v66h-171v74h170l-28 54h-142v74h103l-64 123c-5.33301 10.667 -10.5 19.5 -15.5 26.5s-10.333 12.667 -16 17s-12.334 7.5 -20.001 9.5
s-17.167 3 -28.5 3h-18v88h318v-88h-34c-17.333 0 -26 -5.33301 -26 -16c0 -5.33301 1.5 -11.333 4.5 -18s5.5 -12 7.5 -16l74 -137l74 137l8 16c3.33301 6.66699 5 12.667 5 18c0 10.667 -8.66699 16 -26 16h-34v88h240v-88h-18c-19.333 0 -33.5 -4.16699 -42.5 -12.5
s-18.833 -22.833 -29.5 -43.5l-65 -123h102v-74z" />
    <glyph glyph-name="brokenbar" unicode="&#xa6;" horiz-adv-x="222" 
d="M166 175v-350h-111v350h111zM166 675v-350h-111v350h111z" />
    <glyph glyph-name="section" unicode="&#xa7;" 
d="M300 168c10 -4.66699 21.668 -8.83105 35.001 -12.498s25.666 -5.5 36.999 -5.5c21.333 0 39 6.66699 53 20s21 30.666 21 51.999c0 10 -2.33301 19.167 -7 27.5s-10.5 15.666 -17.5 21.999s-15 12 -24 17s-17.5 9.16699 -25.5 12.5l-82 31
c-11.333 4 -21.833 7.16699 -31.5 9.5s-18.167 3.5 -25.5 3.5c-21.333 0 -38.166 -7.16699 -50.499 -21.5s-18.5 -30.5 -18.5 -48.5c0 -15.333 3.66699 -28.333 11 -39s16.666 -18.667 27.999 -24zM292.001 683.003c19.333 0 41.666 -1.66602 66.999 -4.99902
s49.166 -9.5 71.499 -18.5s41.333 -21.5 57 -37.5s23.5 -37 23.5 -63c0 -22.667 -6.83301 -40.334 -20.5 -53.001s-31.5 -19 -53.5 -19c-19.333 0 -36 4.66699 -50 14s-21 24.666 -21 45.999c0 9.33301 2.5 18 7.5 26s11.167 15 18.5 21
c-10.667 7.33301 -23 12.666 -37 15.999s-27.667 5 -41 5c-14 0 -27.5 -1 -40.5 -3s-24.667 -6 -35 -12s-18.666 -14 -24.999 -24s-9.5 -23 -9.5 -39c0 -19.333 8.5 -34.833 25.5 -46.5s38.333 -22.167 64 -31.5s53.334 -18.833 83.001 -28.5s57.334 -21.667 83.001 -36
s47 -32.333 64 -54s25.5 -49.5 25.5 -83.5c0 -38 -9.83301 -68.333 -29.5 -91s-46.5 -40.667 -80.5 -54c28 -16 49.833 -35.5 65.5 -58.5s23.5 -50.833 23.5 -83.5s-6.66699 -60.5 -20 -83.5s-30.833 -41.833 -52.5 -56.5s-46.334 -25.334 -74.001 -32.001
s-55.834 -10 -84.501 -10c-22.667 0 -46 2.5 -70 7.5s-46 13.167 -66 24.5s-36.5 26.166 -49.5 44.499s-19.5 40.833 -19.5 67.5c0 20.667 6.83301 38.167 20.5 52.5s31.834 21.5 54.501 21.5c8.66699 0 17.167 -1 25.5 -3s15.833 -5.5 22.5 -10.5s12 -11.5 16 -19.5
s6 -17.667 6 -29c0 -13.333 -3.33301 -25.666 -10 -36.999s-16.334 -19.333 -29.001 -24c12 -9.33301 25.333 -16.166 40 -20.499s29.667 -6.5 45 -6.5c14.667 0 30 0.833008 46 2.5s30.5 5.5 43.5 11.5s23.667 14.667 32 26s12.5 26.666 12.5 45.999
c0 24 -8.83301 42.833 -26.5 56.5s-39.667 25.334 -66 35.001s-54.833 18.834 -85.5 27.501s-59.167 20 -85.5 34s-48.333 32 -66 54s-26.5 51 -26.5 87c0 38 9.66699 69.333 29 94s47.333 42.667 84 54c-11.333 6 -21.833 13.333 -31.5 22s-18.167 18.5 -25.5 29.5
s-13.166 22.5 -17.499 34.5s-6.5 24.333 -6.5 37c0 28.667 5.33301 53.834 16 75.501s25 40 43 55s39 26.333 63 34s49.667 11.5 77 11.5z" />
    <glyph glyph-name="dieresis" unicode="&#xa8;" horiz-adv-x="333" 
d="M277 705c22 0 40.667 -7.83301 56 -23.5s23 -34.167 23 -55.5c0 -22 -7.66699 -40.667 -23 -56s-34 -23 -56 -23s-40.667 7.66699 -56 23s-23 34 -23 56c0 21.333 7.66699 39.833 23 55.5s34 23.5 56 23.5zM57 705c22 0 40.667 -7.83301 56 -23.5s23 -34.167 23 -55.5
c0 -22 -7.66699 -40.667 -23 -56s-34 -23 -56 -23s-40.667 7.66699 -56 23s-23 34 -23 56c0 21.333 7.66699 39.833 23 55.5s34 23.5 56 23.5z" />
    <glyph glyph-name="copyright" unicode="&#xa9;" horiz-adv-x="800" 
d="M567 260l-15.001 -76.999c-1.33301 -6 -4.33301 -10.167 -9 -12.5s-11.667 -5.16602 -21 -8.49902c-7.33301 -2.66699 -20.833 -6.83398 -40.5 -12.501s-40.834 -8.5 -63.501 -8.5c-68.667 0 -121.667 17.5 -159 52.5s-56 84.833 -56 149.5
c0 21.333 3.33301 43.5 10 66.5s18.5 44.167 35.5 63.5s39.833 35.166 68.5 47.499s65.334 18.5 110.001 18.5c25.333 0 45.166 -1.83301 59.499 -5.5s28.166 -7.83398 41.499 -12.501c14.667 -4.66699 22 -12 22 -22v-70h-23c-4 10 -8.66699 20 -14 30s-12 19 -20 27
s-17.167 14.5 -27.5 19.5s-22.166 7.5 -35.499 7.5c-33.333 0 -57.666 -14.833 -72.999 -44.5s-23 -69.5 -23 -119.5c0 -25.333 1.33301 -49 4 -71s7.33398 -41.333 14.001 -58s16 -29.667 28 -39s27.667 -14 47 -14c24.667 0 47 8.33301 67 25s36.667 39.334 50 68.001h23z
M399.999 43.001c38 0 72.5 7.33301 103.5 22s57.667 35 80 61s39.666 56.5 51.999 91.5s18.5 72.833 18.5 113.5c0 40 -6.16699 77.667 -18.5 113s-29.666 66 -51.999 92s-49 46.5 -80 61.5s-65.5 22.5 -103.5 22.5s-72.5 -7.5 -103.5 -22.5s-57.667 -35.5 -80 -61.5
s-39.666 -56.667 -51.999 -92s-18.5 -73 -18.5 -113c0 -40.667 6.16699 -78.5 18.5 -113.5s29.666 -65.5 51.999 -91.5s49 -46.333 80 -61s65.5 -22 103.5 -22zM399.999 -19.999c-50 0 -96 8.83301 -138 26.5s-78.333 42.334 -109 74.001s-54.5 68.834 -71.5 111.501
s-25.5 89 -25.5 139s8.5 96.5 25.5 139.5s40.833 80.167 71.5 111.5s67 56 109 74s88 27 138 27s96 -9 138 -27s78.333 -42.667 109 -74s54.5 -68.5 71.5 -111.5s25.5 -89.5 25.5 -139.5s-8.5 -96.333 -25.5 -139s-40.833 -79.834 -71.5 -111.501s-67 -56.334 -109 -74.001
s-88 -26.5 -138 -26.5z" />
    <glyph glyph-name="ordfeminine" unicode="&#xaa;" horiz-adv-x="367" 
d="M192 469c-8 -4 -16.8311 -7.66699 -26.498 -11s-18.834 -6.83301 -27.501 -10.5s-15.834 -8.33398 -21.501 -14.001s-8.5 -13.167 -8.5 -22.5c0 -12.667 3.66699 -21.5 11 -26.5s16 -7.5 26 -7.5c18.667 0 31.167 5.33301 37.5 16s9.5 22.334 9.5 35.001v41zM369.002 433
v-32.998c0 -30 -7.16699 -50.667 -21.5 -62s-39.5 -17 -75.5 -17c-15.333 0 -29.833 3.5 -43.5 10.5s-23.167 17.833 -28.5 32.5c-26 -28.667 -59.333 -43 -100 -43c-31.333 0 -55.833 6.16699 -73.5 18.5s-26.5 33.833 -26.5 64.5c0 18.667 4.83301 33 14.5 43
s21.5 17.5 35.5 22.5s29.5 8.5 46.5 10.5s32.5 4.5 46.5 7.5s25.833 7.5 35.5 13.5s14.5 15.667 14.5 29c0 19.333 -6 33 -18 41s-27 12 -45 12c-9.33301 0 -18.333 -0.833008 -27 -2.5s-16.667 -4.83398 -24 -9.50098v-2c9.33301 -0.666992 18.333 -3.5 27 -8.5
s13 -12.833 13 -23.5c0 -13.333 -5.16699 -23 -15.5 -29s-22.166 -9 -35.499 -9c-15.333 0 -28.5 3.83301 -39.5 11.5s-16.5 18.834 -16.5 33.501c0 16.667 5.33301 30 16 40s23.834 17.667 39.501 23s32 8.83301 49 10.5s32.167 2.5 45.5 2.5c22 0 41.667 -1.5 59 -4.5
s31.833 -8.33301 43.5 -16s20.5 -18.5 26.5 -32.5s9 -32 9 -54v-112c0 -8.66699 0.666992 -14.834 2 -18.501s4.66602 -5.5 9.99902 -5.5c7.33301 0 12.666 2.66699 15.999 8s5 16.666 5 33.999v14h36z" />
    <glyph glyph-name="guillemotleft" unicode="&#xab;" horiz-adv-x="500" 
d="M448 403l-16 -37.002c-2.66699 -6 -6.83398 -14.667 -12.501 -26s-11.334 -23.666 -17.001 -36.999s-10.667 -26.166 -15 -38.499s-6.5 -22.5 -6.5 -30.5s2.16699 -18.167 6.5 -30.5s9.33301 -25.166 15 -38.499s11.334 -25.666 17.001 -36.999s9.83398 -20 12.501 -26
l16 -37h-86l-42 61c-3.33301 4.66699 -8.5 11.5 -15.5 20.5s-14 18.667 -21 29s-13.167 20.666 -18.5 30.999s-8 19.5 -8 27.5s2.66699 17.167 8 27.5s11.5 20.666 18.5 30.999s14 20 21 29s12.167 15.833 15.5 20.5l42 61h86zM244 402.998l-16 -37.002
c-2.66699 -6 -6.83398 -14.667 -12.501 -26s-11.334 -23.666 -17.001 -36.999s-10.667 -26.166 -15 -38.499s-6.5 -22.5 -6.5 -30.5s2.16699 -18.167 6.5 -30.5s9.33301 -25.166 15 -38.499s11.334 -25.666 17.001 -36.999s9.83398 -20 12.501 -26l16 -37h-86l-42 61
c-3.33301 4.66699 -8.5 11.5 -15.5 20.5s-14 18.667 -21 29s-13.167 20.666 -18.5 30.999s-8 19.5 -8 27.5s2.66699 17.167 8 27.5s11.5 20.666 18.5 30.999s14 20 21 29s12.167 15.833 15.5 20.5l42 61h86z" />
    <glyph glyph-name="logicalnot" unicode="&#xac;" horiz-adv-x="600" 
d="M422 277h-356v111h467v-288h-111v177z" />
    <glyph glyph-name="registered" unicode="&#xae;" horiz-adv-x="800" 
d="M372 342h22.002c10.667 0 19.167 2.66699 25.5 8s11.166 12.166 14.499 20.499s5.66602 17.333 6.99902 27s2 18.834 2 27.501c0 28.667 -3.66699 48.5 -11 59.5s-18.333 16.833 -33 17.5h-27v-160zM234.002 528l206 -0.00292969c31.333 0 57.166 -8 77.499 -24
s30.5 -41.333 30.5 -76c0 -20 -6.5 -39.5 -19.5 -58.5s-31.5 -32.167 -55.5 -39.5l56 -84l28 -40l28 -40v-14h-98c-7.33301 0 -14.833 5.83301 -22.5 17.5s-15.5 26 -23.5 43l-24.5 53.5c-8.33301 18.667 -16.833 35.334 -25.5 50.001h-19v-101
c0 -6.66699 0.166992 -12.167 0.5 -16.5s1.83301 -8 4.5 -11s6.83398 -5.16699 12.501 -6.5s13.5 -2.33301 23.5 -3v-26h-179v26c10 0.666992 17.833 1.66699 23.5 3s9.83398 3.5 12.501 6.5s4.16699 6.66699 4.5 11s0.5 9.83301 0.5 16.5v255
c0 6.66699 -0.166992 12.334 -0.5 17.001s-1.83301 8.33398 -4.5 11.001s-6.83398 4.66699 -12.501 6s-13.5 2.33301 -23.5 3v21zM400.002 42.9971c38 0 72.5 7.33301 103.5 22s57.667 35 80 61s39.666 56.5 51.999 91.5s18.5 72.833 18.5 113.5
c0 40 -6.16699 77.667 -18.5 113s-29.666 66 -51.999 92s-49 46.5 -80 61.5s-65.5 22.5 -103.5 22.5s-72.5 -7.5 -103.5 -22.5s-57.667 -35.5 -80 -61.5s-39.666 -56.667 -51.999 -92s-18.5 -73 -18.5 -113c0 -40.667 6.16699 -78.5 18.5 -113.5s29.666 -65.5 51.999 -91.5
s49 -46.333 80 -61s65.5 -22 103.5 -22zM400.002 -20.0029c-50 0 -96 8.83301 -138 26.5s-78.333 42.334 -109 74.001s-54.5 68.834 -71.5 111.501s-25.5 89 -25.5 139s8.5 96.5 25.5 139.5s40.833 80.167 71.5 111.5s67 56 109 74s88 27 138 27s96 -9 138 -27
s78.333 -42.667 109 -74s54.5 -68.5 71.5 -111.5s25.5 -89.5 25.5 -139.5s-8.5 -96.333 -25.5 -139s-40.833 -79.834 -71.5 -111.501s-67 -56.334 -109 -74.001s-88 -26.5 -138 -26.5z" />
    <glyph glyph-name="macron" unicode="&#xaf;" horiz-adv-x="333" 
d="M-9 581v88h353v-88h-353z" />
    <glyph glyph-name="macron" unicode="&#x2c9;" horiz-adv-x="333" 
d="M-9 581v88h353v-88h-353z" />
    <glyph glyph-name="degree" unicode="&#xb0;" horiz-adv-x="400" 
d="M200 389c25.333 0 45.666 8.33301 60.999 25s23 37.667 23 63s-7.66699 46.333 -23 63s-35.666 25 -60.999 25s-45.666 -8.33301 -60.999 -25s-23 -37.667 -23 -63s7.66699 -46.333 23 -63s35.666 -25 60.999 -25zM200 620c20 0 38.667 -3.66699 56 -11
s32.5 -17.5 45.5 -30.5s23.167 -28.167 30.5 -45.5s11 -36 11 -56s-3.66699 -38.667 -11 -56s-17.5 -32.5 -30.5 -45.5s-28.167 -23.167 -45.5 -30.5s-36 -11 -56 -11s-38.667 3.66699 -56 11s-32.5 17.5 -45.5 30.5s-23.167 28.167 -30.5 45.5s-11 36 -11 56
s3.66699 38.667 11 56s17.5 32.5 30.5 45.5s28.167 23.167 45.5 30.5s36 11 56 11z" />
    <glyph glyph-name="plusminus" unicode="&#xb1;" horiz-adv-x="600" 
d="M66 111h467v-111h-467v111zM244 468h111v-105h178v-111h-178v-104h-111v104h-178v111h178v105z" />
    <glyph glyph-name="twosuperior" unicode="&#xb2;" horiz-adv-x="366" 
d="M7 248l0.000976562 24.999c0 25.333 5.33301 46.333 16 63s24.167 30.834 40.5 42.501s34 22 53 31s36.667 18 53 27s29.833 19 40.5 30s16 24.833 16 41.5c0 21.333 -8 37.333 -24 48s-34.667 16 -56 16c-16 0 -32.167 -4 -48.5 -12s-26.5 -20 -30.5 -36
c4 2 8.33301 3.33301 13 4s8.66699 1 12 1c12.667 0 23 -4.5 31 -13.5s12 -18.833 12 -29.5c0 -4.66699 -0.666992 -9.83398 -2 -15.501s-4.33301 -10.834 -9 -15.501s-11 -8.66699 -19 -12s-18.333 -5 -31 -5c-19.333 0 -35.333 5.83301 -48 17.5s-19 26.834 -19 45.501
c0 21.333 5.33301 39.5 16 54.5s24.334 27.333 41.001 37s35.334 16.667 56.001 21s41 6.5 61 6.5s39.833 -2.16699 59.5 -6.5s37.167 -11.333 52.5 -21s27.833 -22 37.5 -37s14.5 -33.167 14.5 -54.5c0 -24 -5.16699 -43.167 -15.5 -57.5s-23.666 -26 -39.999 -35
s-34.5 -16 -54.5 -21s-39.833 -10.333 -59.5 -16s-37.834 -12.5 -54.501 -20.5s-30 -19 -40 -33l1 -2c13.333 9.33301 26.333 15.5 39 18.5s27.334 4.5 44.001 4.5c11.333 0 21.166 -0.666992 29.499 -2l24.5 -4c8 -1.33301 16.167 -3 24.5 -5s17.5 -3 27.5 -3
c7.33301 0 13.166 1.66699 17.499 5s7.66602 7.33301 9.99902 12s3.83301 9.83398 4.5 15.501s1 11.167 1 16.5h55v-29c0 -70.667 -38 -106 -114 -106c-15.333 0 -29.333 1.66699 -42 5s-25 7.33301 -37 12l-33 11.5c-10.667 3.66699 -21.334 5.5 -32.001 5.5
c-22.667 0 -35 -8.33301 -37 -25h-57z" />
    <glyph glyph-name="threesuperior" unicode="&#xb3;" horiz-adv-x="366" 
d="M158 462c20.667 0 38.6709 3.16406 54.0039 9.49707s23 20.5 23 42.5c0 21.333 -7.83301 36.333 -23.5 45s-33.834 13 -54.501 13c-13.333 0 -25.333 -1.5 -36 -4.5s-20.667 -9.16699 -30 -18.5c15.333 0 28.166 -2.83301 38.499 -8.5s15.5 -16.167 15.5 -31.5
c0 -14.667 -6.16699 -25.5 -18.5 -32.5s-25.833 -10.5 -40.5 -10.5c-16.667 0 -30.334 5.16699 -41.001 15.5s-16 23.166 -16 38.499c0 19.333 5 35.333 15 48s22.667 22.834 38 30.501s32.166 13.167 50.499 16.5s36.166 5 53.499 5c16.667 0 34.834 -1.33301 54.501 -4
s38 -7.5 55 -14.5s31.167 -16.667 42.5 -29s17 -28.5 17 -48.5c0 -25.333 -8.33301 -43.833 -25 -55.5s-37.334 -19.5 -62.001 -23.5v-2c14 -3.33301 27 -7.16602 39 -11.499s22.5 -10 31.5 -17s16 -15.667 21 -26s7.5 -23.166 7.5 -38.499
c0 -22.667 -4.66699 -41.167 -14 -55.5s-22 -25.666 -38 -33.999s-34.833 -14 -56.5 -17s-44.5 -4.5 -68.5 -4.5c-20.667 0 -41.167 1.16699 -61.5 3.5s-38.5 7 -54.5 14s-29 17 -39 30s-15 30.167 -15 51.5c0 40.667 21.667 61 65 61
c14.667 0 27.334 -4.16699 38.001 -12.5s16 -19.833 16 -34.5c0 -15.333 -5.16699 -26.333 -15.5 -33s-23.166 -10 -38.499 -10c2.66699 -3.33301 6.83398 -6.33301 12.501 -9s11.667 -5 18 -7s12.666 -3.5 18.999 -4.5s11.5 -1.5 15.5 -1.5c12 0 23.667 1 35 3
s21.666 5.5 30.999 10.5s16.833 11.833 22.5 20.5s8.5 19.667 8.5 33s-2.33301 24 -7 32s-11 14 -19 18s-17.5 6.66699 -28.5 8s-22.5 2 -34.5 2v48z" />
    <glyph glyph-name="acute" unicode="&#xb4;" horiz-adv-x="333" 
d="M81 543l85 113.999l21.5 29.5c7 9.66699 14.667 18.5 23 26.5s17.5 14.5 27.5 19.5s22 7.5 36 7.5c15.333 0 28.833 -5 40.5 -15s17.5 -22.667 17.5 -38c0 -20 -6.16699 -35.167 -18.5 -45.5s-26.5 -20.166 -42.5 -29.499l-118 -69h-72z" />
    <glyph glyph-name="mu" unicode="&#xb5;" horiz-adv-x="667" 
d="M641 0l-229.996 0.00195312v77h-2c-20.667 -30 -43.167 -52.333 -67.5 -67s-54.5 -22.667 -90.5 -24v-198h-235v80h32c13.333 0 22.833 4.16699 28.5 12.5s8.5 20.166 8.5 35.499v429c0 14 -2.33301 24.667 -7 32s-14.334 11 -29.001 11h-33v80h235v-295
c0 -18 0.333008 -33.167 1 -45.5s3.5 -22.333 8.5 -30s12.667 -13.334 23 -17.001s25.166 -5.5 44.499 -5.5c11.333 0 21.666 2.5 30.999 7.5s17.166 11.5 23.499 19.5s11.333 17 15 27s5.5 20.333 5.5 31v185c0 14 -2.33301 24.667 -7 32s-14.334 11 -29.001 11h-44v80h246
v-345c0 -14 2.33301 -24.667 7 -32s14.334 -11 29.001 -11h36v-80z" />
    <glyph glyph-name="mu" unicode="&#x3bc;" horiz-adv-x="667" 
d="M641 0l-229.996 0.00195312v77h-2c-20.667 -30 -43.167 -52.333 -67.5 -67s-54.5 -22.667 -90.5 -24v-198h-235v80h32c13.333 0 22.833 4.16699 28.5 12.5s8.5 20.166 8.5 35.499v429c0 14 -2.33301 24.667 -7 32s-14.334 11 -29.001 11h-33v80h235v-295
c0 -18 0.333008 -33.167 1 -45.5s3.5 -22.333 8.5 -30s12.667 -13.334 23 -17.001s25.166 -5.5 44.499 -5.5c11.333 0 21.666 2.5 30.999 7.5s17.166 11.5 23.499 19.5s11.333 17 15 27s5.5 20.333 5.5 31v185c0 14 -2.33301 24.667 -7 32s-14.334 11 -29.001 11h-44v80h246
v-345c0 -14 2.33301 -24.667 7 -32s14.334 -11 29.001 -11h36v-80z" />
    <glyph glyph-name="paragraph" unicode="&#xb6;" horiz-adv-x="620" 
d="M568 630c-7.33301 0 -15 -1.16992 -23 -3.50293s-15.333 -6.16602 -22 -11.499s-12 -12.5 -16 -21.5s-6 -20.167 -6 -33.5v-713h-114v783h-55v-783h-114v427c-22 0 -42.167 4.83301 -60.5 14.5s-33.833 23.167 -46.5 40.5s-22.5 37.833 -29.5 61.5s-10.5 49.5 -10.5 77.5
s3.5 53.833 10.5 77.5s16.833 44.334 29.5 62.001s28.167 31.334 46.5 41.001s38.5 14.5 60.5 14.5h350v-33z" />
    <glyph glyph-name="periodcentered" unicode="&#xb7;" horiz-adv-x="305" 
d="M231 234c0 -22 -7.83301 -40.667 -23.5 -56s-34.167 -23 -55.5 -23c-22 0 -40.5 7.66699 -55.5 23s-22.5 34 -22.5 56c0 21.333 7.5 39.666 22.5 54.999s33.5 23 55.5 23c21.333 0 39.833 -7.66699 55.5 -23s23.5 -33.666 23.5 -54.999z" />
    <glyph glyph-name="periodcentered" unicode="&#x2219;" horiz-adv-x="305" 
d="M231 234c0 -22 -7.83301 -40.667 -23.5 -56s-34.167 -23 -55.5 -23c-22 0 -40.5 7.66699 -55.5 23s-22.5 34 -22.5 56c0 21.333 7.5 39.666 22.5 54.999s33.5 23 55.5 23c21.333 0 39.833 -7.66699 55.5 -23s23.5 -33.666 23.5 -54.999z" />
    <glyph glyph-name="cedilla" unicode="&#xb8;" horiz-adv-x="333" 
d="M59 -161c7.33301 -2.66699 17.832 -5.5 31.499 -8.5s26.834 -4.5 39.501 -4.5c11.333 0 21.166 2.66699 29.499 8s12.5 14.666 12.5 27.999c0 10 -3.16699 18.5 -9.5 25.5s-14.5 10.5 -24.5 10.5c-5.33301 0 -10.333 -0.666992 -15 -2l-14 -4l-16 9l46 99h46l-28 -62
c7.33301 2 14.333 3.33301 21 4s13.667 1 21 1c10.667 0 21.167 -1.5 31.5 -4.5s19.666 -7.5 27.999 -13.5s15 -13.5 20 -22.5s7.5 -19.5 7.5 -31.5c0 -19.333 -5.16699 -35.166 -15.5 -47.499s-23.166 -22 -38.499 -29s-32 -11.667 -50 -14s-34.333 -3.5 -49 -3.5
c-6 0 -13.167 0.5 -21.5 1.5s-16.666 2.33301 -24.999 4s-16.333 3.66699 -24 6s-14.5 4.5 -20.5 6.5z" />
    <glyph glyph-name="onesuperior" unicode="&#xb9;" horiz-adv-x="366" 
d="M239 611l0.000976562 -284.001c0 -8.66699 2.33301 -15.667 7 -21s12 -8 22 -8h40v-50h-253v50h43c10 0 17.333 2.66699 22 8s7 12.333 7 21v186h-70v50h16c19.333 0 35.666 3.33301 48.999 10s24.333 19.334 33 38.001h84z" />
    <glyph glyph-name="ordmasculine" unicode="&#xba;" horiz-adv-x="334" 
d="M168 572c-19.333 0 -33 -8 -41 -24s-12 -42 -12 -78c0 -35.333 4 -61 12 -77s21.667 -24 41 -24s32.833 8 40.5 24s11.5 41.667 11.5 77c0 36 -3.83301 62 -11.5 78s-21.167 24 -40.5 24zM168 620c24 0 46.333 -3.33301 67 -10s38.334 -16.334 53.001 -29.001
s26.167 -28.334 34.5 -47.001s12.5 -40 12.5 -64s-4.16699 -45.333 -12.5 -64s-19.833 -34.167 -34.5 -46.5s-32.334 -21.833 -53.001 -28.5s-43 -10 -67 -10s-46.333 3.33301 -67 10s-38.5 16.167 -53.5 28.5s-26.667 27.833 -35 46.5s-12.5 40 -12.5 64
s4.16699 45.333 12.5 64s20 34.334 35 47.001s32.833 22.334 53.5 29.001s43 10 67 10z" />
    <glyph glyph-name="guillemotright" unicode="&#xbb;" horiz-adv-x="500" 
d="M52 65l16 37.002c2.66699 6 6.83398 14.667 12.501 26s11.334 23.666 17.001 36.999s10.667 26.166 15 38.499s6.5 22.5 6.5 30.5s-2.16699 18.167 -6.5 30.5s-9.33301 25.166 -15 38.499s-11.334 25.666 -17.001 36.999s-9.83398 20 -12.501 26l-16 37h86l42 -61
c3.33301 -4.66699 8.5 -11.5 15.5 -20.5s14 -18.667 21 -29s13.167 -20.666 18.5 -30.999s8 -19.5 8 -27.5s-2.66699 -17.167 -8 -27.5s-11.5 -20.666 -18.5 -30.999s-14 -20 -21 -29s-12.167 -15.833 -15.5 -20.5l-42 -61h-86zM256 65.002l16 37.002
c2.66699 6 6.83398 14.667 12.501 26s11.334 23.666 17.001 36.999s10.667 26.166 15 38.499s6.5 22.5 6.5 30.5s-2.16699 18.167 -6.5 30.5s-9.33301 25.166 -15 38.499s-11.334 25.666 -17.001 36.999s-9.83398 20 -12.501 26l-16 37h86l42 -61
c3.33301 -4.66699 8.5 -11.5 15.5 -20.5s14 -18.667 21 -29s13.167 -20.666 18.5 -30.999s8 -19.5 8 -27.5s-2.66699 -17.167 -8 -27.5s-11.5 -20.666 -18.5 -30.999s-14 -20 -21 -29s-12.167 -15.833 -15.5 -20.5l-42 -61h-86z" />
    <glyph glyph-name="onequarter" unicode="&#xbc;" horiz-adv-x="916" 
d="M718 160v115l-116 -115h116zM662 620h60l-435 -635h-62zM264 611l0.000976562 -284.001c0 -8.66699 2.33301 -15.667 7 -21s12 -8 22 -8h40v-50h-253v50h43c10 0 17.333 2.66699 22 8s7 12.333 7 21v186h-70v50h16c19.333 0 35.666 3.33301 48.999 10
s24.333 19.334 33 38.001h84zM528.001 166.999l203 196h102v-203h63v-50h-63v-31c0 -8.66699 2.33301 -15.667 7 -21s11.667 -8 21 -8h35v-50h-247v50h43c9.33301 0 16.333 2.66699 21 8s7 12.333 7 21v31h-192v57z" />
    <glyph glyph-name="onehalf" unicode="&#xbd;" horiz-adv-x="916" 
d="M636 620h60l-435 -635h-62zM264 611l0.000976562 -284.001c0 -8.66699 2.33301 -15.667 7 -21s12 -8 22 -8h40v-50h-253v50h43c10 0 17.333 2.66699 22 8s7 12.333 7 21v186h-70v50h16c19.333 0 35.666 3.33301 48.999 10s24.333 19.334 33 38.001h84z
M528.001 -0.000976562l0.000976562 25c0 24.667 5.33301 45.5 16 62.5s24.167 31.333 40.5 43s34 22 53 31s36.667 18 53 27s29.833 19 40.5 30s16 24.833 16 41.5c0 21.333 -8 37.333 -24 48s-34.667 16 -56 16c-16 0 -32.167 -4 -48.5 -12s-26.5 -20 -30.5 -36
c4 2 8.33301 3.33301 13 4s8.66699 1 12 1c12.667 0 23 -4.5 31 -13.5s12 -18.833 12 -29.5c0 -4.66699 -0.666992 -9.83398 -2 -15.501s-4.33301 -10.834 -9 -15.501s-11 -8.66699 -19 -12s-18.333 -5 -31 -5c-19.333 0 -35.333 5.83301 -48 17.5s-19 26.834 -19 45.501
c0 21.333 5.33301 39.5 16 54.5s24.334 27.333 41.001 37s35.334 16.667 56.001 21s41 6.5 61 6.5s39.833 -2.16699 59.5 -6.5s37.167 -11.333 52.5 -21s27.833 -22 37.5 -37s14.5 -33.167 14.5 -54.5c0 -24 -5.16699 -43.167 -15.5 -57.5s-23.666 -26 -39.999 -35
s-34.5 -16 -54.5 -21s-39.833 -10.333 -59.5 -16s-37.834 -12.5 -54.501 -20.5s-30 -19 -40 -33l1 -2c13.333 9.33301 26.333 15.5 39 18.5s27.334 4.5 44.001 4.5c11.333 0 21.166 -0.666992 29.499 -2l24.5 -4c8 -1.33301 16.167 -3 24.5 -5s17.5 -3 27.5 -3
c7.33301 0 13.166 1.66699 17.499 5s7.66602 7.33301 9.99902 12s3.83301 9.83398 4.5 15.501s1 11.167 1 16.5h55v-29c0 -70.667 -38 -106 -114 -106c-15.333 0 -29.333 1.66699 -42 5s-25 7.33301 -37 12l-33 11.5c-10.667 3.66699 -21.334 5.5 -32.001 5.5
c-22.667 0 -35 -8.33301 -37 -25h-57z" />
    <glyph glyph-name="threequarters" unicode="&#xbe;" horiz-adv-x="916" 
d="M713 160v115l-116 -115h116zM674 620h60l-435 -635h-62zM165 462c20.667 0 38.6709 3.16406 54.0039 9.49707s23 20.5 23 42.5c0 21.333 -7.83301 36.333 -23.5 45s-33.834 13 -54.501 13c-13.333 0 -25.333 -1.5 -36 -4.5s-20.667 -9.16699 -30 -18.5
c15.333 0 28.166 -2.83301 38.499 -8.5s15.5 -16.167 15.5 -31.5c0 -14.667 -6.16699 -25.5 -18.5 -32.5s-25.833 -10.5 -40.5 -10.5c-16.667 0 -30.334 5.16699 -41.001 15.5s-16 23.166 -16 38.499c0 19.333 5 35.333 15 48s22.667 22.834 38 30.501
s32.166 13.167 50.499 16.5s36.166 5 53.499 5c16.667 0 34.834 -1.33301 54.501 -4s38 -7.5 55 -14.5s31.167 -16.667 42.5 -29s17 -28.5 17 -48.5c0 -25.333 -8.33301 -43.833 -25 -55.5s-37.334 -19.5 -62.001 -23.5v-2c14 -3.33301 27 -7.16602 39 -11.499
s22.5 -10 31.5 -17s16 -15.667 21 -26s7.5 -23.166 7.5 -38.499c0 -22.667 -4.66699 -41.167 -14 -55.5s-22 -25.666 -38 -33.999s-34.833 -14 -56.5 -17s-44.5 -4.5 -68.5 -4.5c-20.667 0 -41.167 1.16699 -61.5 3.5s-38.5 7 -54.5 14s-29 17 -39 30s-15 30.167 -15 51.5
c0 40.667 21.667 61 65 61c14.667 0 27.334 -4.16699 38.001 -12.5s16 -19.833 16 -34.5c0 -15.333 -5.16699 -26.333 -15.5 -33s-23.166 -10 -38.499 -10c2.66699 -3.33301 6.83398 -6.33301 12.501 -9s11.667 -5 18 -7s12.666 -3.5 18.999 -4.5s11.5 -1.5 15.5 -1.5
c12 0 23.667 1 35 3s21.666 5.5 30.999 10.5s16.833 11.833 22.5 20.5s8.5 19.667 8.5 33s-2.33301 24 -7 32s-11 14 -19 18s-17.5 6.66699 -28.5 8s-22.5 2 -34.5 2v48zM523.004 166.997l203 196h102v-203h63v-50h-63v-31c0 -8.66699 2.33301 -15.667 7 -21
s11.667 -8 21 -8h35v-50h-247v50h43c9.33301 0 16.333 2.66699 21 8s7 12.333 7 21v31h-192v57z" />
    <glyph glyph-name="questiondown" unicode="&#xbf;" horiz-adv-x="556" 
d="M305 318c-22.667 0 -42.334 8.16699 -59.001 24.5s-25 36.166 -25 59.499s8.33301 43 25 59s36.334 24 59.001 24s42.167 -8 58.5 -24s24.5 -35.667 24.5 -59s-8.16699 -43.166 -24.5 -59.499s-35.833 -24.5 -58.5 -24.5zM354 264
c-0.666992 -16 -1.49805 -29.501 -2.49805 -40.501s-3.16699 -21.167 -6.5 -30.5c-6.66699 -20 -16.667 -38.167 -30 -54.5l-39.5 -49c-13 -16.333 -24.333 -33.833 -34 -52.5s-14.5 -40.334 -14.5 -65.001c0 -14.667 3.16699 -27.5 9.5 -38.5s14.5 -20.333 24.5 -28
s21.333 -13.334 34 -17.001s25.667 -5.5 39 -5.5c27.333 0 50.833 6.83301 70.5 20.5s32.167 34.5 37.5 62.5c-14.667 -7.33301 -29.334 -11 -44.001 -11c-21.333 0 -38.333 7.33301 -51 22s-19 32 -19 52c0 26.667 8.16699 46.667 24.5 60s37.166 20 62.499 20
c17.333 0 32.5 -3.33301 45.5 -10s23.667 -15.667 32 -27s14.666 -24.333 18.999 -39s6.5 -30 6.5 -46c0 -31.333 -6.5 -59.333 -19.5 -84s-30.167 -45.5 -51.5 -62.5s-45.833 -30 -73.5 -39s-55.834 -13.5 -84.501 -13.5c-24 0 -50.167 3.33301 -78.5 10
s-54.5 17.334 -78.5 32.001s-44 33.834 -60 57.501s-24 52.167 -24 85.5c0 18.667 2.83301 35.834 8.5 51.501s13 30 22 43s19.5 24.833 31.5 35.5s24 20.667 36 30c12.667 9.33301 25.334 18 38.001 26s24.167 16.833 34.5 26.5s18.833 20.667 25.5 33
s10.334 27.5 11.001 45.5h99z" />
    <glyph glyph-name="Agrave" unicode="&#xc0;" horiz-adv-x="778" 
d="M271 299h145l-72 215h-2zM392 716l-118 69.001c-16 9.33301 -30.167 19.166 -42.5 29.499s-18.5 25.5 -18.5 45.5c0 15.333 5.83301 28 17.5 38s25.167 15 40.5 15c14 0 26 -2.5 36 -7.5s19.167 -11.5 27.5 -19.5s16 -16.833 23 -26.5l21.5 -29.5l85 -114h-72z
M482 663.001l167.002 -499.999c4.66699 -15.333 9.33398 -27.833 14.001 -37.5s9.66699 -17.334 15 -23.001s11.166 -9.5 17.499 -11.5s13.833 -3 22.5 -3h34v-88h-365v88h30c15.333 0 28.333 1.16699 39 3.5s16 6.16602 16 11.499s-0.333008 10.833 -1 16.5
s-2 12.167 -4 19.5l-21 72h-204l-12 -40c-5.33301 -17.333 -9.16602 -30.5 -11.499 -39.5s-3.5 -17.167 -3.5 -24.5c0 -4 2 -7.16699 6 -9.5s9 -4.33301 15 -6s12.667 -2.66699 20 -3s14.333 -0.5 21 -0.5h29v-88h-294v88h34c8.66699 0 16.167 1 22.5 3
s12.166 5.83301 17.499 11.5s10.166 13.334 14.499 23.001s9.16602 22.167 14.499 37.5l167 500h200z" />
    <glyph glyph-name="Aacute" unicode="&#xc1;" horiz-adv-x="778" 
d="M271 299h145l-72 215h-2zM294 716l85 113.999l21.5 29.5c7 9.66699 14.667 18.5 23 26.5s17.5 14.5 27.5 19.5s22 7.5 36 7.5c15.333 0 28.833 -5 40.5 -15s17.5 -22.667 17.5 -38c0 -20 -6.16699 -35.167 -18.5 -45.5s-26.5 -20.166 -42.5 -29.499l-118 -69h-72z
M482 662.999l167.002 -499.999c4.66699 -15.333 9.33398 -27.833 14.001 -37.5s9.66699 -17.334 15 -23.001s11.166 -9.5 17.499 -11.5s13.833 -3 22.5 -3h34v-88h-365v88h30c15.333 0 28.333 1.16699 39 3.5s16 6.16602 16 11.499s-0.333008 10.833 -1 16.5
s-2 12.167 -4 19.5l-21 72h-204l-12 -40c-5.33301 -17.333 -9.16602 -30.5 -11.499 -39.5s-3.5 -17.167 -3.5 -24.5c0 -4 2 -7.16699 6 -9.5s9 -4.33301 15 -6s12.667 -2.66699 20 -3s14.333 -0.5 21 -0.5h29v-88h-294v88h34c8.66699 0 16.167 1 22.5 3
s12.166 5.83301 17.499 11.5s10.166 13.334 14.499 23.001s9.16602 22.167 14.499 37.5l167 500h200z" />
    <glyph glyph-name="Acircumflex" unicode="&#xc2;" horiz-adv-x="778" 
d="M271 299h145l-72 215h-2zM273 716h-78l122 180h125l123 -180h-79l-106 92zM482 663l167.002 -499.999c4.66699 -15.333 9.33398 -27.833 14.001 -37.5s9.66699 -17.334 15 -23.001s11.166 -9.5 17.499 -11.5s13.833 -3 22.5 -3h34v-88h-365v88h30
c15.333 0 28.333 1.16699 39 3.5s16 6.16602 16 11.499s-0.333008 10.833 -1 16.5s-2 12.167 -4 19.5l-21 72h-204l-12 -40c-5.33301 -17.333 -9.16602 -30.5 -11.499 -39.5s-3.5 -17.167 -3.5 -24.5c0 -4 2 -7.16699 6 -9.5s9 -4.33301 15 -6s12.667 -2.66699 20 -3
s14.333 -0.5 21 -0.5h29v-88h-294v88h34c8.66699 0 16.167 1 22.5 3s12.166 5.83301 17.499 11.5s10.166 13.334 14.499 23.001s9.16602 22.167 14.499 37.5l167 500h200z" />
    <glyph glyph-name="Atilde" unicode="&#xc3;" horiz-adv-x="778" 
d="M271 299h145l-72 215h-2zM579 877c-3.33301 -16 -8.16797 -32.665 -14.501 -49.998s-14.5 -33 -24.5 -47s-22.167 -25.667 -36.5 -35s-31.166 -14 -50.499 -14c-18 0 -35.333 2.66699 -52 8s-32.334 11.666 -47.001 18.999l-41 18c-12 5.33301 -22.667 8 -32 8
c-13.333 0 -23.833 -4.83301 -31.5 -14.5s-12.834 -20.834 -15.501 -33.501h-52c2 20 6.16699 38.667 12.5 56s15 32.666 26 45.999s24.333 23.833 40 31.5s33.834 11.5 54.501 11.5c13.333 0 27.333 -2.66699 42 -8s29.334 -11.333 44.001 -18s28.5 -12.667 41.5 -18
s24.167 -8 33.5 -8c13.333 0 23.833 4.83301 31.5 14.5s13.167 20.834 16.5 33.501h55zM481.998 663.002l167.002 -499.999c4.66699 -15.333 9.33398 -27.833 14.001 -37.5s9.66699 -17.334 15 -23.001s11.166 -9.5 17.499 -11.5s13.833 -3 22.5 -3h34v-88h-365v88h30
c15.333 0 28.333 1.16699 39 3.5s16 6.16602 16 11.499s-0.333008 10.833 -1 16.5s-2 12.167 -4 19.5l-21 72h-204l-12 -40c-5.33301 -17.333 -9.16602 -30.5 -11.499 -39.5s-3.5 -17.167 -3.5 -24.5c0 -4 2 -7.16699 6 -9.5s9 -4.33301 15 -6s12.667 -2.66699 20 -3
s14.333 -0.5 21 -0.5h29v-88h-294v88h34c8.66699 0 16.167 1 22.5 3s12.166 5.83301 17.499 11.5s10.166 13.334 14.499 23.001s9.16602 22.167 14.499 37.5l167 500h200z" />
    <glyph glyph-name="Adieresis" unicode="&#xc4;" horiz-adv-x="778" 
d="M271 299h145l-72 215h-2zM270 878c22 0 40.667 -7.83301 56 -23.5s23 -34.167 23 -55.5c0 -22 -7.66699 -40.667 -23 -56s-34 -23 -56 -23s-40.667 7.66699 -56 23s-23 34 -23 56c0 21.333 7.66699 39.833 23 55.5s34 23.5 56 23.5zM490 878
c22 0 40.667 -7.83301 56 -23.5s23 -34.167 23 -55.5c0 -22 -7.66699 -40.667 -23 -56s-34 -23 -56 -23s-40.667 7.66699 -56 23s-23 34 -23 56c0 21.333 7.66699 39.833 23 55.5s34 23.5 56 23.5zM482 663l167.002 -499.999c4.66699 -15.333 9.33398 -27.833 14.001 -37.5
s9.66699 -17.334 15 -23.001s11.166 -9.5 17.499 -11.5s13.833 -3 22.5 -3h34v-88h-365v88h30c15.333 0 28.333 1.16699 39 3.5s16 6.16602 16 11.499s-0.333008 10.833 -1 16.5s-2 12.167 -4 19.5l-21 72h-204l-12 -40c-5.33301 -17.333 -9.16602 -30.5 -11.499 -39.5
s-3.5 -17.167 -3.5 -24.5c0 -4 2 -7.16699 6 -9.5s9 -4.33301 15 -6s12.667 -2.66699 20 -3s14.333 -0.5 21 -0.5h29v-88h-294v88h34c8.66699 0 16.167 1 22.5 3s12.166 5.83301 17.499 11.5s10.166 13.334 14.499 23.001s9.16602 22.167 14.499 37.5l167 500h200z" />
    <glyph glyph-name="Aring" unicode="&#xc5;" horiz-adv-x="778" 
d="M379 880c-14.667 0 -27.167 -5.16699 -37.5 -15.5s-15.5 -22.5 -15.5 -36.5c0 -14.667 5.16699 -27 15.5 -37s22.833 -15 37.5 -15c14 0 26.333 5 37 15s16 22.333 16 37c0 14 -5.33301 26.167 -16 36.5s-23 15.5 -37 15.5zM271 299h145l-72 215h-2zM379 940
c15.333 0 29.833 -3 43.5 -9s25.667 -14 36 -24s18.5 -21.833 24.5 -35.5s9 -28.167 9 -43.5s-3 -29.833 -9 -43.5s-14.167 -25.5 -24.5 -35.5s-22.333 -18 -36 -24s-28.167 -9 -43.5 -9s-29.833 3 -43.5 9s-25.667 14 -36 24s-18.5 21.833 -24.5 35.5s-9 28.167 -9 43.5
s3 29.833 9 43.5s14.167 25.5 24.5 35.5s22.333 18 36 24s28.167 9 43.5 9zM482 663l167.002 -499.999c4.66699 -15.333 9.33398 -27.833 14.001 -37.5s9.66699 -17.334 15 -23.001s11.166 -9.5 17.499 -11.5s13.833 -3 22.5 -3h34v-88h-365v88h30
c15.333 0 28.333 1.16699 39 3.5s16 6.16602 16 11.499s-0.333008 10.833 -1 16.5s-2 12.167 -4 19.5l-21 72h-204l-12 -40c-5.33301 -17.333 -9.16602 -30.5 -11.499 -39.5s-3.5 -17.167 -3.5 -24.5c0 -4 2 -7.16699 6 -9.5s9 -4.33301 15 -6s12.667 -2.66699 20 -3
s14.333 -0.5 21 -0.5h29v-88h-294v88h34c8.66699 0 16.167 1 22.5 3s12.166 5.83301 17.499 11.5s10.166 13.334 14.499 23.001s9.16602 22.167 14.499 37.5l167 500h200z" />
    <glyph glyph-name="AE" unicode="&#xc6;" horiz-adv-x="1000" 
d="M279 335h141v240h-25zM237 247l-62.999 -136.001c-2 -5.33301 -3 -9.66602 -3 -12.999s2 -5.83301 6 -7.5s9 -2.5 15 -2.5h52v-88h-253v88c16.667 0 32 5 46 15s24.667 22.333 32 37l193 390l10 21.5c3.33301 7 5 12.167 5 15.5c0 2 -1.33301 3.5 -4 4.5
s-5.83398 1.83301 -9.50098 2.5s-7.16699 1 -10.5 1h-8h-47v88h766v-254h-93c0 36 -2.5 64.833 -7.5 86.5s-12.333 38.5 -22 50.5s-21.667 19.833 -36 23.5s-30.5 5.5 -48.5 5.5h-160v-191h22c28.667 0 49 5.5 61 16.5s18 28.167 18 51.5v39h83v-302h-83v39
c0 21.333 -5.16699 38 -15.5 50s-31.5 18 -63.5 18h-22v-208h117c31.333 0 57.166 2 77.499 6s36.333 12.333 48 25s19.834 31.167 24.501 55.5s7 56.5 7 96.5h93v-271h-632v88h49c26 0 39 13.333 39 40v119h-183z" />
    <glyph glyph-name="Ccedilla" unicode="&#xc7;" horiz-adv-x="722" 
d="M676 253c-1.33301 -85.333 -24.3311 -150.335 -68.998 -195.002s-107.667 -69.667 -189 -75l-20 -45c7.33301 2 14.333 3.33301 21 4s13.667 1 21 1c10.667 0 21.167 -1.5 31.5 -4.5s19.666 -7.5 27.999 -13.5s15 -13.5 20 -22.5s7.5 -19.5 7.5 -31.5
c0 -19.333 -5.16699 -35.166 -15.5 -47.499s-23.166 -22 -38.499 -29s-32 -11.667 -50 -14s-34.333 -3.5 -49 -3.5c-6 0 -13.167 0.5 -21.5 1.5s-16.666 2.33301 -24.999 4s-16.333 3.66699 -24 6s-14.5 4.5 -20.5 6.5l17 44c7.33301 -2.66699 17.833 -5.5 31.5 -8.5
s26.834 -4.5 39.501 -4.5c11.333 0 21.166 2.66699 29.499 8s12.5 14.666 12.5 27.999c0 10 -3.16699 18.5 -9.5 25.5s-14.5 10.5 -24.5 10.5c-5.33301 0 -10.333 -0.666992 -15 -2l-14 -4l-16 9l37 80c-50.667 0.666992 -97.167 8.5 -139.5 23.5
s-78.666 37.167 -108.999 66.5s-54 65.666 -71 108.999s-25.5 94 -25.5 152c0 52.667 8.66699 100.667 26 144s41.166 80.333 71.499 111s66.166 54.334 107.499 71.001s86.333 25 135 25c12.667 0 28.167 -1.5 46.5 -4.5s37 -7.33301 56 -13s37.167 -12.667 54.5 -21
s31.666 -17.833 42.999 -28.5l20 56h90v-272h-93c0 26 -3.5 50.5 -10.5 73.5s-17.5 43.167 -31.5 60.5s-31.667 31 -53 41s-46 15 -74 15c-56 0 -98.5 -20.667 -127.5 -62s-43.5 -106.666 -43.5 -195.999c0 -39.333 2.83301 -75 8.5 -107s15.167 -59.333 28.5 -82
s31.5 -40 54.5 -52s52.167 -18 87.5 -18c26 0 49.167 5 69.5 15s37.166 23.333 50.499 40s23.5 35.834 30.5 57.501s10.5 44.167 10.5 67.5h93z" />
    <glyph glyph-name="Egrave" unicode="&#xc8;" horiz-adv-x="722" 
d="M383 716l-118 69.001c-16 9.33301 -30.167 19.166 -42.5 29.499s-18.5 25.5 -18.5 45.5c0 15.333 5.83301 28 17.5 38s25.167 15 40.5 15c14 0 26 -2.5 36 -7.5s19.167 -11.5 27.5 -19.5s16 -16.833 23 -26.5l21.5 -29.5l85 -114h-72zM118 535.001
c0 26.667 -12.999 40 -38.999 40h-62v88h665v-254h-93c0 36 -3.66699 64.833 -11 86.5s-18.5 38.5 -33.5 50.5s-34 19.833 -57 23.5s-50.5 5.5 -82.5 5.5h-99v-191h31c29.333 0 49.833 6.33301 61.5 19s17.5 34.667 17.5 66v22h83v-302h-83v24c0 9.33301 -1 18.833 -3 28.5
s-5 18.5 -9 26.5s-9.16699 14.667 -15.5 20s-13.833 8 -22.5 8h-60v-208h122c26 0 49.167 2 69.5 6s37.166 12.333 50.499 25s23.5 31.167 30.5 55.5s10.5 56.5 10.5 96.5h93v-271h-664v88h61c26 0 39 13.333 39 40v407z" />
    <glyph glyph-name="Eacute" unicode="&#xc9;" horiz-adv-x="722" 
d="M285 716l85 113.999l21.5 29.5c7 9.66699 14.667 18.5 23 26.5s17.5 14.5 27.5 19.5s22 7.5 36 7.5c15.333 0 28.833 -5 40.5 -15s17.5 -22.667 17.5 -38c0 -20 -6.16699 -35.167 -18.5 -45.5s-26.5 -20.166 -42.5 -29.499l-118 -69h-72zM118 534.999
c0 26.667 -12.999 40 -38.999 40h-62v88h665v-254h-93c0 36 -3.66699 64.833 -11 86.5s-18.5 38.5 -33.5 50.5s-34 19.833 -57 23.5s-50.5 5.5 -82.5 5.5h-99v-191h31c29.333 0 49.833 6.33301 61.5 19s17.5 34.667 17.5 66v22h83v-302h-83v24c0 9.33301 -1 18.833 -3 28.5
s-5 18.5 -9 26.5s-9.16699 14.667 -15.5 20s-13.833 8 -22.5 8h-60v-208h122c26 0 49.167 2 69.5 6s37.166 12.333 50.499 25s23.5 31.167 30.5 55.5s10.5 56.5 10.5 96.5h93v-271h-664v88h61c26 0 39 13.333 39 40v407z" />
    <glyph glyph-name="Ecircumflex" unicode="&#xca;" horiz-adv-x="722" 
d="M264 716h-78l122 180h125l123 -180h-79l-106 92zM118 535c0 26.667 -12.999 40 -38.999 40h-62v88h665v-254h-93c0 36 -3.66699 64.833 -11 86.5s-18.5 38.5 -33.5 50.5s-34 19.833 -57 23.5s-50.5 5.5 -82.5 5.5h-99v-191h31c29.333 0 49.833 6.33301 61.5 19
s17.5 34.667 17.5 66v22h83v-302h-83v24c0 9.33301 -1 18.833 -3 28.5s-5 18.5 -9 26.5s-9.16699 14.667 -15.5 20s-13.833 8 -22.5 8h-60v-208h122c26 0 49.167 2 69.5 6s37.166 12.333 50.499 25s23.5 31.167 30.5 55.5s10.5 56.5 10.5 96.5h93v-271h-664v88h61
c26 0 39 13.333 39 40v407z" />
    <glyph glyph-name="Edieresis" unicode="&#xcb;" horiz-adv-x="722" 
d="M261 878c22 0 40.667 -7.83301 56 -23.5s23 -34.167 23 -55.5c0 -22 -7.66699 -40.667 -23 -56s-34 -23 -56 -23s-40.667 7.66699 -56 23s-23 34 -23 56c0 21.333 7.66699 39.833 23 55.5s34 23.5 56 23.5zM481 878c22 0 40.667 -7.83301 56 -23.5s23 -34.167 23 -55.5
c0 -22 -7.66699 -40.667 -23 -56s-34 -23 -56 -23s-40.667 7.66699 -56 23s-23 34 -23 56c0 21.333 7.66699 39.833 23 55.5s34 23.5 56 23.5zM118 535c0 26.667 -12.999 40 -38.999 40h-62v88h665v-254h-93c0 36 -3.66699 64.833 -11 86.5s-18.5 38.5 -33.5 50.5
s-34 19.833 -57 23.5s-50.5 5.5 -82.5 5.5h-99v-191h31c29.333 0 49.833 6.33301 61.5 19s17.5 34.667 17.5 66v22h83v-302h-83v24c0 9.33301 -1 18.833 -3 28.5s-5 18.5 -9 26.5s-9.16699 14.667 -15.5 20s-13.833 8 -22.5 8h-60v-208h122c26 0 49.167 2 69.5 6
s37.166 12.333 50.499 25s23.5 31.167 30.5 55.5s10.5 56.5 10.5 96.5h93v-271h-664v88h61c26 0 39 13.333 39 40v407z" />
    <glyph glyph-name="Igrave" unicode="&#xcc;" horiz-adv-x="444" 
d="M226 716l-118 69.001c-16 9.33301 -30.167 19.166 -42.5 29.499s-18.5 25.5 -18.5 45.5c0 15.333 5.83301 28 17.5 38s25.167 15 40.5 15c14 0 26 -2.5 36 -7.5s19.167 -11.5 27.5 -19.5s16 -16.833 23 -26.5l21.5 -29.5l85 -114h-72zM417 575.001h-61.999
c-12.667 0 -22.334 -2.16699 -29.001 -6.5s-10 -15.5 -10 -33.5v-407c0 -26.667 13 -40 39 -40h61v-88h-388v88h61c26 0 39 13.333 39 40v421c0 17.333 -13 26 -39 26h-62v88h390v-88z" />
    <glyph glyph-name="Iacute" unicode="&#xcd;" horiz-adv-x="444" 
d="M128 716l85 113.999l21.5 29.5c7 9.66699 14.667 18.5 23 26.5s17.5 14.5 27.5 19.5s22 7.5 36 7.5c15.333 0 28.833 -5 40.5 -15s17.5 -22.667 17.5 -38c0 -20 -6.16699 -35.167 -18.5 -45.5s-26.5 -20.166 -42.5 -29.499l-118 -69h-72zM417 574.999h-61.999
c-12.667 0 -22.334 -2.16699 -29.001 -6.5s-10 -15.5 -10 -33.5v-407c0 -26.667 13 -40 39 -40h61v-88h-388v88h61c26 0 39 13.333 39 40v421c0 17.333 -13 26 -39 26h-62v88h390v-88z" />
    <glyph glyph-name="Icircumflex" unicode="&#xce;" horiz-adv-x="444" 
d="M107 716h-78l122 180h125l123 -180h-79l-106 92zM417 575h-61.999c-12.667 0 -22.334 -2.16699 -29.001 -6.5s-10 -15.5 -10 -33.5v-407c0 -26.667 13 -40 39 -40h61v-88h-388v88h61c26 0 39 13.333 39 40v421c0 17.333 -13 26 -39 26h-62v88h390v-88z" />
    <glyph glyph-name="Idieresis" unicode="&#xcf;" horiz-adv-x="444" 
d="M104 878c22 0 40.667 -7.83301 56 -23.5s23 -34.167 23 -55.5c0 -22 -7.66699 -40.667 -23 -56s-34 -23 -56 -23s-40.667 7.66699 -56 23s-23 34 -23 56c0 21.333 7.66699 39.833 23 55.5s34 23.5 56 23.5zM324 878c22 0 40.667 -7.83301 56 -23.5s23 -34.167 23 -55.5
c0 -22 -7.66699 -40.667 -23 -56s-34 -23 -56 -23s-40.667 7.66699 -56 23s-23 34 -23 56c0 21.333 7.66699 39.833 23 55.5s34 23.5 56 23.5zM417 575h-61.999c-12.667 0 -22.334 -2.16699 -29.001 -6.5s-10 -15.5 -10 -33.5v-407c0 -26.667 13 -40 39 -40h61v-88h-388v88
h61c26 0 39 13.333 39 40v421c0 17.333 -13 26 -39 26h-62v88h390v-88z" />
    <glyph glyph-name="Eth" unicode="&#xd0;" horiz-adv-x="778" 
d="M416 300h-118v-212h46c32.667 0 61.167 3.5 85.5 10.5s44.333 19.5 60 37.5s27.334 42.833 35.001 74.5s11.5 72.167 11.5 121.5s-3.83301 89.833 -11.5 121.5s-19.334 56.5 -35.001 74.5s-35.667 30.333 -60 37s-52.833 10 -85.5 10h-46v-187h118v-88zM11 388h98.999
v147c0 26.667 -13 40 -39 40h-60v88h363c56.667 0 108 -6.33301 154 -19s85.333 -32.667 118 -60s57.834 -62.333 75.501 -105s26.5 -93.667 26.5 -153c0 -57.333 -8.66699 -106.5 -26 -147.5s-42.5 -74.667 -75.5 -101s-73 -45.833 -120 -58.5s-99.833 -19 -158.5 -19h-356
v88h59c26 0 39 13.333 39 40v172h-99v88z" />
    <glyph glyph-name="Ntilde" unicode="&#xd1;" horiz-adv-x="833" 
d="M616 877c-3.33301 -16 -8.16797 -32.665 -14.501 -49.998s-14.5 -33 -24.5 -47s-22.167 -25.667 -36.5 -35s-31.166 -14 -50.499 -14c-18 0 -35.333 2.66699 -52 8s-32.334 11.666 -47.001 18.999l-41 18c-12 5.33301 -22.667 8 -32 8
c-13.333 0 -23.833 -4.83301 -31.5 -14.5s-12.834 -20.834 -15.501 -33.501h-52c2 20 6.16699 38.667 12.5 56s15 32.666 26 45.999s24.333 23.833 40 31.5s33.834 11.5 54.501 11.5c13.333 0 27.333 -2.66699 42 -8s29.334 -11.333 44.001 -18s28.5 -12.667 41.5 -18
s24.167 -8 33.5 -8c13.333 0 23.833 4.83301 31.5 14.5s13.167 20.834 16.5 33.501h55zM601.998 206.002h2v329c0 26.667 -13 40 -39 40h-61v88h308v-88h-60c-26 0 -39 -13.333 -39 -40v-535h-202l-278 493h-2v-365c0 -26.667 13 -40 39 -40h61v-88h-309v88h61
c26 0 39 13.333 39 40v407c0 26.667 -13 40 -39 40h-62v88h322z" />
    <glyph glyph-name="Ograve" unicode="&#xd2;" horiz-adv-x="778" 
d="M402 716l-118 69.001c-16 9.33301 -30.167 19.166 -42.5 29.499s-18.5 25.5 -18.5 45.5c0 15.333 5.83301 28 17.5 38s25.167 15 40.5 15c14 0 26 -2.5 36 -7.5s19.167 -11.5 27.5 -19.5s16 -16.833 23 -26.5l21.5 -29.5l85 -114h-72zM389 590.001
c-50 0 -86.833 -21.167 -110.5 -63.5s-35.5 -107.5 -35.5 -195.5s11.833 -153 35.5 -195s60.5 -63 110.5 -63s86.833 21 110.5 63s35.5 107 35.5 195s-11.833 153.167 -35.5 195.5s-60.5 63.5 -110.5 63.5zM389 683.001c54.667 0 104.5 -8.16699 149.5 -24.5
s83.167 -39.666 114.5 -69.999s55.666 -67.333 72.999 -111s26 -92.5 26 -146.5s-8.66699 -102.667 -26 -146s-41.666 -80.166 -72.999 -110.499s-69.5 -53.666 -114.5 -69.999s-94.833 -24.5 -149.5 -24.5c-55.333 0 -105.333 8.16699 -150 24.5
s-82.667 39.666 -114 69.999s-55.666 67.166 -72.999 110.499s-26 92 -26 146s8.66699 102.833 26 146.5s41.666 80.667 72.999 111s69.333 53.666 114 69.999s94.667 24.5 150 24.5z" />
    <glyph glyph-name="Oacute" unicode="&#xd3;" horiz-adv-x="778" 
d="M304 716l85 113.999l21.5 29.5c7 9.66699 14.667 18.5 23 26.5s17.5 14.5 27.5 19.5s22 7.5 36 7.5c15.333 0 28.833 -5 40.5 -15s17.5 -22.667 17.5 -38c0 -20 -6.16699 -35.167 -18.5 -45.5s-26.5 -20.166 -42.5 -29.499l-118 -69h-72zM389 589.999
c-50 0 -86.833 -21.167 -110.5 -63.5s-35.5 -107.5 -35.5 -195.5s11.833 -153 35.5 -195s60.5 -63 110.5 -63s86.833 21 110.5 63s35.5 107 35.5 195s-11.833 153.167 -35.5 195.5s-60.5 63.5 -110.5 63.5zM389 682.999c54.667 0 104.5 -8.16699 149.5 -24.5
s83.167 -39.666 114.5 -69.999s55.666 -67.333 72.999 -111s26 -92.5 26 -146.5s-8.66699 -102.667 -26 -146s-41.666 -80.166 -72.999 -110.499s-69.5 -53.666 -114.5 -69.999s-94.833 -24.5 -149.5 -24.5c-55.333 0 -105.333 8.16699 -150 24.5
s-82.667 39.666 -114 69.999s-55.666 67.166 -72.999 110.499s-26 92 -26 146s8.66699 102.833 26 146.5s41.666 80.667 72.999 111s69.333 53.666 114 69.999s94.667 24.5 150 24.5z" />
    <glyph glyph-name="Ocircumflex" unicode="&#xd4;" horiz-adv-x="778" 
d="M283 716h-78l122 180h125l123 -180h-79l-106 92zM389 590c-50 0 -86.833 -21.167 -110.5 -63.5s-35.5 -107.5 -35.5 -195.5s11.833 -153 35.5 -195s60.5 -63 110.5 -63s86.833 21 110.5 63s35.5 107 35.5 195s-11.833 153.167 -35.5 195.5s-60.5 63.5 -110.5 63.5z
M389 683c54.667 0 104.5 -8.16699 149.5 -24.5s83.167 -39.666 114.5 -69.999s55.666 -67.333 72.999 -111s26 -92.5 26 -146.5s-8.66699 -102.667 -26 -146s-41.666 -80.166 -72.999 -110.499s-69.5 -53.666 -114.5 -69.999s-94.833 -24.5 -149.5 -24.5
c-55.333 0 -105.333 8.16699 -150 24.5s-82.667 39.666 -114 69.999s-55.666 67.166 -72.999 110.499s-26 92 -26 146s8.66699 102.833 26 146.5s41.666 80.667 72.999 111s69.333 53.666 114 69.999s94.667 24.5 150 24.5z" />
    <glyph glyph-name="Otilde" unicode="&#xd5;" horiz-adv-x="778" 
d="M589 877c-3.33301 -16 -8.16797 -32.665 -14.501 -49.998s-14.5 -33 -24.5 -47s-22.167 -25.667 -36.5 -35s-31.166 -14 -50.499 -14c-18 0 -35.333 2.66699 -52 8s-32.334 11.666 -47.001 18.999l-41 18c-12 5.33301 -22.667 8 -32 8
c-13.333 0 -23.833 -4.83301 -31.5 -14.5s-12.834 -20.834 -15.501 -33.501h-52c2 20 6.16699 38.667 12.5 56s15 32.666 26 45.999s24.333 23.833 40 31.5s33.834 11.5 54.501 11.5c13.333 0 27.333 -2.66699 42 -8s29.334 -11.333 44.001 -18s28.5 -12.667 41.5 -18
s24.167 -8 33.5 -8c13.333 0 23.833 4.83301 31.5 14.5s13.167 20.834 16.5 33.501h55zM388.998 590.002c-50 0 -86.833 -21.167 -110.5 -63.5s-35.5 -107.5 -35.5 -195.5s11.833 -153 35.5 -195s60.5 -63 110.5 -63s86.833 21 110.5 63s35.5 107 35.5 195
s-11.833 153.167 -35.5 195.5s-60.5 63.5 -110.5 63.5zM388.998 683.002c54.667 0 104.5 -8.16699 149.5 -24.5s83.167 -39.666 114.5 -69.999s55.666 -67.333 72.999 -111s26 -92.5 26 -146.5s-8.66699 -102.667 -26 -146s-41.666 -80.166 -72.999 -110.499
s-69.5 -53.666 -114.5 -69.999s-94.833 -24.5 -149.5 -24.5c-55.333 0 -105.333 8.16699 -150 24.5s-82.667 39.666 -114 69.999s-55.666 67.166 -72.999 110.499s-26 92 -26 146s8.66699 102.833 26 146.5s41.666 80.667 72.999 111s69.333 53.666 114 69.999
s94.667 24.5 150 24.5z" />
    <glyph glyph-name="Odieresis" unicode="&#xd6;" horiz-adv-x="778" 
d="M500 878c22 0 40.667 -7.83301 56 -23.5s23 -34.167 23 -55.5c0 -22 -7.66699 -40.667 -23 -56s-34 -23 -56 -23s-40.667 7.66699 -56 23s-23 34 -23 56c0 21.333 7.66699 39.833 23 55.5s34 23.5 56 23.5zM280 878c22 0 40.667 -7.83301 56 -23.5s23 -34.167 23 -55.5
c0 -22 -7.66699 -40.667 -23 -56s-34 -23 -56 -23s-40.667 7.66699 -56 23s-23 34 -23 56c0 21.333 7.66699 39.833 23 55.5s34 23.5 56 23.5zM389 590c-50 0 -86.833 -21.167 -110.5 -63.5s-35.5 -107.5 -35.5 -195.5s11.833 -153 35.5 -195s60.5 -63 110.5 -63
s86.833 21 110.5 63s35.5 107 35.5 195s-11.833 153.167 -35.5 195.5s-60.5 63.5 -110.5 63.5zM389 683c54.667 0 104.5 -8.16699 149.5 -24.5s83.167 -39.666 114.5 -69.999s55.666 -67.333 72.999 -111s26 -92.5 26 -146.5s-8.66699 -102.667 -26 -146
s-41.666 -80.166 -72.999 -110.499s-69.5 -53.666 -114.5 -69.999s-94.833 -24.5 -149.5 -24.5c-55.333 0 -105.333 8.16699 -150 24.5s-82.667 39.666 -114 69.999s-55.666 67.166 -72.999 110.499s-26 92 -26 146s8.66699 102.833 26 146.5s41.666 80.667 72.999 111
s69.333 53.666 114 69.999s94.667 24.5 150 24.5z" />
    <glyph glyph-name="multiply" unicode="&#xd7;" horiz-adv-x="600" 
d="M73 384l75 76l152 -150l151 149l76 -75l-152 -150l152 -150l-75 -75l-152 150l-152 -150l-75 75l152 150z" />
    <glyph glyph-name="Oslash" unicode="&#xd8;" horiz-adv-x="778" 
d="M509 504c-22 57.333 -62 85.999 -120 85.999c-50 0 -86.833 -21.167 -110.5 -63.5s-35.5 -107.5 -35.5 -195.5c0 -16.667 0.5 -32.167 1.5 -46.5s2.16699 -28.166 3.5 -41.499zM268 159.999c22.667 -58 63 -87 121 -87c50 0 86.833 21 110.5 63s35.5 107 35.5 195
c0 34 -2 64 -6 90zM76 -33.001l-54 49.999l81 81c-25.333 30 -44.5 64.333 -57.5 103s-19.5 82 -19.5 130c0 54 8.66699 102.833 26 146.5s41.666 80.667 72.999 111s69.333 53.666 114 69.999s94.667 24.5 150 24.5c46 0 88.333 -5.83301 127 -17.5
s73.334 -28.5 104.001 -50.5l77 77l52 -51l-75 -75c25.333 -30 44.666 -64.667 57.999 -104s20 -83 20 -131c0 -54 -8.66699 -102.667 -26 -146s-41.666 -80.166 -72.999 -110.499s-69.5 -53.666 -114.5 -69.999s-94.833 -24.5 -149.5 -24.5
c-47.333 0 -90.5 5.83301 -129.5 17.5s-73.5 28.5 -103.5 50.5z" />
    <glyph glyph-name="Ugrave" unicode="&#xd9;" horiz-adv-x="778" 
d="M407 716l-118 69.001c-16 9.33301 -30.167 19.166 -42.5 29.499s-18.5 25.5 -18.5 45.5c0 15.333 5.83301 28 17.5 38s25.167 15 40.5 15c14 0 26 -2.5 36 -7.5s19.167 -11.5 27.5 -19.5s16 -16.833 23 -26.5l21.5 -29.5l85 -114h-72zM15 663.001h390v-88h-62
c-26 0 -39 -13.333 -39 -40v-353c0 -32 9.16699 -58.167 27.5 -78.5s47.833 -30.5 88.5 -30.5c28.667 0 52 3.33301 70 10s31.833 17 41.5 31s16.167 32 19.5 54s5 48.667 5 80v287c0 26.667 -13 40 -39 40h-59v88h305v-88h-59c-26 0 -39 -13.333 -39 -40v-321
c0 -74 -21 -131.5 -63 -172.5s-109.333 -61.5 -202 -61.5c-44 0 -83.5 3.83301 -118.5 11.5s-64.833 20.167 -89.5 37.5s-43.5 40.333 -56.5 69s-19.5 64 -19.5 106v331c0 26.667 -13 40 -39 40h-62v88z" />
    <glyph glyph-name="Uacute" unicode="&#xda;" horiz-adv-x="778" 
d="M309 716l85 113.999l21.5 29.5c7 9.66699 14.667 18.5 23 26.5s17.5 14.5 27.5 19.5s22 7.5 36 7.5c15.333 0 28.833 -5 40.5 -15s17.5 -22.667 17.5 -38c0 -20 -6.16699 -35.167 -18.5 -45.5s-26.5 -20.166 -42.5 -29.499l-118 -69h-72zM15 662.999h390v-88h-62
c-26 0 -39 -13.333 -39 -40v-353c0 -32 9.16699 -58.167 27.5 -78.5s47.833 -30.5 88.5 -30.5c28.667 0 52 3.33301 70 10s31.833 17 41.5 31s16.167 32 19.5 54s5 48.667 5 80v287c0 26.667 -13 40 -39 40h-59v88h305v-88h-59c-26 0 -39 -13.333 -39 -40v-321
c0 -74 -21 -131.5 -63 -172.5s-109.333 -61.5 -202 -61.5c-44 0 -83.5 3.83301 -118.5 11.5s-64.833 20.167 -89.5 37.5s-43.5 40.333 -56.5 69s-19.5 64 -19.5 106v331c0 26.667 -13 40 -39 40h-62v88z" />
    <glyph glyph-name="Ucircumflex" unicode="&#xdb;" horiz-adv-x="778" 
d="M288 716h-78l122 180h125l123 -180h-79l-106 92zM15 663h390v-88h-62c-26 0 -39 -13.333 -39 -40v-353c0 -32 9.16699 -58.167 27.5 -78.5s47.833 -30.5 88.5 -30.5c28.667 0 52 3.33301 70 10s31.833 17 41.5 31s16.167 32 19.5 54s5 48.667 5 80v287
c0 26.667 -13 40 -39 40h-59v88h305v-88h-59c-26 0 -39 -13.333 -39 -40v-321c0 -74 -21 -131.5 -63 -172.5s-109.333 -61.5 -202 -61.5c-44 0 -83.5 3.83301 -118.5 11.5s-64.833 20.167 -89.5 37.5s-43.5 40.333 -56.5 69s-19.5 64 -19.5 106v331c0 26.667 -13 40 -39 40
h-62v88z" />
    <glyph glyph-name="Udieresis" unicode="&#xdc;" horiz-adv-x="778" 
d="M285 878c22 0 40.667 -7.83301 56 -23.5s23 -34.167 23 -55.5c0 -22 -7.66699 -40.667 -23 -56s-34 -23 -56 -23s-40.667 7.66699 -56 23s-23 34 -23 56c0 21.333 7.66699 39.833 23 55.5s34 23.5 56 23.5zM505 878c22 0 40.667 -7.83301 56 -23.5s23 -34.167 23 -55.5
c0 -22 -7.66699 -40.667 -23 -56s-34 -23 -56 -23s-40.667 7.66699 -56 23s-23 34 -23 56c0 21.333 7.66699 39.833 23 55.5s34 23.5 56 23.5zM15 663h390v-88h-62c-26 0 -39 -13.333 -39 -40v-353c0 -32 9.16699 -58.167 27.5 -78.5s47.833 -30.5 88.5 -30.5
c28.667 0 52 3.33301 70 10s31.833 17 41.5 31s16.167 32 19.5 54s5 48.667 5 80v287c0 26.667 -13 40 -39 40h-59v88h305v-88h-59c-26 0 -39 -13.333 -39 -40v-321c0 -74 -21 -131.5 -63 -172.5s-109.333 -61.5 -202 -61.5c-44 0 -83.5 3.83301 -118.5 11.5
s-64.833 20.167 -89.5 37.5s-43.5 40.333 -56.5 69s-19.5 64 -19.5 106v331c0 26.667 -13 40 -39 40h-62v88z" />
    <glyph glyph-name="Yacute" unicode="&#xdd;" horiz-adv-x="778" 
d="M327 716l85 113.999l21.5 29.5c7 9.66699 14.667 18.5 23 26.5s17.5 14.5 27.5 19.5s22 7.5 36 7.5c15.333 0 28.833 -5 40.5 -15s17.5 -22.667 17.5 -38c0 -20 -6.16699 -35.167 -18.5 -45.5s-26.5 -20.166 -42.5 -29.499l-118 -69h-72zM404 662.999l-0.00195312 -88
h-41c-20.667 0 -31 -5.33301 -31 -16c0 -5.33301 1.83301 -11.333 5.5 -18s6.83398 -12 9.50098 -16l88 -137l89 137c2.66699 4 5.83398 9.33301 9.50098 16s5.5 12.667 5.5 18c0 10.667 -10.333 16 -31 16h-41v88h288v-88h-21c-18 0 -32.333 -2 -43 -6
s-19.334 -11 -26.001 -21l-178 -281v-139c0 -26.667 13 -40 39 -40h68v-88h-400v88h66c26 0 39 13.333 39 40v139l-158 252c-6.66699 10.667 -13 19.5 -19 26.5s-12.5 12.667 -19.5 17s-15.167 7.5 -24.5 9.5s-20.666 3 -33.999 3h-21v88h381z" />
    <glyph glyph-name="Thorn" unicode="&#xde;" horiz-adv-x="722" 
d="M306 249h54c54 0 92.333 8.83301 115 26.5s34 42.167 34 73.5s-11.333 56 -34 74s-61 27 -115 27h-54v-201zM306 161v-160.998h-288v88h61c26 0 39 13.333 39 40v407c0 26.667 -13 40 -39 40h-62v88h289v-124h94c100.667 0 175.334 -14.333 224.001 -43
s73 -77.334 73 -146.001s-24.333 -117.334 -73 -146.001s-123.334 -43 -224.001 -43h-94z" />
    <glyph glyph-name="germandbls" unicode="&#xdf;" 
d="M83 471c0 38 5.83301 70.501 17.5 97.501s28.334 49 50.001 66s47.334 29.333 77.001 37s62.5 11.5 98.5 11.5c24 0 49.5 -2.16699 76.5 -6.5s51.833 -12 74.5 -23s41.5 -26.167 56.5 -45.5s22.5 -44 22.5 -74c0 -21.333 -3.66699 -39.333 -11 -54s-17.333 -27 -30 -37
s-27.334 -17.833 -44.001 -23.5s-34.334 -9.83398 -53.001 -12.501v-2c62.667 -11.333 107.167 -35.333 133.5 -72s39.5 -83.334 39.5 -140.001c0 -30 -4.66699 -57.667 -14 -83s-22 -47.166 -38 -65.499s-34.5 -32.833 -55.5 -43.5s-43.167 -16 -66.5 -16
c-25.333 0 -46.333 3 -63 9s-30 14.167 -40 24.5s-17.167 22.666 -21.5 36.999s-6.5 29.833 -6.5 46.5v66h73v-60c0 -10.667 1.16699 -20.5 3.5 -29.5s10.166 -13.5 23.499 -13.5c11.333 0 18.833 11 22.5 33s5.5 59.667 5.5 113c0 50.667 -7.83301 87.834 -23.5 111.501
s-45.167 35.5 -88.5 35.5v80c32 0 54.667 6.16699 68 18.5s20 34.5 20 66.5c0 25.333 -5.33301 44.833 -16 58.5s-29.667 20.5 -57 20.5c-26 0 -43.833 -8 -53.5 -24s-14.5 -35.333 -14.5 -58v-520h-230v80h28c14.667 0 24.334 3.66699 29.001 11s7 18 7 32v348z" />
    <glyph glyph-name="agrave" unicode="&#xe0;" 
d="M324 231c-12 -7.33301 -25.499 -13.502 -40.499 -18.502s-29 -10.667 -42 -17s-24 -14.166 -33 -23.499s-13.5 -21.666 -13.5 -36.999c0 -20.667 5.66699 -35.167 17 -43.5s24.666 -12.5 39.999 -12.5c14 0 25.667 2.33301 35 7s16.833 11 22.5 19s9.5 17 11.5 27
s3 20.333 3 31v68zM290.001 542.998l-118 69.001c-16 9.33301 -30.167 19.166 -42.5 29.499s-18.5 25.5 -18.5 45.5c0 15.333 5.83301 28 17.5 38s25.167 15 40.5 15c14 0 26 -2.5 36 -7.5s19.167 -11.5 27.5 -19.5s16 -16.833 23 -26.5l21.5 -29.5l85 -114h-72z
M597.001 170.999l0.00292969 -55c0 -25.333 -2.5 -46.333 -7.5 -63s-13.333 -30 -25 -40s-27 -17.167 -46 -21.5s-42.5 -6.5 -70.5 -6.5c-24 0 -46.5 5.83301 -67.5 17.5s-35.5 29.5 -43.5 53.5c-20.667 -24.667 -43.334 -42.667 -68.001 -54s-53.334 -17 -86.001 -17
c-47.333 0 -84.833 10.333 -112.5 31s-41.5 56.667 -41.5 108c0 31.333 7.33301 55.333 22 72s33 29 55 37s45.833 13.667 71.5 17s49.5 7.5 71.5 12.5s40.333 12.5 55 22.5s22 26 22 48c0 32.667 -9.33301 55.5 -28 68.5s-41.667 19.5 -69 19.5
c-13.333 0 -26.833 -1.33301 -40.5 -4s-26.5 -7.66699 -38.5 -15v-2c15.333 -2 29.666 -7.33301 42.999 -16s20 -21.667 20 -39c0 -22 -8.16699 -38 -24.5 -48s-34.5 -15 -54.5 -15c-23.333 0 -43.666 6.5 -60.999 19.5s-26 31.167 -26 54.5c0 28 8.33301 50.333 25 67
s37 29.5 61 38.5s49.333 14.833 76 17.5s50 4 70 4c34 0 64.167 -2.5 90.5 -7.5s48.5 -14 66.5 -27s31.5 -31 40.5 -54s13.5 -52.833 13.5 -89.5v-186c0 -14.667 1.16699 -25 3.5 -31s7.5 -9 15.5 -9c11.333 0 19.666 4.5 24.999 13.5s8 27.5 8 55.5v23h55z" />
    <glyph glyph-name="aacute" unicode="&#xe1;" 
d="M324 231c-12 -7.33301 -25.499 -13.502 -40.499 -18.502s-29 -10.667 -42 -17s-24 -14.166 -33 -23.499s-13.5 -21.666 -13.5 -36.999c0 -20.667 5.66699 -35.167 17 -43.5s24.666 -12.5 39.999 -12.5c14 0 25.667 2.33301 35 7s16.833 11 22.5 19s9.5 17 11.5 27
s3 20.333 3 31v68zM192.001 542.998l85 113.999l21.5 29.5c7 9.66699 14.667 18.5 23 26.5s17.5 14.5 27.5 19.5s22 7.5 36 7.5c15.333 0 28.833 -5 40.5 -15s17.5 -22.667 17.5 -38c0 -20 -6.16699 -35.167 -18.5 -45.5s-26.5 -20.166 -42.5 -29.499l-118 -69h-72z
M597.001 170.997l0.00292969 -55c0 -25.333 -2.5 -46.333 -7.5 -63s-13.333 -30 -25 -40s-27 -17.167 -46 -21.5s-42.5 -6.5 -70.5 -6.5c-24 0 -46.5 5.83301 -67.5 17.5s-35.5 29.5 -43.5 53.5c-20.667 -24.667 -43.334 -42.667 -68.001 -54s-53.334 -17 -86.001 -17
c-47.333 0 -84.833 10.333 -112.5 31s-41.5 56.667 -41.5 108c0 31.333 7.33301 55.333 22 72s33 29 55 37s45.833 13.667 71.5 17s49.5 7.5 71.5 12.5s40.333 12.5 55 22.5s22 26 22 48c0 32.667 -9.33301 55.5 -28 68.5s-41.667 19.5 -69 19.5
c-13.333 0 -26.833 -1.33301 -40.5 -4s-26.5 -7.66699 -38.5 -15v-2c15.333 -2 29.666 -7.33301 42.999 -16s20 -21.667 20 -39c0 -22 -8.16699 -38 -24.5 -48s-34.5 -15 -54.5 -15c-23.333 0 -43.666 6.5 -60.999 19.5s-26 31.167 -26 54.5c0 28 8.33301 50.333 25 67
s37 29.5 61 38.5s49.333 14.833 76 17.5s50 4 70 4c34 0 64.167 -2.5 90.5 -7.5s48.5 -14 66.5 -27s31.5 -31 40.5 -54s13.5 -52.833 13.5 -89.5v-186c0 -14.667 1.16699 -25 3.5 -31s7.5 -9 15.5 -9c11.333 0 19.666 4.5 24.999 13.5s8 27.5 8 55.5v23h55z" />
    <glyph glyph-name="acircumflex" unicode="&#xe2;" 
d="M324 231c-12 -7.33301 -25.499 -13.502 -40.499 -18.502s-29 -10.667 -42 -17s-24 -14.166 -33 -23.499s-13.5 -21.666 -13.5 -36.999c0 -20.667 5.66699 -35.167 17 -43.5s24.666 -12.5 39.999 -12.5c14 0 25.667 2.33301 35 7s16.833 11 22.5 19s9.5 17 11.5 27
s3 20.333 3 31v68zM171.001 542.998h-78l122 180h125l123 -180h-79l-106 92zM597.001 170.998l0.00292969 -55c0 -25.333 -2.5 -46.333 -7.5 -63s-13.333 -30 -25 -40s-27 -17.167 -46 -21.5s-42.5 -6.5 -70.5 -6.5c-24 0 -46.5 5.83301 -67.5 17.5s-35.5 29.5 -43.5 53.5
c-20.667 -24.667 -43.334 -42.667 -68.001 -54s-53.334 -17 -86.001 -17c-47.333 0 -84.833 10.333 -112.5 31s-41.5 56.667 -41.5 108c0 31.333 7.33301 55.333 22 72s33 29 55 37s45.833 13.667 71.5 17s49.5 7.5 71.5 12.5s40.333 12.5 55 22.5s22 26 22 48
c0 32.667 -9.33301 55.5 -28 68.5s-41.667 19.5 -69 19.5c-13.333 0 -26.833 -1.33301 -40.5 -4s-26.5 -7.66699 -38.5 -15v-2c15.333 -2 29.666 -7.33301 42.999 -16s20 -21.667 20 -39c0 -22 -8.16699 -38 -24.5 -48s-34.5 -15 -54.5 -15
c-23.333 0 -43.666 6.5 -60.999 19.5s-26 31.167 -26 54.5c0 28 8.33301 50.333 25 67s37 29.5 61 38.5s49.333 14.833 76 17.5s50 4 70 4c34 0 64.167 -2.5 90.5 -7.5s48.5 -14 66.5 -27s31.5 -31 40.5 -54s13.5 -52.833 13.5 -89.5v-186c0 -14.667 1.16699 -25 3.5 -31
s7.5 -9 15.5 -9c11.333 0 19.666 4.5 24.999 13.5s8 27.5 8 55.5v23h55z" />
    <glyph glyph-name="atilde" unicode="&#xe3;" 
d="M324 231c-12 -7.33301 -25.499 -13.502 -40.499 -18.502s-29 -10.667 -42 -17s-24 -14.166 -33 -23.499s-13.5 -21.666 -13.5 -36.999c0 -20.667 5.66699 -35.167 17 -43.5s24.666 -12.5 39.999 -12.5c14 0 25.667 2.33301 35 7s16.833 11 22.5 19s9.5 17 11.5 27
s3 20.333 3 31v68zM477.001 703.998c-3.33301 -16 -8.16797 -32.665 -14.501 -49.998s-14.5 -33 -24.5 -47s-22.167 -25.667 -36.5 -35s-31.166 -14 -50.499 -14c-18 0 -35.333 2.66699 -52 8s-32.334 11.666 -47.001 18.999l-41 18c-12 5.33301 -22.667 8 -32 8
c-13.333 0 -23.833 -4.83301 -31.5 -14.5s-12.834 -20.834 -15.501 -33.501h-52c2 20 6.16699 38.667 12.5 56s15 32.666 26 45.999s24.333 23.833 40 31.5s33.834 11.5 54.501 11.5c13.333 0 27.333 -2.66699 42 -8s29.334 -11.333 44.001 -18s28.5 -12.667 41.5 -18
s24.167 -8 33.5 -8c13.333 0 23.833 4.83301 31.5 14.5s13.167 20.834 16.5 33.501h55zM596.999 171l0.00292969 -55c0 -25.333 -2.5 -46.333 -7.5 -63s-13.333 -30 -25 -40s-27 -17.167 -46 -21.5s-42.5 -6.5 -70.5 -6.5c-24 0 -46.5 5.83301 -67.5 17.5
s-35.5 29.5 -43.5 53.5c-20.667 -24.667 -43.334 -42.667 -68.001 -54s-53.334 -17 -86.001 -17c-47.333 0 -84.833 10.333 -112.5 31s-41.5 56.667 -41.5 108c0 31.333 7.33301 55.333 22 72s33 29 55 37s45.833 13.667 71.5 17s49.5 7.5 71.5 12.5s40.333 12.5 55 22.5
s22 26 22 48c0 32.667 -9.33301 55.5 -28 68.5s-41.667 19.5 -69 19.5c-13.333 0 -26.833 -1.33301 -40.5 -4s-26.5 -7.66699 -38.5 -15v-2c15.333 -2 29.666 -7.33301 42.999 -16s20 -21.667 20 -39c0 -22 -8.16699 -38 -24.5 -48s-34.5 -15 -54.5 -15
c-23.333 0 -43.666 6.5 -60.999 19.5s-26 31.167 -26 54.5c0 28 8.33301 50.333 25 67s37 29.5 61 38.5s49.333 14.833 76 17.5s50 4 70 4c34 0 64.167 -2.5 90.5 -7.5s48.5 -14 66.5 -27s31.5 -31 40.5 -54s13.5 -52.833 13.5 -89.5v-186c0 -14.667 1.16699 -25 3.5 -31
s7.5 -9 15.5 -9c11.333 0 19.666 4.5 24.999 13.5s8 27.5 8 55.5v23h55z" />
    <glyph glyph-name="adieresis" unicode="&#xe4;" 
d="M324 231c-12 -7.33301 -25.499 -13.502 -40.499 -18.502s-29 -10.667 -42 -17s-24 -14.166 -33 -23.499s-13.5 -21.666 -13.5 -36.999c0 -20.667 5.66699 -35.167 17 -43.5s24.666 -12.5 39.999 -12.5c14 0 25.667 2.33301 35 7s16.833 11 22.5 19s9.5 17 11.5 27
s3 20.333 3 31v68zM168.001 704.998c22 0 40.667 -7.83301 56 -23.5s23 -34.167 23 -55.5c0 -22 -7.66699 -40.667 -23 -56s-34 -23 -56 -23s-40.667 7.66699 -56 23s-23 34 -23 56c0 21.333 7.66699 39.833 23 55.5s34 23.5 56 23.5zM388.001 704.998
c22 0 40.667 -7.83301 56 -23.5s23 -34.167 23 -55.5c0 -22 -7.66699 -40.667 -23 -56s-34 -23 -56 -23s-40.667 7.66699 -56 23s-23 34 -23 56c0 21.333 7.66699 39.833 23 55.5s34 23.5 56 23.5zM597.001 170.998l0.00292969 -55c0 -25.333 -2.5 -46.333 -7.5 -63
s-13.333 -30 -25 -40s-27 -17.167 -46 -21.5s-42.5 -6.5 -70.5 -6.5c-24 0 -46.5 5.83301 -67.5 17.5s-35.5 29.5 -43.5 53.5c-20.667 -24.667 -43.334 -42.667 -68.001 -54s-53.334 -17 -86.001 -17c-47.333 0 -84.833 10.333 -112.5 31s-41.5 56.667 -41.5 108
c0 31.333 7.33301 55.333 22 72s33 29 55 37s45.833 13.667 71.5 17s49.5 7.5 71.5 12.5s40.333 12.5 55 22.5s22 26 22 48c0 32.667 -9.33301 55.5 -28 68.5s-41.667 19.5 -69 19.5c-13.333 0 -26.833 -1.33301 -40.5 -4s-26.5 -7.66699 -38.5 -15v-2
c15.333 -2 29.666 -7.33301 42.999 -16s20 -21.667 20 -39c0 -22 -8.16699 -38 -24.5 -48s-34.5 -15 -54.5 -15c-23.333 0 -43.666 6.5 -60.999 19.5s-26 31.167 -26 54.5c0 28 8.33301 50.333 25 67s37 29.5 61 38.5s49.333 14.833 76 17.5s50 4 70 4
c34 0 64.167 -2.5 90.5 -7.5s48.5 -14 66.5 -27s31.5 -31 40.5 -54s13.5 -52.833 13.5 -89.5v-186c0 -14.667 1.16699 -25 3.5 -31s7.5 -9 15.5 -9c11.333 0 19.666 4.5 24.999 13.5s8 27.5 8 55.5v23h55z" />
    <glyph glyph-name="aring" unicode="&#xe5;" 
d="M277 707c-14.667 0 -27.167 -5.16699 -37.5 -15.5s-15.5 -22.5 -15.5 -36.5c0 -14.667 5.16699 -27 15.5 -37s22.833 -15 37.5 -15c14 0 26.333 5 37 15s16 22.333 16 37c0 14 -5.33301 26.167 -16 36.5s-23 15.5 -37 15.5zM324 231
c-12 -7.33301 -25.499 -13.502 -40.499 -18.502s-29 -10.667 -42 -17s-24 -14.166 -33 -23.499s-13.5 -21.666 -13.5 -36.999c0 -20.667 5.66699 -35.167 17 -43.5s24.666 -12.5 39.999 -12.5c14 0 25.667 2.33301 35 7s16.833 11 22.5 19s9.5 17 11.5 27s3 20.333 3 31v68z
M277.001 766.998c15.333 0 29.833 -3 43.5 -9s25.667 -14 36 -24s18.5 -21.833 24.5 -35.5s9 -28.167 9 -43.5s-3 -29.833 -9 -43.5s-14.167 -25.5 -24.5 -35.5s-22.333 -18 -36 -24s-28.167 -9 -43.5 -9s-29.833 3 -43.5 9s-25.667 14 -36 24s-18.5 21.833 -24.5 35.5
s-9 28.167 -9 43.5s3 29.833 9 43.5s14.167 25.5 24.5 35.5s22.333 18 36 24s28.167 9 43.5 9zM597.001 170.998l0.00292969 -55c0 -25.333 -2.5 -46.333 -7.5 -63s-13.333 -30 -25 -40s-27 -17.167 -46 -21.5s-42.5 -6.5 -70.5 -6.5c-24 0 -46.5 5.83301 -67.5 17.5
s-35.5 29.5 -43.5 53.5c-20.667 -24.667 -43.334 -42.667 -68.001 -54s-53.334 -17 -86.001 -17c-47.333 0 -84.833 10.333 -112.5 31s-41.5 56.667 -41.5 108c0 31.333 7.33301 55.333 22 72s33 29 55 37s45.833 13.667 71.5 17s49.5 7.5 71.5 12.5s40.333 12.5 55 22.5
s22 26 22 48c0 32.667 -9.33301 55.5 -28 68.5s-41.667 19.5 -69 19.5c-13.333 0 -26.833 -1.33301 -40.5 -4s-26.5 -7.66699 -38.5 -15v-2c15.333 -2 29.666 -7.33301 42.999 -16s20 -21.667 20 -39c0 -22 -8.16699 -38 -24.5 -48s-34.5 -15 -54.5 -15
c-23.333 0 -43.666 6.5 -60.999 19.5s-26 31.167 -26 54.5c0 28 8.33301 50.333 25 67s37 29.5 61 38.5s49.333 14.833 76 17.5s50 4 70 4c34 0 64.167 -2.5 90.5 -7.5s48.5 -14 66.5 -27s31.5 -31 40.5 -54s13.5 -52.833 13.5 -89.5v-186c0 -14.667 1.16699 -25 3.5 -31
s7.5 -9 15.5 -9c11.333 0 19.666 4.5 24.999 13.5s8 27.5 8 55.5v23h55z" />
    <glyph glyph-name="ae" unicode="&#xe6;" horiz-adv-x="833" 
d="M318 231l-50.9961 -23c-22.667 -10 -41.334 -21.5 -56.001 -34.5s-22 -27.167 -22 -42.5c0 -18.667 5.66699 -32 17 -40s24.666 -12 39.999 -12c14 0 25.667 2.33301 35 7s16.666 11 21.999 19s9.16602 17 11.499 27s3.5 20.333 3.5 31v68zM633.004 291v26
c0 25.333 -6.5 46 -19.5 62s-31.5 24 -55.5 24c-24.667 0 -43.5 -8 -56.5 -24s-19.5 -36.667 -19.5 -62v-26h151zM482.004 211c0 -46.667 9.16699 -80.334 27.5 -101.001s41.166 -31 68.499 -31c29.333 0 52.333 6 69 18s27.334 32 32.001 60h116
c-4 -30 -13.167 -55.833 -27.5 -77.5s-31.833 -39.5 -52.5 -53.5s-43.667 -24.333 -69 -31s-51.333 -10 -78 -10c-19.333 0 -39.166 1.16699 -59.499 3.5s-39.666 6.83301 -57.999 13.5s-35 15.5 -50 26.5s-26.833 25.5 -35.5 43.5
c-27.333 -28.667 -55.5 -50.334 -84.5 -65.001s-63.5 -22 -103.5 -22c-47.333 0 -84.833 10.5 -112.5 31.5s-41.5 57.167 -41.5 108.5c0 32 7.5 56.333 22.5 73s34 29.167 57 37.5s47.667 14 74 17s51 7.16699 74 12.5s42 13.5 57 24.5s22.5 28.167 22.5 51.5
c0 12 -3 23 -9 33s-14 18.5 -24 25.5s-21.333 12.333 -34 16s-26 5.5 -40 5.5c-13.333 0 -26.833 -1 -40.5 -3s-26.5 -6.66699 -38.5 -14v-2c15.333 -2.66699 29.666 -8.33398 42.999 -17.001s20 -21.667 20 -39c0 -22 -8.16699 -38 -24.5 -48s-34.5 -15 -54.5 -15
c-22 0 -42 6 -60 18s-27 30.667 -27 56c0 28 8.33301 50.5 25 67.5s37 29.833 61 38.5s49.333 14.334 76 17.001s50 4 70 4s43.5 -3.5 70.5 -10.5s53.5 -17.833 79.5 -32.5c8 6.66699 17.333 12.667 28 18s21.834 9.83301 33.501 13.5s23 6.33398 34 8.00098
s20.833 2.5 29.5 2.5c50 0 91.667 -6.83301 125 -20.5s60.166 -32.667 80.499 -57s34.666 -53.166 42.999 -86.499s12.5 -69.333 12.5 -108h-327z" />
    <glyph glyph-name="ccedilla" unicode="&#xe7;" horiz-adv-x="500" 
d="M477 162c-1.33301 -30.667 -7.00586 -56.834 -17.0059 -78.501s-23.667 -39.667 -41 -54s-37.5 -25 -60.5 -32s-47.5 -10.833 -73.5 -11.5l-21 -48c7.33301 2 14.333 3.33301 21 4s13.667 1 21 1c10.667 0 21.167 -1.5 31.5 -4.5s19.666 -7.5 27.999 -13.5
s15 -13.5 20 -22.5s7.5 -19.5 7.5 -31.5c0 -19.333 -5.16699 -35.166 -15.5 -47.499s-23.166 -22 -38.499 -29s-32 -11.667 -50 -14s-34.333 -3.5 -49 -3.5c-6 0 -13.167 0.5 -21.5 1.5s-16.666 2.33301 -24.999 4s-16.333 3.66699 -24 6s-14.5 4.5 -20.5 6.5l17 44
c7.33301 -2.66699 17.833 -5.5 31.5 -8.5s26.834 -4.5 39.501 -4.5c11.333 0 21.166 2.66699 29.499 8s12.5 14.666 12.5 27.999c0 10 -3.16699 18.5 -9.5 25.5s-14.5 10.5 -24.5 10.5c-5.33301 0 -10.333 -0.666992 -15 -2l-14 -4l-16 9l40 86
c-66 4.66699 -118.833 27.667 -158.5 69s-59.5 100.666 -59.5 177.999c0 42 6.83301 78.5 20.5 109.5s32 56.833 55 77.5s49.5 36.167 79.5 46.5s61 15.5 93 15.5c26.667 0 52.5 -3.33301 77.5 -10s47 -16.667 66 -30s34.333 -30.166 46 -50.499s17.5 -44.166 17.5 -71.499
c0 -26.667 -7.83301 -49.667 -23.5 -69s-37.5 -29 -65.5 -29c-24 0 -44.667 5.5 -62 16.5s-26 29.833 -26 56.5c0 23.333 7.16699 41.333 21.5 54s32.833 19 55.5 19c-9.33301 11.333 -21.166 19.833 -35.499 25.5s-29.166 8.5 -44.499 8.5c-12.667 0 -25 -3.33301 -37 -10
s-22.5 -16.667 -31.5 -30s-16.167 -30.5 -21.5 -51.5s-8 -45.833 -8 -74.5c0 -58 7.66699 -100.167 23 -126.5s40.333 -39.5 75 -39.5c12.667 0 23.834 2.5 33.501 7.5s17.834 11.833 24.501 20.5s11.834 18.5 15.501 29.5s6.16699 22.167 7.5 33.5h99z" />
    <glyph glyph-name="egrave" unicode="&#xe8;" horiz-adv-x="556" 
d="M354 291v26c0 25.333 -6.5 46 -19.5 62s-31.5 24 -55.5 24c-24.667 0 -43.5 -8 -56.5 -24s-19.5 -36.667 -19.5 -62v-26h151zM298 543l-118 69.001c-16 9.33301 -30.167 19.166 -42.5 29.499s-18.5 25.5 -18.5 45.5c0 15.333 5.83301 28 17.5 38s25.167 15 40.5 15
c14 0 26 -2.5 36 -7.5s19.167 -11.5 27.5 -19.5s16 -16.833 23 -26.5l21.5 -29.5l85 -114h-72zM201 211.001c0 -17.333 1.33105 -34.502 3.99805 -51.502s7.5 -32 14.5 -45s17 -23.5 30 -31.5s30.167 -12 51.5 -12c8.66699 0 18.334 1.66699 29.001 5s21 8.5 31 15.5
s18.833 16 26.5 27s12.5 23.833 14.5 38.5h116c-4 -30 -13.667 -55.833 -29 -77.5s-34.333 -39.5 -57 -53.5s-47.5 -24.333 -74.5 -31s-53.833 -10 -80.5 -10c-85.333 0 -148.833 22.167 -190.5 66.5s-62.5 105.166 -62.5 182.499c0 38.667 6.5 73.334 19.5 104.001
s30.833 56.834 53.5 78.501s49.334 38.167 80.001 49.5s64 17 100 17c40.667 0 76.834 -6.83301 108.501 -20.5s58.167 -32.667 79.5 -57s37.666 -53.166 48.999 -86.499s17 -69.333 17 -108h-330z" />
    <glyph glyph-name="eacute" unicode="&#xe9;" horiz-adv-x="556" 
d="M354 291v26c0 25.333 -6.5 46 -19.5 62s-31.5 24 -55.5 24c-24.667 0 -43.5 -8 -56.5 -24s-19.5 -36.667 -19.5 -62v-26h151zM200 543l85 113.999l21.5 29.5c7 9.66699 14.667 18.5 23 26.5s17.5 14.5 27.5 19.5s22 7.5 36 7.5c15.333 0 28.833 -5 40.5 -15
s17.5 -22.667 17.5 -38c0 -20 -6.16699 -35.167 -18.5 -45.5s-26.5 -20.166 -42.5 -29.499l-118 -69h-72zM201 210.999c0 -17.333 1.33105 -34.502 3.99805 -51.502s7.5 -32 14.5 -45s17 -23.5 30 -31.5s30.167 -12 51.5 -12c8.66699 0 18.334 1.66699 29.001 5
s21 8.5 31 15.5s18.833 16 26.5 27s12.5 23.833 14.5 38.5h116c-4 -30 -13.667 -55.833 -29 -77.5s-34.333 -39.5 -57 -53.5s-47.5 -24.333 -74.5 -31s-53.833 -10 -80.5 -10c-85.333 0 -148.833 22.167 -190.5 66.5s-62.5 105.166 -62.5 182.499
c0 38.667 6.5 73.334 19.5 104.001s30.833 56.834 53.5 78.501s49.334 38.167 80.001 49.5s64 17 100 17c40.667 0 76.834 -6.83301 108.501 -20.5s58.167 -32.667 79.5 -57s37.666 -53.166 48.999 -86.499s17 -69.333 17 -108h-330z" />
    <glyph glyph-name="ecircumflex" unicode="&#xea;" horiz-adv-x="556" 
d="M354 291v26c0 25.333 -6.5 46 -19.5 62s-31.5 24 -55.5 24c-24.667 0 -43.5 -8 -56.5 -24s-19.5 -36.667 -19.5 -62v-26h151zM179 543h-78l122 180h125l123 -180h-79l-106 92zM201 211c0 -17.333 1.33105 -34.502 3.99805 -51.502s7.5 -32 14.5 -45s17 -23.5 30 -31.5
s30.167 -12 51.5 -12c8.66699 0 18.334 1.66699 29.001 5s21 8.5 31 15.5s18.833 16 26.5 27s12.5 23.833 14.5 38.5h116c-4 -30 -13.667 -55.833 -29 -77.5s-34.333 -39.5 -57 -53.5s-47.5 -24.333 -74.5 -31s-53.833 -10 -80.5 -10c-85.333 0 -148.833 22.167 -190.5 66.5
s-62.5 105.166 -62.5 182.499c0 38.667 6.5 73.334 19.5 104.001s30.833 56.834 53.5 78.501s49.334 38.167 80.001 49.5s64 17 100 17c40.667 0 76.834 -6.83301 108.501 -20.5s58.167 -32.667 79.5 -57s37.666 -53.166 48.999 -86.499s17 -69.333 17 -108h-330z" />
    <glyph glyph-name="edieresis" unicode="&#xeb;" horiz-adv-x="556" 
d="M354 291v26c0 25.333 -6.5 46 -19.5 62s-31.5 24 -55.5 24c-24.667 0 -43.5 -8 -56.5 -24s-19.5 -36.667 -19.5 -62v-26h151zM176 705c22 0 40.667 -7.83301 56 -23.5s23 -34.167 23 -55.5c0 -22 -7.66699 -40.667 -23 -56s-34 -23 -56 -23s-40.667 7.66699 -56 23
s-23 34 -23 56c0 21.333 7.66699 39.833 23 55.5s34 23.5 56 23.5zM396 705c22 0 40.667 -7.83301 56 -23.5s23 -34.167 23 -55.5c0 -22 -7.66699 -40.667 -23 -56s-34 -23 -56 -23s-40.667 7.66699 -56 23s-23 34 -23 56c0 21.333 7.66699 39.833 23 55.5s34 23.5 56 23.5z
M201 211c0 -17.333 1.33105 -34.502 3.99805 -51.502s7.5 -32 14.5 -45s17 -23.5 30 -31.5s30.167 -12 51.5 -12c8.66699 0 18.334 1.66699 29.001 5s21 8.5 31 15.5s18.833 16 26.5 27s12.5 23.833 14.5 38.5h116c-4 -30 -13.667 -55.833 -29 -77.5
s-34.333 -39.5 -57 -53.5s-47.5 -24.333 -74.5 -31s-53.833 -10 -80.5 -10c-85.333 0 -148.833 22.167 -190.5 66.5s-62.5 105.166 -62.5 182.499c0 38.667 6.5 73.334 19.5 104.001s30.833 56.834 53.5 78.501s49.334 38.167 80.001 49.5s64 17 100 17
c40.667 0 76.834 -6.83301 108.501 -20.5s58.167 -32.667 79.5 -57s37.666 -53.166 48.999 -86.499s17 -69.333 17 -108h-330z" />
    <glyph glyph-name="igrave" unicode="&#xec;" horiz-adv-x="389" 
d="M207 543l-118 69.001c-16 9.33301 -30.167 19.166 -42.5 29.499s-18.5 25.5 -18.5 45.5c0 15.333 5.83301 28 17.5 38s25.167 15 40.5 15c14 0 26 -2.5 36 -7.5s19.167 -11.5 27.5 -19.5s16 -16.833 23 -26.5l21.5 -29.5l85 -114h-72zM278 123.001
c0 -14 2.33203 -24.667 6.99902 -32s14.334 -11 29.001 -11h41v-80h-322v80h43c14.667 0 24.334 3.66699 29.001 11s7 18 7 32v222c0 14 -2.33301 24.667 -7 32s-14.334 11 -29.001 11h-46v80h248v-345z" />
    <glyph glyph-name="iacute" unicode="&#xed;" horiz-adv-x="389" 
d="M109 543l85 113.999l21.5 29.5c7 9.66699 14.667 18.5 23 26.5s17.5 14.5 27.5 19.5s22 7.5 36 7.5c15.333 0 28.833 -5 40.5 -15s17.5 -22.667 17.5 -38c0 -20 -6.16699 -35.167 -18.5 -45.5s-26.5 -20.166 -42.5 -29.499l-118 -69h-72zM278 122.999
c0 -14 2.33203 -24.667 6.99902 -32s14.334 -11 29.001 -11h41v-80h-322v80h43c14.667 0 24.334 3.66699 29.001 11s7 18 7 32v222c0 14 -2.33301 24.667 -7 32s-14.334 11 -29.001 11h-46v80h248v-345z" />
    <glyph glyph-name="icircumflex" unicode="&#xee;" horiz-adv-x="389" 
d="M88 543h-78l122 180h125l123 -180h-79l-106 92zM278 123c0 -14 2.33203 -24.667 6.99902 -32s14.334 -11 29.001 -11h41v-80h-322v80h43c14.667 0 24.334 3.66699 29.001 11s7 18 7 32v222c0 14 -2.33301 24.667 -7 32s-14.334 11 -29.001 11h-46v80h248v-345z" />
    <glyph glyph-name="idieresis" unicode="&#xef;" horiz-adv-x="389" 
d="M85 705c22 0 40.667 -7.83301 56 -23.5s23 -34.167 23 -55.5c0 -22 -7.66699 -40.667 -23 -56s-34 -23 -56 -23s-40.667 7.66699 -56 23s-23 34 -23 56c0 21.333 7.66699 39.833 23 55.5s34 23.5 56 23.5zM305 705c22 0 40.667 -7.83301 56 -23.5s23 -34.167 23 -55.5
c0 -22 -7.66699 -40.667 -23 -56s-34 -23 -56 -23s-40.667 7.66699 -56 23s-23 34 -23 56c0 21.333 7.66699 39.833 23 55.5s34 23.5 56 23.5zM278 123c0 -14 2.33203 -24.667 6.99902 -32s14.334 -11 29.001 -11h41v-80h-322v80h43c14.667 0 24.334 3.66699 29.001 11
s7 18 7 32v222c0 14 -2.33301 24.667 -7 32s-14.334 11 -29.001 11h-46v80h248v-345z" />
    <glyph glyph-name="eth" unicode="&#xf0;" horiz-adv-x="556" 
d="M278 403c-30 0 -51 -13.333 -63 -40s-18 -69.667 -18 -129s6 -102.333 18 -129s33 -40 63 -40s51 13.333 63 40s18 69.667 18 129s-6 102.333 -18 129s-33 40 -63 40zM196 666c29.333 -14 55.999 -27.999 79.999 -41.999l85 40l52 -51l-73 -33
c62.667 -48 111 -102 145 -162s51 -121.333 51 -184c0 -40 -6.5 -75.5 -19.5 -106.5s-31 -57 -54 -78s-50.167 -37 -81.5 -48s-65.666 -16.5 -102.999 -16.5s-71.666 5.5 -102.999 16.5s-58.5 27 -81.5 48s-41 47 -54 78s-19.5 66.5 -19.5 106.5s6.5 75.5 19.5 106.5
s31 57 54 78s50.167 37 81.5 48s65.666 16.5 102.999 16.5h8c4.66699 0 8.66699 -0.333008 12 -1c-7.33301 10 -15.5 19.667 -24.5 29s-19.5 17.666 -31.5 24.999l-88 -40l-48 48l74 35c-13.333 8 -26 15.167 -38 21.5l-38 20.5z" />
    <glyph glyph-name="ntilde" unicode="&#xf1;" horiz-adv-x="667" 
d="M519 704c-3.33301 -16 -8.16797 -32.665 -14.501 -49.998s-14.5 -33 -24.5 -47s-22.167 -25.667 -36.5 -35s-31.166 -14 -50.499 -14c-18 0 -35.333 2.66699 -52 8s-32.334 11.666 -47.001 18.999l-41 18c-12 5.33301 -22.667 8 -32 8
c-13.333 0 -23.833 -4.83301 -31.5 -14.5s-12.834 -20.834 -15.501 -33.501h-52c2 20 6.16699 38.667 12.5 56s15 32.666 26 45.999s24.333 23.833 40 31.5s33.834 11.5 54.501 11.5c13.333 0 27.333 -2.66699 42 -8s29.334 -11.333 44.001 -18s28.5 -12.667 41.5 -18
s24.167 -8 33.5 -8c13.333 0 23.833 4.83301 31.5 14.5s13.167 20.834 16.5 33.501h55zM250.998 468.002l-0.00488281 -77.001h2c22 32 46 55.333 72 70s59.333 22 100 22c28.667 0 52.667 -4 72 -12s35 -19.333 47 -34s20.5 -32.5 25.5 -53.5s7.5 -44.5 7.5 -70.5v-190
c0 -14 2.33301 -24.667 7 -32s14.334 -11 29.001 -11h38v-80h-297v80h21c14.667 0 24.334 3.66699 29.001 11s7 18 7 32v172c0 14.667 -0.833008 28 -2.5 40s-5.16699 22.333 -10.5 31s-13.166 15.334 -23.499 20.001s-23.833 7 -40.5 7
c-11.333 0 -21.666 -2.5 -30.999 -7.5s-17.333 -11.5 -24 -19.5s-11.667 -17 -15 -27s-5 -20.333 -5 -31v-185c0 -14 2.33301 -24.667 7 -32s14.334 -11 29.001 -11h24v-80h-302v80h40c14.667 0 24.334 3.66699 29.001 11s7 18 7 32v222c0 14 -2.33301 24.667 -7 32
s-14.334 11 -29.001 11h-41v80h235z" />
    <glyph glyph-name="ograve" unicode="&#xf2;" horiz-adv-x="556" 
d="M291 543l-118 69.001c-16 9.33301 -30.167 19.166 -42.5 29.499s-18.5 25.5 -18.5 45.5c0 15.333 5.83301 28 17.5 38s25.167 15 40.5 15c14 0 26 -2.5 36 -7.5s19.167 -11.5 27.5 -19.5s16 -16.833 23 -26.5l21.5 -29.5l85 -114h-72zM278 403.001
c-30 0 -51 -13.333 -63 -40s-18 -69.667 -18 -129s6 -102.333 18 -129s33 -40 63 -40s51 13.333 63 40s18 69.667 18 129s-6 102.333 -18 129s-33 40 -63 40zM278 483.001c37.333 0 71.666 -5.5 102.999 -16.5s58.5 -27 81.5 -48s41 -47 54 -78s19.5 -66.5 19.5 -106.5
s-6.5 -75.5 -19.5 -106.5s-31 -57 -54 -78s-50.167 -37 -81.5 -48s-65.666 -16.5 -102.999 -16.5s-71.666 5.5 -102.999 16.5s-58.5 27 -81.5 48s-41 47 -54 78s-19.5 66.5 -19.5 106.5s6.5 75.5 19.5 106.5s31 57 54 78s50.167 37 81.5 48s65.666 16.5 102.999 16.5z" />
    <glyph glyph-name="oacute" unicode="&#xf3;" horiz-adv-x="556" 
d="M193 543l85 113.999l21.5 29.5c7 9.66699 14.667 18.5 23 26.5s17.5 14.5 27.5 19.5s22 7.5 36 7.5c15.333 0 28.833 -5 40.5 -15s17.5 -22.667 17.5 -38c0 -20 -6.16699 -35.167 -18.5 -45.5s-26.5 -20.166 -42.5 -29.499l-118 -69h-72zM278 402.999
c-30 0 -51 -13.333 -63 -40s-18 -69.667 -18 -129s6 -102.333 18 -129s33 -40 63 -40s51 13.333 63 40s18 69.667 18 129s-6 102.333 -18 129s-33 40 -63 40zM278 482.999c37.333 0 71.666 -5.5 102.999 -16.5s58.5 -27 81.5 -48s41 -47 54 -78s19.5 -66.5 19.5 -106.5
s-6.5 -75.5 -19.5 -106.5s-31 -57 -54 -78s-50.167 -37 -81.5 -48s-65.666 -16.5 -102.999 -16.5s-71.666 5.5 -102.999 16.5s-58.5 27 -81.5 48s-41 47 -54 78s-19.5 66.5 -19.5 106.5s6.5 75.5 19.5 106.5s31 57 54 78s50.167 37 81.5 48s65.666 16.5 102.999 16.5z" />
    <glyph glyph-name="ocircumflex" unicode="&#xf4;" horiz-adv-x="556" 
d="M172 543h-78l122 180h125l123 -180h-79l-106 92zM278 403c-30 0 -51 -13.333 -63 -40s-18 -69.667 -18 -129s6 -102.333 18 -129s33 -40 63 -40s51 13.333 63 40s18 69.667 18 129s-6 102.333 -18 129s-33 40 -63 40zM278 483c37.333 0 71.666 -5.5 102.999 -16.5
s58.5 -27 81.5 -48s41 -47 54 -78s19.5 -66.5 19.5 -106.5s-6.5 -75.5 -19.5 -106.5s-31 -57 -54 -78s-50.167 -37 -81.5 -48s-65.666 -16.5 -102.999 -16.5s-71.666 5.5 -102.999 16.5s-58.5 27 -81.5 48s-41 47 -54 78s-19.5 66.5 -19.5 106.5s6.5 75.5 19.5 106.5
s31 57 54 78s50.167 37 81.5 48s65.666 16.5 102.999 16.5z" />
    <glyph glyph-name="otilde" unicode="&#xf5;" horiz-adv-x="556" 
d="M478 704c-3.33301 -16 -8.16797 -32.665 -14.501 -49.998s-14.5 -33 -24.5 -47s-22.167 -25.667 -36.5 -35s-31.166 -14 -50.499 -14c-18 0 -35.333 2.66699 -52 8s-32.334 11.666 -47.001 18.999l-41 18c-12 5.33301 -22.667 8 -32 8
c-13.333 0 -23.833 -4.83301 -31.5 -14.5s-12.834 -20.834 -15.501 -33.501h-52c2 20 6.16699 38.667 12.5 56s15 32.666 26 45.999s24.333 23.833 40 31.5s33.834 11.5 54.501 11.5c13.333 0 27.333 -2.66699 42 -8s29.334 -11.333 44.001 -18s28.5 -12.667 41.5 -18
s24.167 -8 33.5 -8c13.333 0 23.833 4.83301 31.5 14.5s13.167 20.834 16.5 33.501h55zM277.998 403.002c-30 0 -51 -13.333 -63 -40s-18 -69.667 -18 -129s6 -102.333 18 -129s33 -40 63 -40s51 13.333 63 40s18 69.667 18 129s-6 102.333 -18 129s-33 40 -63 40z
M277.998 483.002c37.333 0 71.666 -5.5 102.999 -16.5s58.5 -27 81.5 -48s41 -47 54 -78s19.5 -66.5 19.5 -106.5s-6.5 -75.5 -19.5 -106.5s-31 -57 -54 -78s-50.167 -37 -81.5 -48s-65.666 -16.5 -102.999 -16.5s-71.666 5.5 -102.999 16.5s-58.5 27 -81.5 48
s-41 47 -54 78s-19.5 66.5 -19.5 106.5s6.5 75.5 19.5 106.5s31 57 54 78s50.167 37 81.5 48s65.666 16.5 102.999 16.5z" />
    <glyph glyph-name="odieresis" unicode="&#xf6;" horiz-adv-x="556" 
d="M389 705c22 0 40.667 -7.83301 56 -23.5s23 -34.167 23 -55.5c0 -22 -7.66699 -40.667 -23 -56s-34 -23 -56 -23s-40.667 7.66699 -56 23s-23 34 -23 56c0 21.333 7.66699 39.833 23 55.5s34 23.5 56 23.5zM169 705c22 0 40.667 -7.83301 56 -23.5s23 -34.167 23 -55.5
c0 -22 -7.66699 -40.667 -23 -56s-34 -23 -56 -23s-40.667 7.66699 -56 23s-23 34 -23 56c0 21.333 7.66699 39.833 23 55.5s34 23.5 56 23.5zM278 403c-30 0 -51 -13.333 -63 -40s-18 -69.667 -18 -129s6 -102.333 18 -129s33 -40 63 -40s51 13.333 63 40s18 69.667 18 129
s-6 102.333 -18 129s-33 40 -63 40zM278 483c37.333 0 71.666 -5.5 102.999 -16.5s58.5 -27 81.5 -48s41 -47 54 -78s19.5 -66.5 19.5 -106.5s-6.5 -75.5 -19.5 -106.5s-31 -57 -54 -78s-50.167 -37 -81.5 -48s-65.666 -16.5 -102.999 -16.5s-71.666 5.5 -102.999 16.5
s-58.5 27 -81.5 48s-41 47 -54 78s-19.5 66.5 -19.5 106.5s6.5 75.5 19.5 106.5s31 57 54 78s50.167 37 81.5 48s65.666 16.5 102.999 16.5z" />
    <glyph glyph-name="divide" unicode="&#xf7;" horiz-adv-x="600" 
d="M300 508c22.667 0 42.334 -8.16699 59.001 -24.5s25 -36.166 25 -59.499s-8.33301 -43 -25 -59s-36.334 -24 -59.001 -24s-42.167 8 -58.5 24s-24.5 35.667 -24.5 59s8.16699 43.166 24.5 59.499s35.833 24.5 58.5 24.5zM300 126c22.667 0 42.334 -8.16699 59.001 -24.5
s25 -36.166 25 -59.499s-8.33301 -43 -25 -59s-36.334 -24 -59.001 -24s-42.167 8 -58.5 24s-24.5 35.667 -24.5 59s8.16699 43.166 24.5 59.499s35.833 24.5 58.5 24.5zM66 178v111h467v-111h-467z" />
    <glyph glyph-name="oslash" unicode="&#xf8;" horiz-adv-x="556" 
d="M344 353c-11.333 33.333 -33.333 49.999 -66 49.999c-30 0 -51 -13.333 -63 -40s-18 -69.667 -18 -129v-17c0 -5.33301 0.666992 -9.66602 2 -12.999zM211 116.999c11.333 -34.667 33.667 -52 67 -52c30 0 51 13.333 63 40s18 69.667 18 129v17c0 6 -0.666992 11 -2 15z
M6.00098 5.99902l65 67c-16 20.667 -28.5 44.334 -37.5 71.001s-13.5 56.667 -13.5 90c0 40 6.5 75.5 19.5 106.5s31 57 54 78s50.167 37 81.5 48s65.666 16.5 102.999 16.5c60.667 0 111.667 -13.667 153 -41l63 65l51 -48l-61 -63
c16.667 -20.667 29.5 -44.334 38.5 -71.001s13.5 -57 13.5 -91c0 -40 -6.5 -75.5 -19.5 -106.5s-31 -57 -54 -78s-50.167 -37 -81.5 -48s-65.666 -16.5 -102.999 -16.5c-61.333 0 -113 14 -155 42l-66 -67z" />
    <glyph glyph-name="ugrave" unicode="&#xf9;" horiz-adv-x="667" 
d="M318 543l-118 69.001c-16 9.33301 -30.167 19.166 -42.5 29.499s-18.5 25.5 -18.5 45.5c0 15.333 5.83301 28 17.5 38s25.167 15 40.5 15c14 0 26 -2.5 36 -7.5s19.167 -11.5 27.5 -19.5s16 -16.833 23 -26.5l21.5 -29.5l85 -114h-72zM411 0.000976562l0.00390625 77h-2
c-22 -32 -46 -55.333 -72 -70s-59.333 -22 -100 -22c-28.667 0 -52.667 3.16699 -72 9.5s-35 15.833 -47 28.5s-20.5 28.834 -25.5 48.501s-7.5 43.167 -7.5 70.5v203c0 14 -2.33301 24.667 -7 32s-14.334 11 -29.001 11h-33v80h235v-295c0 -18 0.333008 -33.167 1 -45.5
s3.5 -22.333 8.5 -30s12.667 -13.334 23 -17.001s25.166 -5.5 44.499 -5.5c11.333 0 21.666 2.5 30.999 7.5s17.166 11.5 23.499 19.5s11.333 17 15 27s5.5 20.333 5.5 31v185c0 14 -2.33301 24.667 -7 32s-14.334 11 -29.001 11h-44v80h246v-345
c0 -14 2.33301 -24.667 7 -32s14.334 -11 29.001 -11h36v-80h-230z" />
    <glyph glyph-name="uacute" unicode="&#xfa;" horiz-adv-x="667" 
d="M220 543l85 113.999l21.5 29.5c7 9.66699 14.667 18.5 23 26.5s17.5 14.5 27.5 19.5s22 7.5 36 7.5c15.333 0 28.833 -5 40.5 -15s17.5 -22.667 17.5 -38c0 -20 -6.16699 -35.167 -18.5 -45.5s-26.5 -20.166 -42.5 -29.499l-118 -69h-72zM411 -0.000976562l0.00390625 77
h-2c-22 -32 -46 -55.333 -72 -70s-59.333 -22 -100 -22c-28.667 0 -52.667 3.16699 -72 9.5s-35 15.833 -47 28.5s-20.5 28.834 -25.5 48.501s-7.5 43.167 -7.5 70.5v203c0 14 -2.33301 24.667 -7 32s-14.334 11 -29.001 11h-33v80h235v-295c0 -18 0.333008 -33.167 1 -45.5
s3.5 -22.333 8.5 -30s12.667 -13.334 23 -17.001s25.166 -5.5 44.499 -5.5c11.333 0 21.666 2.5 30.999 7.5s17.166 11.5 23.499 19.5s11.333 17 15 27s5.5 20.333 5.5 31v185c0 14 -2.33301 24.667 -7 32s-14.334 11 -29.001 11h-44v80h246v-345
c0 -14 2.33301 -24.667 7 -32s14.334 -11 29.001 -11h36v-80h-230z" />
    <glyph glyph-name="ucircumflex" unicode="&#xfb;" horiz-adv-x="667" 
d="M199 543h-78l122 180h125l123 -180h-79l-106 92zM411 0l0.00390625 77h-2c-22 -32 -46 -55.333 -72 -70s-59.333 -22 -100 -22c-28.667 0 -52.667 3.16699 -72 9.5s-35 15.833 -47 28.5s-20.5 28.834 -25.5 48.501s-7.5 43.167 -7.5 70.5v203c0 14 -2.33301 24.667 -7 32
s-14.334 11 -29.001 11h-33v80h235v-295c0 -18 0.333008 -33.167 1 -45.5s3.5 -22.333 8.5 -30s12.667 -13.334 23 -17.001s25.166 -5.5 44.499 -5.5c11.333 0 21.666 2.5 30.999 7.5s17.166 11.5 23.499 19.5s11.333 17 15 27s5.5 20.333 5.5 31v185
c0 14 -2.33301 24.667 -7 32s-14.334 11 -29.001 11h-44v80h246v-345c0 -14 2.33301 -24.667 7 -32s14.334 -11 29.001 -11h36v-80h-230z" />
    <glyph glyph-name="udieresis" unicode="&#xfc;" horiz-adv-x="667" 
d="M196 705c22 0 40.667 -7.83301 56 -23.5s23 -34.167 23 -55.5c0 -22 -7.66699 -40.667 -23 -56s-34 -23 -56 -23s-40.667 7.66699 -56 23s-23 34 -23 56c0 21.333 7.66699 39.833 23 55.5s34 23.5 56 23.5zM416 705c22 0 40.667 -7.83301 56 -23.5s23 -34.167 23 -55.5
c0 -22 -7.66699 -40.667 -23 -56s-34 -23 -56 -23s-40.667 7.66699 -56 23s-23 34 -23 56c0 21.333 7.66699 39.833 23 55.5s34 23.5 56 23.5zM411 0l0.00390625 77h-2c-22 -32 -46 -55.333 -72 -70s-59.333 -22 -100 -22c-28.667 0 -52.667 3.16699 -72 9.5
s-35 15.833 -47 28.5s-20.5 28.834 -25.5 48.501s-7.5 43.167 -7.5 70.5v203c0 14 -2.33301 24.667 -7 32s-14.334 11 -29.001 11h-33v80h235v-295c0 -18 0.333008 -33.167 1 -45.5s3.5 -22.333 8.5 -30s12.667 -13.334 23 -17.001s25.166 -5.5 44.499 -5.5
c11.333 0 21.666 2.5 30.999 7.5s17.166 11.5 23.499 19.5s11.333 17 15 27s5.5 20.333 5.5 31v185c0 14 -2.33301 24.667 -7 32s-14.334 11 -29.001 11h-44v80h246v-345c0 -14 2.33301 -24.667 7 -32s14.334 -11 29.001 -11h36v-80h-230z" />
    <glyph glyph-name="yacute" unicode="&#xfd;" 
d="M220 543l85 113.999l21.5 29.5c7 9.66699 14.667 18.5 23 26.5s17.5 14.5 27.5 19.5s22 7.5 36 7.5c15.333 0 28.833 -5 40.5 -15s17.5 -22.667 17.5 -38c0 -20 -6.16699 -35.167 -18.5 -45.5s-26.5 -20.166 -42.5 -29.499l-118 -69h-72zM587 467.999l-0.000976562 -80
h-19c-19.333 0 -32.666 -5 -39.999 -15s-13.666 -21.667 -18.999 -35l-133 -324c-13.333 -31.333 -26.666 -60.833 -39.999 -88.5s-28.333 -51.667 -45 -72s-35.167 -36.333 -55.5 -48s-43.833 -17.5 -70.5 -17.5c-21.333 0 -41 2.33301 -59 7s-33.833 12.334 -47.5 23.001
s-24.334 24 -32.001 40s-11.5 35.667 -11.5 59c0 26.667 7.83301 47.5 23.5 62.5s36.5 22.5 62.5 22.5c19.333 0 36.666 -5.66699 51.999 -17s23 -27.666 23 -48.999c0 -42.667 -17.667 -64 -53 -64c-4.66699 0 -9.5 0.333008 -14.5 1s-9.5 1.66699 -13.5 3
c0.666992 -6 3.16699 -10.667 7.5 -14s9.33301 -6 15 -8s11.667 -3.16699 18 -3.5s11.833 -0.5 16.5 -0.5c15.333 0 28.5 3.66699 39.5 11s20.667 16.666 29 27.999s15.666 24.166 21.999 38.499s12.166 28.5 17.499 42.5l-158 356c-7.33301 18.667 -14.333 33.667 -21 45
s-16.667 17 -30 17h-32v80h303v-80h-33c-11.333 0 -19.666 -1.16699 -24.999 -3.5s-8 -7.5 -8 -15.5c0 -5.33301 2 -12.333 6 -21l82 -185h2l71 182c4 10 6 19 6 27c0 4.66699 -2.16699 8.5 -6.5 11.5s-12.166 4.5 -23.499 4.5h-29v80h223z" />
    <glyph glyph-name="thorn" unicode="&#xfe;" 
d="M311 390c-28 0 -48.167 -14.333 -60.5 -43s-18.5 -67.667 -18.5 -117s6.16699 -88.166 18.5 -116.499s32.5 -42.5 60.5 -42.5s48.167 14.167 60.5 42.5s18.5 67.166 18.5 116.499s-6.16699 88.333 -18.5 117s-32.5 43 -60.5 43zM224 395l1.99902 0.00292969
c14.667 30.667 34.5 53 59.5 67s53.5 21 85.5 21c38 0 69.5 -7.33301 94.5 -22s45 -33.667 60 -57s25.667 -49.833 32 -79.5s9.5 -59.834 9.5 -90.501s-3.16699 -60.834 -9.5 -90.501s-17 -56.334 -32 -80.001s-35 -42.667 -60 -57s-56.5 -21.5 -94.5 -21.5
c-30 0 -57.667 5.66699 -83 17s-43.333 28 -54 50l-2 -2v-139c0 -14 2.33301 -24.667 7 -32s14.334 -11 29.001 -11h41v-80h-317v80h38c14.667 0 24.334 3.66699 29.001 11s7 18 7 32v629c0 14 -2.33301 24.667 -7 32s-14.334 11 -29.001 11h-39v80h233v-268z" />
    <glyph glyph-name="ydieresis" unicode="&#xff;" 
d="M196 705c22 0 40.667 -7.83301 56 -23.5s23 -34.167 23 -55.5c0 -22 -7.66699 -40.667 -23 -56s-34 -23 -56 -23s-40.667 7.66699 -56 23s-23 34 -23 56c0 21.333 7.66699 39.833 23 55.5s34 23.5 56 23.5zM416 705c22 0 40.667 -7.83301 56 -23.5s23 -34.167 23 -55.5
c0 -22 -7.66699 -40.667 -23 -56s-34 -23 -56 -23s-40.667 7.66699 -56 23s-23 34 -23 56c0 21.333 7.66699 39.833 23 55.5s34 23.5 56 23.5zM587 468l-0.000976562 -80h-19c-19.333 0 -32.666 -5 -39.999 -15s-13.666 -21.667 -18.999 -35l-133 -324
c-13.333 -31.333 -26.666 -60.833 -39.999 -88.5s-28.333 -51.667 -45 -72s-35.167 -36.333 -55.5 -48s-43.833 -17.5 -70.5 -17.5c-21.333 0 -41 2.33301 -59 7s-33.833 12.334 -47.5 23.001s-24.334 24 -32.001 40s-11.5 35.667 -11.5 59c0 26.667 7.83301 47.5 23.5 62.5
s36.5 22.5 62.5 22.5c19.333 0 36.666 -5.66699 51.999 -17s23 -27.666 23 -48.999c0 -42.667 -17.667 -64 -53 -64c-4.66699 0 -9.5 0.333008 -14.5 1s-9.5 1.66699 -13.5 3c0.666992 -6 3.16699 -10.667 7.5 -14s9.33301 -6 15 -8s11.667 -3.16699 18 -3.5
s11.833 -0.5 16.5 -0.5c15.333 0 28.5 3.66699 39.5 11s20.667 16.666 29 27.999s15.666 24.166 21.999 38.499s12.166 28.5 17.499 42.5l-158 356c-7.33301 18.667 -14.333 33.667 -21 45s-16.667 17 -30 17h-32v80h303v-80h-33c-11.333 0 -19.666 -1.16699 -24.999 -3.5
s-8 -7.5 -8 -15.5c0 -5.33301 2 -12.333 6 -21l82 -185h2l71 182c4 10 6 19 6 27c0 4.66699 -2.16699 8.5 -6.5 11.5s-12.166 4.5 -23.499 4.5h-29v80h223z" />
    <glyph glyph-name="dotlessi" unicode="&#x131;" horiz-adv-x="389" 
d="M278 123c0 -14 2.33203 -24.667 6.99902 -32s14.334 -11 29.001 -11h41v-80h-322v80h43c14.667 0 24.334 3.66699 29.001 11s7 18 7 32v222c0 14 -2.33301 24.667 -7 32s-14.334 11 -29.001 11h-46v80h248v-345z" />
    <glyph glyph-name="Lslash" unicode="&#x141;" horiz-adv-x="667" 
d="M418 357l-117 -28.999v-240h109c30 0 54.167 4.5 72.5 13.5s32.333 21.833 42 38.5s16.167 36.167 19.5 58.5s5 47.166 5 74.499h93v-273h-629v88h61c26 0 39 13.333 39 40v154l-101 -25v88l101 25v165c0 26.667 -13 40 -39 40h-62v88h390v-88h-62
c-26 0 -39 -13.333 -39 -40v-119l117 29v-88z" />
    <glyph glyph-name="lslash" unicode="&#x142;" horiz-adv-x="389" 
d="M367 403l-89.001 -33v-247c0 -14 2.33301 -24.667 7 -32s14.334 -11 29.001 -11h41v-80h-322v80h43c14.667 0 24.334 3.66699 29.001 11s7 18 7 32v186l-94 -35v74l94 35v157c0 14 -2.33301 24.667 -7 32s-14.334 11 -29.001 11h-46v80h248v-219l89 33v-74z" />
    <glyph glyph-name="OE" unicode="&#x152;" horiz-adv-x="1000" 
d="M438 512c0 25.333 -5.16406 43.334 -15.4971 54.001s-28.833 16 -55.5 16c-48.667 0 -85.334 -21.333 -110.001 -64s-37 -105 -37 -187c0 -47.333 3.16699 -87 9.5 -119s15.666 -57.833 27.999 -77.5s27.666 -33.834 45.999 -42.501s39.5 -13 63.5 -13
c26.667 0 45.167 5.33301 55.5 16s15.5 28.667 15.5 54v363zM788.003 191.001h-83v37c0 21.333 -5 38 -15 50s-22.667 18 -38 18h-41v-208h109c25.333 0 47.333 2 66 6s34 12.5 46 25.5s20.833 31.5 26.5 55.5s8.5 56.333 8.5 97h93v-272h-431
c-28 0 -55.333 -1.66699 -82 -5s-54 -5 -82 -5c-54 0 -102.167 7.5 -144.5 22.5s-78.333 37 -108 66s-52.334 64.667 -68.001 107s-23.5 90.5 -23.5 144.5c0 48 7.83301 92.833 23.5 134.5s38.334 78 68.001 109s65.667 55.333 108 73s90.5 26.5 144.5 26.5
c28 0 55.333 -1.66699 82 -5s54 -5 82 -5h431v-257h-93c0 36.667 -3.16699 66.167 -9.5 88.5s-16.333 39.5 -30 51.5s-31.667 19.833 -54 23.5s-49.5 5.5 -81.5 5.5h-81v-193h24c26 0 44.167 6 54.5 18s15.5 28.667 15.5 50v35h83v-294z" />
    <glyph glyph-name="oe" unicode="&#x153;" horiz-adv-x="889" 
d="M699 291v26c0 25.333 -6.5 46 -19.5 62s-31.5 24 -55.5 24c-24.667 0 -43.5 -8 -56.5 -24s-19.5 -36.667 -19.5 -62v-26h151zM289 403c-30 0 -51 -13.333 -63 -40s-18 -69.667 -18 -129s6 -102.333 18 -129s33 -40 63 -40s51 13.333 63 40s18 69.667 18 129
s-6 102.333 -18 129s-33 40 -63 40zM547 211c0 -17.333 1.16797 -34.5029 3.50098 -51.5029s7.16602 -32 14.499 -45s17.5 -23.5 30.5 -31.5s30.167 -12 51.5 -12c58.667 0 92.334 28.667 101.001 86h116c-4 -30 -13.333 -55.833 -28 -77.5s-32.834 -39.5 -54.501 -53.5
s-46.167 -24.333 -73.5 -31s-55.666 -10 -84.999 -10c-30 0 -57.667 3.66699 -83 11s-50.666 23.333 -75.999 48c-23.333 -23.333 -50.5 -39 -81.5 -47s-62.5 -12 -94.5 -12c-81.333 0 -144.666 21.333 -189.999 64s-68 104.334 -68 185.001c0 40 7 75.5 21 106.5
s32.667 57 56 78s50.666 37 81.999 48s64.333 16.5 99 16.5c31.333 0 62.166 -4.66699 92.499 -14s58.166 -23.666 83.499 -42.999c14 12 27.167 21.667 39.5 29s25 13 38 17s26.5 6.83301 40.5 8.5s29 2.5 45 2.5c42 0 78.333 -6.83301 109 -20.5s56 -32.667 76 -57
s34.833 -53.166 44.5 -86.499s14.5 -69.333 14.5 -108h-324z" />
    <glyph glyph-name="Scaron" unicode="&#x160;" horiz-adv-x="667" 
d="M357 804l106 92h79l-123 -180h-125l-122 180h78zM606 426l-92 0.00488281c-4 26 -12.333 49.167 -25 69.5s-28 37.5 -46 51.5s-37.833 24.667 -59.5 32s-43.5 11 -65.5 11c-14.667 0 -28.667 -1.33301 -42 -4s-25.166 -7.33398 -35.499 -14.001
s-18.666 -15.5 -24.999 -26.5s-9.5 -24.833 -9.5 -41.5c0 -16 6.16699 -28.667 18.5 -38s28.666 -17.166 48.999 -23.499s43.5 -12 69.5 -17s52.5 -10.667 79.5 -17s53.5 -14.5 79.5 -24.5s49.167 -23 69.5 -39s36.666 -36.333 48.999 -61s18.5 -54.667 18.5 -90
c0 -40 -7.83301 -73.667 -23.5 -101s-36.5 -49.333 -62.5 -66s-55.5 -28.667 -88.5 -36s-66.833 -11 -101.5 -11c-38.667 0 -76.667 4.5 -114 13.5s-72 25.167 -104 48.5l-26 -53h-84v262h93c3.33301 -26 11 -50 23 -72s27.5 -40.833 46.5 -56.5
s41.167 -27.834 66.5 -36.501s52.666 -13 81.999 -13c12.667 0 25.834 1.83301 39.501 5.5s26.167 9 37.5 16s20.5 16 27.5 27s10.5 23.5 10.5 37.5c0 24 -10.667 41.667 -32 53s-48 20.666 -80 27.999s-66.833 14.666 -104.5 21.999s-72.5 18.666 -104.5 33.999
s-58.667 36.666 -80 63.999s-32 65 -32 113c0 41.333 8.5 75.5 25.5 102.5s39.167 48.5 66.5 64.5s58 27.167 92 33.5s68.333 9.5 103 9.5c34 0 67 -5.16699 99 -15.5s62.333 -24.5 91 -42.5l18 47h83v-246z" />
    <glyph glyph-name="scaron" unicode="&#x161;" horiz-adv-x="556" 
d="M279 631l106 92h79l-123 -180h-125l-122 180h78zM123 168c2 -14.667 7.49902 -28.335 16.499 -41.002s20.167 -23.667 33.5 -33s27.5 -16.5 42.5 -21.5s29.5 -7.5 43.5 -7.5c7.33301 0 15.833 0.166992 25.5 0.5s19 2 28 5s16.5 7.33301 22.5 13s9 14.167 9 25.5
c0 14 -7.66699 24.833 -23 32.5s-34.5 14.334 -57.5 20.001l-74.5 18c-26.667 6.33301 -51.5 15.166 -74.5 26.499s-42.167 26.333 -57.5 45s-23 43.334 -23 74.001c0 30 7 55.167 21 75.5s31.833 36.5 53.5 48.5s45.667 20.667 72 26s52.166 8 77.499 8
c26.667 0 53.334 -3.66699 80.001 -11s51.667 -17.666 75 -30.999l12 30h69v-150h-76c-5.33301 14.667 -12.333 26.834 -21 36.501s-18.667 18.167 -30 25.5c-22 13.333 -48.333 20 -79 20c-6 0 -13.333 -0.5 -22 -1.5s-17 -2.83301 -25 -5.5s-15 -6.5 -21 -11.5
s-9 -11.833 -9 -20.5c0 -14.667 7.66699 -25.5 23 -32.5s34.5 -13.167 57.5 -18.5l74.5 -16.5c26.667 -5.66699 51.5 -14 74.5 -25s42.167 -26.167 57.5 -45.5s23 -45.333 23 -78c0 -30 -6.33301 -55.5 -19 -76.5s-29.167 -37.833 -49.5 -50.5
s-43.166 -21.834 -68.499 -27.501s-51 -8.5 -77 -8.5c-31.333 0 -62 3 -92 9s-58 18 -84 36l-15 -34h-75v172h82z" />
    <glyph glyph-name="Ydieresis" unicode="&#x178;" horiz-adv-x="778" 
d="M303 878c22 0 40.667 -7.83301 56 -23.5s23 -34.167 23 -55.5c0 -22 -7.66699 -40.667 -23 -56s-34 -23 -56 -23s-40.667 7.66699 -56 23s-23 34 -23 56c0 21.333 7.66699 39.833 23 55.5s34 23.5 56 23.5zM523 878c22 0 40.667 -7.83301 56 -23.5s23 -34.167 23 -55.5
c0 -22 -7.66699 -40.667 -23 -56s-34 -23 -56 -23s-40.667 7.66699 -56 23s-23 34 -23 56c0 21.333 7.66699 39.833 23 55.5s34 23.5 56 23.5zM404 663l-0.00195312 -88h-41c-20.667 0 -31 -5.33301 -31 -16c0 -5.33301 1.83301 -11.333 5.5 -18s6.83398 -12 9.50098 -16
l88 -137l89 137c2.66699 4 5.83398 9.33301 9.50098 16s5.5 12.667 5.5 18c0 10.667 -10.333 16 -31 16h-41v88h288v-88h-21c-18 0 -32.333 -2 -43 -6s-19.334 -11 -26.001 -21l-178 -281v-139c0 -26.667 13 -40 39 -40h68v-88h-400v88h66c26 0 39 13.333 39 40v139
l-158 252c-6.66699 10.667 -13 19.5 -19 26.5s-12.5 12.667 -19.5 17s-15.167 7.5 -24.5 9.5s-20.666 3 -33.999 3h-21v88h381z" />
    <glyph glyph-name="Zcaron" unicode="&#x17d;" horiz-adv-x="667" 
d="M357 804l106 92h79l-123 -180h-125l-122 180h78zM29 91l385 484.001h-107c-34 0 -62.333 -3 -85 -9s-40.5 -15.5 -53.5 -28.5s-22.167 -30 -27.5 -51s-8 -46.5 -8 -76.5h-93v253h591v-90l-385 -485h116c34.667 0 63.167 3.16699 85.5 9.5s40 16.833 53 31.5
s22.167 33.667 27.5 57s8 51.666 8 84.999h93v-271h-600v91z" />
    <glyph glyph-name="zcaron" unicode="&#x17e;" horiz-adv-x="500" 
d="M251 631l106 92h79l-123 -180h-125l-122 180h78zM214 80l90 0.000976562c28 0 49.333 6.66699 64 20s22 34.666 22 63.999v53h80v-217h-442v97l252 291h-93c-26.667 0 -44.667 -5.66699 -54 -17s-14 -29.333 -14 -54v-45h-80v196h433v-88z" />
    <glyph glyph-name="florin" unicode="&#x192;" 
d="M104 344l0.00390625 73.998h138c4.66699 34 12 66.833 22 98.5s24.167 59.834 42.5 84.501s41.166 44.5 68.499 59.5s61 22.5 101 22.5c14.667 0 29.5 -1.83301 44.5 -5.5s28.5 -9.5 40.5 -17.5s21.667 -18.167 29 -30.5s11 -26.833 11 -43.5
c0 -20 -6.33301 -36.833 -19 -50.5s-29.334 -20.5 -50.001 -20.5s-37 4.83301 -49 14.5s-18 25.167 -18 46.5c0 10 3.33301 19 10 27s14.667 13 24 15v2c-9.33301 2 -18 3 -26 3c-11.333 0 -20.833 -1.83301 -28.5 -5.5s-13.834 -9.5 -18.501 -17.5
s-8.33398 -18.833 -11.001 -32.5s-4.33398 -30.5 -5.00098 -50.5l-5 -99h134v-74h-143l-35 -296c-4 -33.333 -10.5 -65.666 -19.5 -96.999s-22 -59 -39 -83s-39 -43.333 -66 -58s-60.167 -22 -99.5 -22c-14 0 -28.833 1.33301 -44.5 4s-30.167 7.33398 -43.5 14.001
s-24.333 15.667 -33 27s-13 25.666 -13 42.999c0 20.667 6.5 39.167 19.5 55.5s30.5 24.5 52.5 24.5c18.667 0 34.5 -4.83301 47.5 -14.5s19.5 -24.5 19.5 -44.5c0 -11.333 -3.33301 -21.333 -10 -30s-15.667 -12.667 -27 -12c2.66699 -2.66699 6.33398 -4.5 11.001 -5.5
s8.66699 -1.5 12 -1.5c24.667 0 41.167 10.667 49.5 32s14.5 55.333 18.5 102l33 362h-125z" />
    <glyph glyph-name="circumflex" unicode="&#x2c6;" horiz-adv-x="333" 
d="M60 543h-78l122 180h125l123 -180h-79l-106 92z" />
    <glyph glyph-name="caron" unicode="&#x2c7;" horiz-adv-x="333" 
d="M167 631l106 92h79l-123 -180h-125l-122 180h78z" />
    <glyph glyph-name="breve" unicode="&#x2d8;" horiz-adv-x="333" 
d="M62 712c0.666992 -28 11.001 -48.5 31.001 -61.5s44.333 -19.5 73 -19.5c24.667 0 47.167 6.5 67.5 19.5s32.833 33.5 37.5 61.5h58c-4 -52 -19 -93.167 -45 -123.5s-65.333 -45.5 -118 -45.5c-56 0 -97.333 15.167 -124 45.5s-39.334 71.5 -38.001 123.5h58z" />
    <glyph glyph-name="dotaccent" unicode="&#x2d9;" horiz-adv-x="333" 
d="M166 705c22 0 40.667 -7.83301 56 -23.5s23 -34.167 23 -55.5c0 -22 -7.66699 -40.667 -23 -56s-34 -23 -56 -23s-40.667 7.66699 -56 23s-23 34 -23 56c0 21.333 7.66699 39.833 23 55.5s34 23.5 56 23.5z" />
    <glyph glyph-name="ring" unicode="&#x2da;" horiz-adv-x="333" 
d="M166 707c-14.667 0 -27.167 -5.16699 -37.5 -15.5s-15.5 -22.5 -15.5 -36.5c0 -14.667 5.16699 -27 15.5 -37s22.833 -15 37.5 -15c14 0 26.333 5 37 15s16 22.333 16 37c0 14 -5.33301 26.167 -16 36.5s-23 15.5 -37 15.5zM166 767c15.333 0 29.833 -3 43.5 -9
s25.667 -14 36 -24s18.5 -21.833 24.5 -35.5s9 -28.167 9 -43.5s-3 -29.833 -9 -43.5s-14.167 -25.5 -24.5 -35.5s-22.333 -18 -36 -24s-28.167 -9 -43.5 -9s-29.833 3 -43.5 9s-25.667 14 -36 24s-18.5 21.833 -24.5 35.5s-9 28.167 -9 43.5s3 29.833 9 43.5
s14.167 25.5 24.5 35.5s22.333 18 36 24s28.167 9 43.5 9z" />
    <glyph glyph-name="ogonek" unicode="&#x2db;" horiz-adv-x="333" 
d="M258 6c-12 -4 -26.1641 -9.83203 -42.4971 -17.499s-31.833 -16.667 -46.5 -27s-27.167 -22 -37.5 -35s-15.5 -27.167 -15.5 -42.5s5 -27 15 -35s21 -12 33 -12c17.333 0 34.166 4.33301 50.499 13s31.5 17.667 45.5 27l22 -40c-22.667 -16.667 -47 -31.167 -73 -43.5
s-53.667 -18.5 -83 -18.5c-14.667 0 -28.834 2.16699 -42.501 6.5s-25.834 10.666 -36.501 18.999s-19.167 18.5 -25.5 30.5s-9.5 26 -9.5 42c0 23.333 9.33301 43.833 28 61.5s41.167 32.5 67.5 44.5s53.5 21.5 81.5 28.5s51 11.5 69 13.5v-15z" />
    <glyph glyph-name="tilde" unicode="&#x2dc;" horiz-adv-x="333" 
d="M366 704c-3.33301 -16 -8.16797 -32.665 -14.501 -49.998s-14.5 -33 -24.5 -47s-22.167 -25.667 -36.5 -35s-31.166 -14 -50.499 -14c-18 0 -35.333 2.66699 -52 8s-32.334 11.666 -47.001 18.999l-41 18c-12 5.33301 -22.667 8 -32 8
c-13.333 0 -23.833 -4.83301 -31.5 -14.5s-12.834 -20.834 -15.501 -33.501h-52c2 20 6.16699 38.667 12.5 56s15 32.666 26 45.999s24.333 23.833 40 31.5s33.834 11.5 54.501 11.5c13.333 0 27.333 -2.66699 42 -8s29.334 -11.333 44.001 -18s28.5 -12.667 41.5 -18
s24.167 -8 33.5 -8c13.333 0 23.833 4.83301 31.5 14.5s13.167 20.834 16.5 33.501h55z" />
    <glyph glyph-name="hungarumlaut" unicode="&#x2dd;" horiz-adv-x="333" 
d="M-6 533l76.002 163c3.33301 6.66699 7.33301 14 12 22s10.167 15.167 16.5 21.5s13.666 11.666 21.999 15.999s17.833 6.5 28.5 6.5c17.333 0 31.333 -4.5 42 -13.5s16 -21.167 16 -36.5c0 -14 -3.83301 -26.667 -11.5 -38s-17.834 -23.666 -30.501 -36.999l-100 -104
h-71zM203.002 533l76.002 163c3.33301 6.66699 7.33301 14 12 22s10.167 15.167 16.5 21.5s13.666 11.666 21.999 15.999s17.833 6.5 28.5 6.5c17.333 0 31.333 -4.5 42 -13.5s16 -21.167 16 -36.5c0 -14 -3.83301 -26.667 -11.5 -38s-17.834 -23.666 -30.501 -36.999
l-100 -104h-71z" />
    <glyph glyph-name="endash" unicode="&#x2013;" horiz-adv-x="500" 
d="M0 179v110h500v-110h-500z" />
    <glyph glyph-name="emdash" unicode="&#x2014;" horiz-adv-x="1000" 
d="M0 179v110h1000v-110h-1000z" />
    <glyph glyph-name="quoteleft" unicode="&#x2018;" horiz-adv-x="278" 
d="M216 634c-21.333 -6 -39.833 -14.3301 -55.5 -24.9971s-25.167 -28.334 -28.5 -53.001c5.33301 3.33301 10.833 5.33301 16.5 6s11.167 1 16.5 1c19.333 0 34.5 -6.16699 45.5 -18.5s16.5 -27.833 16.5 -46.5c0 -28 -7.33301 -49.667 -22 -65s-36 -23 -64 -23
c-14 0 -26.667 2.83301 -38 8.5s-20.833 13.167 -28.5 22.5s-13.5 20.166 -17.5 32.499s-6 25.166 -6 38.499c0 25.333 4.16699 47.833 12.5 67.5s20 36.5 35 50.5s32.5 25.333 52.5 34s41.667 15 65 19v-49z" />
    <glyph glyph-name="quoteright" unicode="&#x2019;" horiz-adv-x="278" 
d="M62 459c21.333 6 39.833 14.3301 55.5 24.9971s25.167 28.334 28.5 53.001c-5.33301 -3.33301 -10.833 -5.33301 -16.5 -6s-11.167 -1 -16.5 -1c-19.333 0 -34.5 6.16699 -45.5 18.5s-16.5 27.833 -16.5 46.5c0 28 7.33301 49.667 22 65s36 23 64 23
c14 0 26.667 -2.83301 38 -8.5s20.833 -13.167 28.5 -22.5s13.5 -20.166 17.5 -32.499s6 -25.166 6 -38.499c0 -25.333 -4.16699 -47.833 -12.5 -67.5s-20 -36.5 -35 -50.5s-32.5 -25.333 -52.5 -34s-41.667 -15 -65 -19v49z" />
    <glyph glyph-name="quotesinglbase" unicode="&#x201a;" horiz-adv-x="278" 
d="M62 -71c21.333 6 39.833 14.3301 55.5 24.9971s25.167 28.334 28.5 53.001c-5.33301 -3.33301 -10.833 -5.33301 -16.5 -6s-11.167 -1 -16.5 -1c-19.333 0 -34.5 6.16699 -45.5 18.5s-16.5 27.833 -16.5 46.5c0 28 7.33301 49.667 22 65s36 23 64 23
c14 0 26.667 -2.83301 38 -8.5s20.833 -13.167 28.5 -22.5s13.5 -20.166 17.5 -32.499s6 -25.166 6 -38.499c0 -25.333 -4.16699 -47.833 -12.5 -67.5s-20 -36.5 -35 -50.5s-32.5 -25.333 -52.5 -34s-41.667 -15 -65 -19v49z" />
    <glyph glyph-name="quotedblleft" unicode="&#x201c;" horiz-adv-x="500" 
d="M457 634c-21.333 -6 -39.833 -14.3301 -55.5 -24.9971s-25.167 -28.334 -28.5 -53.001c5.33301 3.33301 10.833 5.33301 16.5 6s11.167 1 16.5 1c19.333 0 34.5 -6.16699 45.5 -18.5s16.5 -27.833 16.5 -46.5c0 -28 -7.33301 -49.667 -22 -65s-36 -23 -64 -23
c-14 0 -26.667 2.83301 -38 8.5s-20.833 13.167 -28.5 22.5s-13.5 20.166 -17.5 32.499s-6 25.166 -6 38.499c0 25.333 4.16699 47.833 12.5 67.5s20 36.5 35 50.5s32.5 25.333 52.5 34s41.667 15 65 19v-49zM197 634.003c-21.333 -6 -39.833 -14.3301 -55.5 -24.9971
s-25.167 -28.334 -28.5 -53.001c5.33301 3.33301 10.833 5.33301 16.5 6s11.167 1 16.5 1c19.333 0 34.5 -6.16699 45.5 -18.5s16.5 -27.833 16.5 -46.5c0 -28 -7.33301 -49.667 -22 -65s-36 -23 -64 -23c-14 0 -26.667 2.83301 -38 8.5s-20.833 13.167 -28.5 22.5
s-13.5 20.166 -17.5 32.499s-6 25.166 -6 38.499c0 25.333 4.16699 47.833 12.5 67.5s20 36.5 35 50.5s32.5 25.333 52.5 34s41.667 15 65 19v-49z" />
    <glyph glyph-name="quotedblright" unicode="&#x201d;" horiz-adv-x="500" 
d="M43 459c21.333 6 39.833 14.3301 55.5 24.9971s25.167 28.334 28.5 53.001c-5.33301 -3.33301 -10.833 -5.33301 -16.5 -6s-11.167 -1 -16.5 -1c-19.333 0 -34.5 6.16699 -45.5 18.5s-16.5 27.833 -16.5 46.5c0 28 7.33301 49.667 22 65s36 23 64 23
c14 0 26.667 -2.83301 38 -8.5s20.833 -13.167 28.5 -22.5s13.5 -20.166 17.5 -32.499s6 -25.166 6 -38.499c0 -25.333 -4.16699 -47.833 -12.5 -67.5s-20 -36.5 -35 -50.5s-32.5 -25.333 -52.5 -34s-41.667 -15 -65 -19v49zM303 458.997
c21.333 6 39.833 14.3301 55.5 24.9971s25.167 28.334 28.5 53.001c-5.33301 -3.33301 -10.833 -5.33301 -16.5 -6s-11.167 -1 -16.5 -1c-19.333 0 -34.5 6.16699 -45.5 18.5s-16.5 27.833 -16.5 46.5c0 28 7.33301 49.667 22 65s36 23 64 23c14 0 26.667 -2.83301 38 -8.5
s20.833 -13.167 28.5 -22.5s13.5 -20.166 17.5 -32.499s6 -25.166 6 -38.499c0 -25.333 -4.16699 -47.833 -12.5 -67.5s-20 -36.5 -35 -50.5s-32.5 -25.333 -52.5 -34s-41.667 -15 -65 -19v49z" />
    <glyph glyph-name="quotedblbase" unicode="&#x201e;" horiz-adv-x="500" 
d="M43 -71c21.333 6 39.833 14.3301 55.5 24.9971s25.167 28.334 28.5 53.001c-5.33301 -3.33301 -10.833 -5.33301 -16.5 -6s-11.167 -1 -16.5 -1c-19.333 0 -34.5 6.16699 -45.5 18.5s-16.5 27.833 -16.5 46.5c0 28 7.33301 49.667 22 65s36 23 64 23
c14 0 26.667 -2.83301 38 -8.5s20.833 -13.167 28.5 -22.5s13.5 -20.166 17.5 -32.499s6 -25.166 6 -38.499c0 -25.333 -4.16699 -47.833 -12.5 -67.5s-20 -36.5 -35 -50.5s-32.5 -25.333 -52.5 -34s-41.667 -15 -65 -19v49zM303 -71.0029
c21.333 6 39.833 14.3301 55.5 24.9971s25.167 28.334 28.5 53.001c-5.33301 -3.33301 -10.833 -5.33301 -16.5 -6s-11.167 -1 -16.5 -1c-19.333 0 -34.5 6.16699 -45.5 18.5s-16.5 27.833 -16.5 46.5c0 28 7.33301 49.667 22 65s36 23 64 23c14 0 26.667 -2.83301 38 -8.5
s20.833 -13.167 28.5 -22.5s13.5 -20.166 17.5 -32.499s6 -25.166 6 -38.499c0 -25.333 -4.16699 -47.833 -12.5 -67.5s-20 -36.5 -35 -50.5s-32.5 -25.333 -52.5 -34s-41.667 -15 -65 -19v49z" />
    <glyph glyph-name="dagger" unicode="&#x2020;" 
d="M273 342c-14.667 0 -28.0039 -2 -40.0039 -6s-23.667 -8.33301 -35 -13s-22.833 -9 -34.5 -13s-24.5 -6 -38.5 -6c-21.333 0 -37.666 6.33301 -48.999 19s-17 29 -17 49c0 42.667 22 65 66 67c14 0.666992 26.833 -0.833008 38.5 -4.5s23.167 -8 34.5 -13
s22.833 -9.5 34.5 -13.5s24.834 -6 39.501 -6c0 16.667 -2 33.334 -6 50.001s-8.5 33.167 -13.5 49.5s-9.66699 32.833 -14 49.5s-6.5 33.334 -6.5 50.001c0 24.667 6 44.5 18 59.5s30.667 22.5 56 22.5s43.833 -7.5 55.5 -22.5s17.5 -34.833 17.5 -59.5
c0 -16.667 -2.16699 -33.334 -6.5 -50.001s-9 -33.167 -14 -49.5s-9.5 -32.833 -13.5 -49.5s-6 -33.334 -6 -50.001c14.667 0 27.834 2 39.501 6s23.167 8.5 34.5 13.5s22.833 9.33301 34.5 13s24.5 5.16699 38.5 4.5c44 -2 66 -24.333 66 -67
c0 -20 -5.66699 -36.333 -17 -49s-27.666 -19 -48.999 -19c-14 0 -26.833 2 -38.5 6s-23.167 8.33301 -34.5 13s-23 9 -35 13s-25.333 6 -40 6v-77c0 -18 2.16699 -43.833 6.5 -77.5l14 -106.5c5 -37.333 9.66699 -74.166 14 -110.499s6.5 -66.166 6.5 -89.499
c0 -28 -5.83301 -50.5 -17.5 -67.5s-30.167 -25.5 -55.5 -25.5c-26 0 -44.833 8.5 -56.5 25.5s-17.5 39.5 -17.5 67.5c0 23.333 2.16699 53.166 6.5 89.499s9 73.166 14 110.499l14 106.5c4.33301 33.667 6.5 59.5 6.5 77.5v77z" />
    <glyph glyph-name="daggerdbl" unicode="&#x2021;" 
d="M306 683c20.667 0 38.1631 -6.16992 52.4961 -18.5029s21.5 -29.166 21.5 -50.499c0 -14.667 -2.16699 -29.334 -6.5 -44.001s-9 -29.334 -14 -44.001s-9.5 -29.167 -13.5 -43.5s-6 -28.5 -6 -42.5c14 0 26.833 2 38.5 6s23.167 8.66699 34.5 14
c11.333 4.66699 22.833 9 34.5 13s24.5 5.33301 38.5 4c44 -2 66 -24.333 66 -67c0 -20 -5.66699 -36.333 -17 -49s-27.666 -19 -48.999 -19c-14 0 -26.833 2 -38.5 6s-23.167 8.33301 -34.5 13c-11.333 5.33301 -22.833 9.83301 -34.5 13.5s-24.5 5.5 -38.5 5.5
c0 -25.333 3.5 -50.5 10.5 -75.5s18.167 -48.167 33.5 -69.5c-15.333 -21.333 -26.5 -44.166 -33.5 -68.499s-10.5 -47.166 -10.5 -68.499c14 0 26.833 2 38.5 6s23.167 8.66699 34.5 14c11.333 4.66699 22.833 9 34.5 13s24.5 5.33301 38.5 4c44 -2 66 -24.333 66 -67
c0 -20 -5.66699 -36.333 -17 -49s-27.666 -19 -48.999 -19c-14 0 -26.833 2 -38.5 6s-23.167 8.33301 -34.5 13c-11.333 5.33301 -22.833 9.83301 -34.5 13.5s-24.5 5.5 -38.5 5.5c0 -15.333 2 -30.666 6 -45.999s8.5 -30.666 13.5 -45.999s9.66699 -30.333 14 -45
s6.5 -29.334 6.5 -44.001c0 -21.333 -7.16699 -38.166 -21.5 -50.499s-31.833 -18.5 -52.5 -18.5s-38.167 6.16699 -52.5 18.5s-21.5 29.166 -21.5 50.499c0 14.667 2 29.334 6 44.001s8.5 29.5 13.5 44.5s9.66699 30 14 45s6.5 30.167 6.5 45.5
c-14.667 0 -27.834 -1.83301 -39.501 -5.5s-23.167 -8.16699 -34.5 -13.5c-11.333 -4.66699 -22.833 -9 -34.5 -13s-24.5 -6 -38.5 -6c-21.333 0 -37.666 6.33301 -48.999 19s-17 29 -17 49c0 42.667 22 65 66 67c14 1.33301 26.833 0 38.5 -4s23.167 -8.33301 34.5 -13
c11.333 -5.33301 22.833 -10 34.5 -14s24.834 -6 39.501 -6c0 22.667 -3.16699 46.167 -9.5 70.5s-17.166 47.166 -32.499 68.499c15.333 22 26.166 45.5 32.499 70.5s9.5 50.5 9.5 76.5c-14.667 0 -27.834 -1.83301 -39.501 -5.5s-23.167 -8.16699 -34.5 -13.5
c-11.333 -4.66699 -22.833 -9 -34.5 -13s-24.5 -6 -38.5 -6c-21.333 0 -37.666 6.33301 -48.999 19s-17 29 -17 49c0 42.667 22 65 66 67c14 1.33301 26.833 0 38.5 -4s23.167 -8.33301 34.5 -13c11.333 -5.33301 22.833 -10 34.5 -14s24.834 -6 39.501 -6
c0 13.333 -2.16699 27 -6.5 41s-9 28.333 -14 43s-9.5 29.334 -13.5 44.001s-6 29.334 -6 44.001c0 21.333 7.16699 38.166 21.5 50.499s31.833 18.5 52.5 18.5z" />
    <glyph glyph-name="bullet" unicode="&#x2022;" horiz-adv-x="500" 
d="M250 498c22.667 0 44.167 -4.33301 64.5 -13s38 -20.5 53 -35.5s26.833 -32.5 35.5 -52.5s13 -41.667 13 -65s-4.33301 -45 -13 -65s-20.5 -37.5 -35.5 -52.5s-32.667 -26.833 -53 -35.5s-41.833 -13 -64.5 -13c-23.333 0 -45 4.33301 -65 13s-37.5 20.5 -52.5 35.5
s-26.833 32.5 -35.5 52.5s-13 41.667 -13 65s4.33301 45 13 65s20.5 37.5 35.5 52.5s32.5 26.833 52.5 35.5s41.667 13 65 13z" />
    <glyph glyph-name="ellipsis" unicode="&#x2026;" horiz-adv-x="1000" 
d="M499 153c22.667 0 42.334 -8.16699 59.001 -24.5s25 -36.166 25 -59.499s-8.33301 -43 -25 -59s-36.334 -24 -59.001 -24s-42.167 8 -58.5 24s-24.5 35.667 -24.5 59s8.16699 43.166 24.5 59.499s35.833 24.5 58.5 24.5zM832 153c22.667 0 42.334 -8.16699 59.001 -24.5
s25 -36.166 25 -59.499s-8.33301 -43 -25 -59s-36.334 -24 -59.001 -24s-42.167 8 -58.5 24s-24.5 35.667 -24.5 59s8.16699 43.166 24.5 59.499s35.833 24.5 58.5 24.5zM166 153c22.667 0 42.334 -8.16699 59.001 -24.5s25 -36.166 25 -59.499s-8.33301 -43 -25 -59
s-36.334 -24 -59.001 -24s-42.167 8 -58.5 24s-24.5 35.667 -24.5 59s8.16699 43.166 24.5 59.499s35.833 24.5 58.5 24.5z" />
    <glyph glyph-name="perthousand" unicode="&#x2030;" horiz-adv-x="1000" 
d="M161 572c-8 0 -15.333 -2 -22 -6s-12.5 -11 -17.5 -21s-9 -23.167 -12 -39.5s-4.5 -36.5 -4.5 -60.5s1.5 -44.167 4.5 -60.5s7 -29.5 12 -39.5s10.833 -17 17.5 -21s14 -6 22 -6s15.333 2 22 6s12.5 11 17.5 21s9 23.167 12 39.5s4.5 36.5 4.5 60.5
s-1.5 44.167 -4.5 60.5s-7 29.5 -12 39.5s-10.833 17 -17.5 21s-14 6 -22 6zM839 287c-8 0 -15.333 -2 -22 -6s-12.5 -11 -17.5 -21s-9 -23.167 -12 -39.5s-4.5 -36.5 -4.5 -60.5s1.5 -44.167 4.5 -60.5s7 -29.5 12 -39.5s10.833 -17 17.5 -21s14 -6 22 -6s15.333 2 22 6
s12.5 11 17.5 21s9 23.167 12 39.5s4.5 36.5 4.5 60.5s-1.5 44.167 -4.5 60.5s-7 29.5 -12 39.5s-10.833 17 -17.5 21s-14 6 -22 6zM496 287c-8 0 -15.333 -2 -22 -6s-12.5 -11 -17.5 -21s-9 -23.167 -12 -39.5s-4.5 -36.5 -4.5 -60.5s1.5 -44.167 4.5 -60.5
s7 -29.5 12 -39.5s10.833 -17 17.5 -21s14 -6 22 -6s15.333 2 22 6s12.5 11 17.5 21s9 23.167 12 39.5s4.5 36.5 4.5 60.5s-1.5 44.167 -4.5 60.5s-7 29.5 -12 39.5s-10.833 17 -17.5 21s-14 6 -22 6zM97 -15l408 635h59l-412 -635h-55zM839 335
c26 0 48.667 -5.16699 68 -15.5s35.166 -23.833 47.499 -40.5s21.666 -35.5 27.999 -56.5s9.5 -41.833 9.5 -62.5c0 -21.333 -3.16699 -42.333 -9.5 -63s-15.666 -39.334 -27.999 -56.001s-28.166 -30.167 -47.499 -40.5s-42 -15.5 -68 -15.5s-48.667 5.16699 -68 15.5
s-35.166 23.833 -47.499 40.5s-21.666 35.334 -27.999 56.001s-9.5 41.667 -9.5 63c0 20.667 3.16699 41.5 9.5 62.5s15.666 39.833 27.999 56.5s28.166 30.167 47.499 40.5s42 15.5 68 15.5zM496 335c26 0 48.667 -5.16699 68 -15.5s35.166 -23.833 47.499 -40.5
s21.666 -35.5 27.999 -56.5s9.5 -41.833 9.5 -62.5c0 -21.333 -3.16699 -42.333 -9.5 -63s-15.666 -39.334 -27.999 -56.001s-28.166 -30.167 -47.499 -40.5s-42 -15.5 -68 -15.5s-48.667 5.16699 -68 15.5s-35.166 23.833 -47.499 40.5s-21.666 35.334 -27.999 56.001
s-9.5 41.667 -9.5 63c0 20.667 3.16699 41.5 9.5 62.5s15.666 39.833 27.999 56.5s28.166 30.167 47.499 40.5s42 15.5 68 15.5zM161 620c26 0 48.667 -5.16699 68 -15.5s35.166 -23.833 47.499 -40.5s21.666 -35.5 27.999 -56.5s9.5 -41.833 9.5 -62.5
c0 -21.333 -3.16699 -42.333 -9.5 -63s-15.666 -39.334 -27.999 -56.001s-28.166 -30.167 -47.499 -40.5s-42 -15.5 -68 -15.5s-48.667 5.16699 -68 15.5s-35.166 23.833 -47.499 40.5s-21.666 35.334 -27.999 56.001s-9.5 41.667 -9.5 63c0 20.667 3.16699 41.5 9.5 62.5
s15.666 39.833 27.999 56.5s28.166 30.167 47.499 40.5s42 15.5 68 15.5z" />
    <glyph glyph-name="guilsinglleft" unicode="&#x2039;" horiz-adv-x="278" 
d="M234 403l-16 -37.002c-2.66699 -6 -6.83398 -14.667 -12.501 -26s-11.334 -23.666 -17.001 -36.999s-10.667 -26.166 -15 -38.499s-6.5 -22.5 -6.5 -30.5s2.16699 -18.167 6.5 -30.5s9.33301 -25.166 15 -38.499s11.334 -25.666 17.001 -36.999s9.83398 -20 12.501 -26
l16 -37h-86l-42 61c-3.33301 4.66699 -8.5 11.5 -15.5 20.5s-14 18.667 -21 29s-13.167 20.666 -18.5 30.999s-8 19.5 -8 27.5s2.66699 17.167 8 27.5s11.5 20.666 18.5 30.999s14 20 21 29s12.167 15.833 15.5 20.5l42 61h86z" />
    <glyph glyph-name="guilsinglright" unicode="&#x203a;" horiz-adv-x="278" 
d="M44 65l16 37.002c2.66699 6 6.83398 14.667 12.501 26s11.334 23.666 17.001 36.999s10.667 26.166 15 38.499s6.5 22.5 6.5 30.5s-2.16699 18.167 -6.5 30.5s-9.33301 25.166 -15 38.499s-11.334 25.666 -17.001 36.999s-9.83398 20 -12.501 26l-16 37h86l42 -61
c3.33301 -4.66699 8.5 -11.5 15.5 -20.5s14 -18.667 21 -29s13.167 -20.666 18.5 -30.999s8 -19.5 8 -27.5s-2.66699 -17.167 -8 -27.5s-11.5 -20.666 -18.5 -30.999s-14 -20 -21 -29s-12.167 -15.833 -15.5 -20.5l-42 -61h-86z" />
    <glyph glyph-name="fraction" unicode="&#x2044;" horiz-adv-x="167" 
d="M272 620h62l-437 -635h-64z" />
    <glyph glyph-name="fraction" unicode="&#x2215;" horiz-adv-x="167" 
d="M272 620h62l-437 -635h-64z" />
    <glyph glyph-name="Euro" unicode="&#x20ac;" 
d="M504 0l-14.9971 38.998c-7.33301 -6.66699 -15 -13.167 -23 -19.5s-17.333 -12 -28 -17s-23.167 -9.16699 -37.5 -12.5s-30.833 -5 -49.5 -5c-73.333 0 -132 18.833 -176 56.5s-72 94.834 -84 171.501h-86l28 74h51v16v14c0 4.66699 0.333008 9.33398 1 14.001h-80l28 74
h61c14 66.667 42 119.167 84 157.5s96.333 57.5 163 57.5c20 0 37.167 -1.16699 51.5 -3.5s27.166 -5.66602 38.499 -9.99902s21.5 -10 30.5 -17s18.167 -14.833 27.5 -23.5l15 44h81v-177h-84c-4 32 -14.333 57.333 -31 76c-9.33301 10 -20 17.667 -32 23s-26.667 8 -44 8
c-36 0 -63.5 -11 -82.5 -33s-31.5 -56 -37.5 -102h214l-27 -74h-193c-0.666992 -4.66699 -1 -9.33398 -1 -14.001v-14v-16h179l-27 -74h-149c3.33301 -47.333 14.666 -83.833 33.999 -109.5s50 -38.5 92 -38.5c16.667 0 31.167 3 43.5 9s22.666 14 30.999 24
s15 21.5 20 34.5s8.5 26.167 10.5 39.5h84v-172h-81z" />
    <glyph glyph-name="trademark" unicode="&#x2122;" horiz-adv-x="1000" 
d="M259 326c0 -7.33301 0.329102 -13.5 0.996094 -18.5s2.5 -9 5.5 -12s8 -5.16699 15 -6.5s16.833 -2.33301 29.5 -3v-27h-224v27c12.667 0.666992 22.5 1.66699 29.5 3s12 3.5 15 6.5s4.83301 7 5.5 12s1 11.167 1 18.5v310h-42c-19.333 0 -33.666 -6.16699 -42.999 -18.5
s-15.666 -26.5 -18.999 -42.5h-27v88h384v-88h-27c-3.33301 16 -9.66602 30.167 -18.999 42.5s-23.666 18.5 -42.999 18.5h-42v-310zM534.996 534l-2.00098 -0.00292969v-174c0 -14 0.333008 -25.667 1 -35s2.5 -16.833 5.5 -22.5s8 -9.66699 15 -12
s16.833 -3.83301 29.5 -4.5v-27h-135v27c12.667 0.666992 22.334 2.16699 29.001 4.5s11.5 6.33301 14.5 12s4.83301 13.167 5.5 22.5s1 21 1 35v222c0 8.66699 -2.33301 16.334 -7 23.001s-10.5 12.334 -17.5 17.001s-14.667 8.16699 -23 10.5s-16.5 3.5 -24.5 3.5v27h163
l127 -263l138 263h139v-27c-12.667 0 -22.5 -0.666992 -29.5 -2s-12 -3.66602 -15 -6.99902s-4.83301 -7.5 -5.5 -12.5s-1 -11.167 -1 -18.5v-270c0 -7.33301 0.333008 -13.5 1 -18.5s2.5 -9 5.5 -12s8 -5.16699 15 -6.5s16.833 -2.33301 29.5 -3v-27h-224v27
c12.667 0.666992 22.5 1.66699 29.5 3s12 3.5 15 6.5s4.83301 7 5.5 12s1 11.167 1 18.5v208h-2l-140 -274h-16z" />
    <glyph glyph-name="minus" unicode="&#x2212;" horiz-adv-x="600" 
d="M66 178v111h467v-111h-467z" />
    <glyph glyph-name="fi" unicode="&#xfb01;" horiz-adv-x="667" 
d="M258 123c0 -14 2.33105 -24.666 6.99805 -31.999s14.334 -11 29.001 -11h24v-80h-300v80h38c14.667 0 24.334 3.66699 29.001 11s7 18 7 32v253h-74v80h74v58c0 36.667 8 66.167 24 88.5s36.667 39.5 62 51.5s53.666 19.833 84.999 23.5s62.666 5.5 93.999 5.5
c16.667 0 37 -1.66699 61 -5s47 -9 69 -17s40.667 -19 56 -33s23 -31.333 23 -52c0 -26 -8 -45.167 -24 -57.5s-38 -18.5 -66 -18.5c-21.333 0 -38.666 5.16699 -51.999 15.5s-20 24.833 -20 43.5c0 8.66699 1.5 17.667 4.5 27s8.16699 16.666 15.5 21.999
c-14.667 4 -29 6.5 -43 7.5s-28.667 1.5 -44 1.5c-14.667 0 -27 -2.5 -37 -7.5s-18.167 -12 -24.5 -21s-10.833 -19.5 -13.5 -31.5s-4 -24.667 -4 -38v-63h326v-333c0 -14 2.33301 -24.667 7 -32s14.334 -11 29.001 -11h31v-80h-292v80h23
c14.667 0 24.334 3.66699 29.001 11s7 18 7 32v210c0 14 -2.33301 24.667 -7 32s-14.334 11 -29.001 11h-124v-253z" />
    <glyph glyph-name="fl" unicode="&#xfb02;" horiz-adv-x="667" 
d="M92 376h-74.0029v80h74v39c0 61.333 18.333 108 55 140s91.667 48 165 48h272v-560c0 -14 2.33301 -24.667 7 -32s14.334 -11 29.001 -11h29v-80h-292v80h25c14.667 0 24.334 3.66699 29.001 11s7 18 7 32v375c-14.667 3.33301 -27.667 9.33301 -39 18s-17 22.667 -17 42
c0 18 6.16699 31.167 18.5 39.5s25.833 14.166 40.5 17.499v2h-52c-40.667 0 -69.334 -9.16699 -86.001 -27.5s-25 -42.166 -25 -71.499v-62h85v-80h-85v-253c0 -14 2.33301 -24.667 7 -32s14.334 -11 29.001 -11h24v-80h-300v80h38c14.667 0 24.334 3.66699 29.001 11
s7 18 7 32v253z" />
    <glyph glyph-name="nonbreakingspace" horiz-adv-x="305" 
 />
    </font>
</defs>
</svg>
